<svg width="24" height="24" viewBox="0 0 24 24" fill="none" xmlns="http://www.w3.org/2000/svg">
<path d="M20.606 2.0809L2.606 9.7999C2.40951 9.88803 2.24671 10.0372 2.14183 10.2253C2.03695 10.4134 1.99559 10.6303 2.0239 10.8438C2.05222 11.0573 2.14869 11.2559 2.29898 11.4102C2.44926 11.5644 2.64533 11.666 2.858 11.6999L11.116 12.8799L12.296 21.1379C12.327 21.3538 12.4277 21.5536 12.5827 21.707C12.7378 21.8603 12.9388 21.9588 13.155 21.9873C13.3712 22.0159 13.5909 21.973 13.7804 21.8651C13.97 21.7572 14.1191 21.5904 14.205 21.3899L21.919 3.3899C21.9977 3.20621 22.0196 3.00316 21.9818 2.80693C21.944 2.6107 21.8482 2.43029 21.7069 2.28899C21.5656 2.14768 21.3852 2.05195 21.189 2.01415C20.9927 1.97635 20.7897 1.9982 20.606 2.0769V2.0809ZM13.771 17.3279L12.99 11.8579C12.9593 11.6439 12.8601 11.4456 12.7072 11.2927C12.5543 11.1398 12.356 11.0406 12.142 11.0099L6.671 10.2289L19.1 4.8999L13.771 17.3279Z" fill="#5BC3B9"/>
</svg>
