<svg width="600" height="600" viewBox="0 0 600 600" fill="none" xmlns="http://www.w3.org/2000/svg">
<rect width="600" height="600" rx="39" fill="white"/>
<line x1="291.5" y1="122" x2="291.5" y2="511" stroke="#D9D9D9"/>
<rect x="68.5" y="121.5" width="484" height="389" stroke="#D9D9D9"/>
<line x1="68" y1="280.5" x2="553" y2="280.5" stroke="#D9D9D9"/>
<line x1="68" y1="201.5" x2="553" y2="201.5" stroke="#D9D9D9"/>
<line x1="68" y1="359.5" x2="553" y2="359.5" stroke="#D9D9D9"/>
<line x1="68" y1="438.5" x2="553" y2="438.5" stroke="#D9D9D9"/>
<path d="M95.992 530.242V537.452C95.992 538.255 95.7447 538.899 95.25 539.384C94.7553 539.86 94.102 540.098 93.29 540.098C92.4687 540.098 91.8107 539.855 91.316 539.37C90.8213 538.875 90.574 538.203 90.574 537.354H91.848C91.8573 537.83 91.9787 538.217 92.212 538.516C92.4547 538.815 92.814 538.964 93.29 538.964C93.766 538.964 94.1207 538.824 94.354 538.544C94.5873 538.255 94.704 537.891 94.704 537.452V530.242H95.992ZM104.27 537.83H100.014L99.2298 540H97.8858L101.414 530.298H102.884L106.398 540H105.054L104.27 537.83ZM103.906 536.794L102.142 531.866L100.378 536.794H103.906ZM115.607 540H114.333L109.209 532.23V540H107.935V530.228H109.209L114.333 537.984V530.228H115.607V540Z" fill="#8D9092"/>
<path d="M43.868 504.834C43.868 507.774 44.596 510 47.396 510C50.182 510 50.91 507.774 50.91 504.834C50.91 501.936 50.182 499.724 47.396 499.724C44.596 499.724 43.868 501.936 43.868 504.834ZM49.65 504.834C49.65 507.018 49.384 508.838 47.396 508.838C45.394 508.838 45.128 507.018 45.128 504.834C45.128 502.734 45.394 500.886 47.396 500.886C49.384 500.886 49.65 502.734 49.65 504.834Z" fill="#8D9092"/>
<path d="M43.714 442.888H50.448V441.824H45.632C47.438 440.354 50.154 438.212 50.154 435.692C50.154 433.816 48.922 432.696 47.018 432.696C45.198 432.696 43.84 433.816 43.756 435.972H44.988C45.044 434.698 45.716 433.788 47.032 433.788C48.404 433.788 48.894 434.628 48.894 435.748C48.894 437.82 46.374 439.836 43.714 441.978V442.888Z" fill="#8D9092"/>
<path d="M48.74 364H50V361.746H51.4V360.64H50V353.976H48.474L43.56 360.78V361.746H48.74V364ZM45.03 360.64L48.796 355.306V360.64H45.03Z" fill="#8D9092"/>
<path d="M50.686 277.286C50.518 275.872 49.538 274.668 47.606 274.668C45.044 274.668 44.022 276.628 44.022 279.806C44.022 282.872 44.736 285.028 47.732 285.028C49.944 285.028 51.036 283.516 51.036 281.668C51.036 279.54 49.762 278.294 47.872 278.294C46.668 278.294 45.562 278.854 45.128 279.848C45.114 276.838 45.982 275.732 47.592 275.732C48.74 275.732 49.314 276.306 49.51 277.286H50.686ZM47.606 279.372C49.062 279.372 49.804 280.282 49.804 281.71C49.804 283.082 48.978 283.964 47.662 283.964C46.066 283.964 45.282 282.914 45.282 281.57C45.282 280.058 46.444 279.372 47.606 279.372Z" fill="#8D9092"/>
<path d="M45.716 200.736C44.582 201.072 43.84 201.996 43.84 203.27C43.84 205.104 45.282 206.28 47.41 206.28C49.552 206.28 51.008 205.104 51.008 203.27C51.008 202.01 50.266 201.086 49.118 200.736C50.112 200.344 50.742 199.504 50.742 198.412C50.742 196.942 49.608 195.724 47.41 195.724C45.212 195.724 44.092 196.928 44.092 198.412C44.092 199.546 44.68 200.33 45.716 200.736ZM47.41 200.316C46.178 200.316 45.324 199.63 45.324 198.58C45.324 197.39 46.164 196.788 47.41 196.788C48.684 196.788 49.51 197.404 49.51 198.566C49.51 199.616 48.656 200.316 47.41 200.316ZM47.41 201.296C48.74 201.296 49.748 201.926 49.748 203.228C49.748 204.404 48.852 205.216 47.41 205.216C45.968 205.216 45.058 204.418 45.058 203.228C45.058 201.884 46.108 201.296 47.41 201.296Z" fill="#8D9092"/>
<path d="M42.876 125H44.164V114.878H41.532V116.04H42.876V125ZM46.3524 119.834C46.3524 122.774 47.0804 125 49.8804 125C52.6664 125 53.3944 122.774 53.3944 119.834C53.3944 116.936 52.6664 114.724 49.8804 114.724C47.0804 114.724 46.3524 116.936 46.3524 119.834ZM52.1344 119.834C52.1344 122.018 51.8684 123.838 49.8804 123.838C47.8784 123.838 47.6124 122.018 47.6124 119.834C47.6124 117.734 47.8784 115.886 49.8804 115.886C51.8684 115.886 52.1344 117.734 52.1344 119.834Z" fill="#8D9092"/>
<path d="M174.078 540H175.352V535.604H178.796V534.568H175.352V531.278H179.594V530.242H174.078V540ZM186.383 530.228H181.133V540H186.383V538.95H182.407V535.59H185.963V534.54H182.407V531.278H186.383V530.228ZM193.854 537.256C193.854 538.32 193.098 538.95 191.838 538.95H189.584V535.506H191.796C193.042 535.506 193.854 536.178 193.854 537.256ZM193.602 532.874C193.602 533.868 192.916 534.456 191.726 534.456H189.584V531.292H191.698C192.944 531.292 193.602 531.908 193.602 532.874ZM195.128 537.382C195.128 536.178 194.26 535.156 193.196 534.974C194.134 534.666 194.904 533.952 194.904 532.72C194.904 531.362 193.868 530.242 191.81 530.242H188.31V540H191.95C193.966 540 195.128 538.852 195.128 537.382Z" fill="#8D9092"/>
<path d="M253.078 540H254.352V532.762L257.586 540H258.482L261.702 532.776V540H262.976V530.312H261.618L258.034 538.32L254.45 530.312H253.078V540ZM271.689 540H273.033L269.519 530.298H268.049L264.521 540H265.865L266.649 537.83H270.905L271.689 540ZM270.541 536.794H267.013L268.777 531.866L270.541 536.794ZM279.792 533.112C279.792 534.204 279.162 534.988 277.72 534.988H275.844V531.292H277.72C279.176 531.292 279.792 532.006 279.792 533.112ZM274.57 530.242V540H275.844V536.01H277.384L279.708 540H281.234L278.784 535.912C280.422 535.548 281.108 534.358 281.108 533.112C281.108 531.516 280.016 530.242 277.72 530.242H274.57Z" fill="#8D9092"/>
<path d="M346.63 540H347.974L344.46 530.298H342.99L339.462 540H340.806L341.59 537.83H345.846L346.63 540ZM345.482 536.794H341.954L343.718 531.866L345.482 536.794ZM350.786 534.876V531.292H352.662C354.118 531.292 354.734 531.964 354.734 533.098C354.734 534.19 354.118 534.876 352.662 534.876H350.786ZM356.036 533.098C356.036 531.502 354.958 530.242 352.662 530.242H349.512V540H350.786V535.926H352.662C355.084 535.926 356.036 534.582 356.036 533.098ZM362.841 533.112C362.841 534.204 362.211 534.988 360.769 534.988H358.893V531.292H360.769C362.225 531.292 362.841 532.006 362.841 533.112ZM357.619 530.242V540H358.893V536.01H360.433L362.757 540H364.283L361.833 535.912C363.471 535.548 364.157 534.358 364.157 533.112C364.157 531.516 363.065 530.242 360.769 530.242H357.619Z" fill="#8D9092"/>
<path d="M423.078 540H424.352V532.762L427.586 540H428.482L431.702 532.776V540H432.976V530.312H431.618L428.034 538.32L424.45 530.312H423.078V540ZM441.689 540H443.033L439.519 530.298H438.049L434.521 540H435.865L436.649 537.83H440.905L441.689 540ZM440.541 536.794H437.013L438.777 531.866L440.541 536.794ZM446.95 536.318V540H448.224V536.318L451.402 530.242H449.988L447.58 535.184L445.172 530.242H443.758L446.95 536.318Z" fill="#8D9092"/>
<path d="M512.704 537.452C512.704 538.264 512.298 538.964 511.29 538.964C510.282 538.964 509.862 538.25 509.848 537.354H508.574C508.574 539.062 509.666 540.098 511.29 540.098C512.9 540.098 513.992 539.076 513.992 537.452V530.242H512.704V537.452ZM516.474 536.402C516.474 538.936 518.126 540.098 520.142 540.098C522.158 540.098 523.824 538.936 523.824 536.402V530.242H522.55V536.416C522.55 538.208 521.598 538.978 520.156 538.978C518.714 538.978 517.748 538.208 517.748 536.416V530.242H516.474V536.402ZM532.347 530.228V537.984L527.223 530.228H525.949V540H527.223V532.23L532.347 540H533.621V530.228H532.347Z" fill="#8D9092"/>
<path d="M71.0566 68.5566H75.3535C76.3431 68.5566 77.209 68.3581 77.9512 67.9609C78.6934 67.5638 79.2695 67.0039 79.6797 66.2812C80.0964 65.5586 80.3047 64.7122 80.3047 63.7422V63.7227C80.3047 62.7591 80.0964 61.916 79.6797 61.1934C79.2695 60.4707 78.6934 59.9108 77.9512 59.5137C77.209 59.11 76.3431 58.9082 75.3535 58.9082H71.0566V61.2422H74.6309C75.4772 61.2422 76.1348 61.457 76.6035 61.8867C77.0788 62.3164 77.3164 62.9316 77.3164 63.7324V63.752C77.3164 64.5527 77.0788 65.1712 76.6035 65.6074C76.1348 66.0371 75.4772 66.252 74.6309 66.252H71.0566V68.5566ZM69.582 73H72.5312V58.9082H69.582V73ZM81.7117 73H84.5633V67.0234C84.5633 66.5156 84.6642 66.0827 84.866 65.7246C85.0743 65.36 85.3673 65.0801 85.7449 64.8848C86.129 64.6895 86.5815 64.5918 87.1023 64.5918C87.3237 64.5918 87.5385 64.6081 87.7469 64.6406C87.9617 64.6667 88.1635 64.7057 88.3523 64.7578V62.2676C88.2156 62.2285 88.0594 62.196 87.8836 62.1699C87.7078 62.1439 87.5288 62.1309 87.3465 62.1309C86.6694 62.1309 86.103 62.2969 85.6473 62.6289C85.1915 62.9609 84.879 63.4264 84.7098 64.0254H84.5633V62.3164H81.7117V73ZM93.773 73.2246C94.8668 73.2246 95.8076 73.0033 96.5953 72.5605C97.3831 72.1178 97.9885 71.4798 98.4117 70.6465C98.8349 69.8132 99.0465 68.8171 99.0465 67.6582V67.6387C99.0465 66.4863 98.8316 65.4967 98.402 64.6699C97.9788 63.8431 97.3733 63.2083 96.5855 62.7656C95.7978 62.3164 94.8603 62.0918 93.773 62.0918C92.6923 62.0918 91.7581 62.3164 90.9703 62.7656C90.1826 63.2083 89.5738 63.8464 89.1441 64.6797C88.7145 65.5065 88.4996 66.4928 88.4996 67.6387V67.6582C88.4996 68.8171 88.7112 69.8132 89.1344 70.6465C89.5576 71.4798 90.163 72.1178 90.9508 72.5605C91.7451 73.0033 92.6858 73.2246 93.773 73.2246ZM93.773 70.9883C93.2783 70.9883 92.8551 70.8581 92.5035 70.5977C92.152 70.3372 91.8818 69.9596 91.693 69.4648C91.5107 68.9635 91.4195 68.3646 91.4195 67.668V67.6484C91.4195 66.9518 91.5139 66.3561 91.7027 65.8613C91.8915 65.3665 92.1617 64.9889 92.5133 64.7285C92.8648 64.4616 93.2848 64.3281 93.773 64.3281C94.2678 64.3281 94.691 64.4616 95.0426 64.7285C95.3941 64.9889 95.6643 65.3665 95.8531 65.8613C96.0419 66.3561 96.1363 66.9518 96.1363 67.6484V67.668C96.1363 68.3646 96.0419 68.9603 95.8531 69.4551C95.6643 69.9499 95.3941 70.3307 95.0426 70.5977C94.6975 70.8581 94.2743 70.9883 93.773 70.9883ZM104.213 73.1855C104.715 73.1855 105.174 73.1107 105.59 72.9609C106.007 72.8047 106.371 72.5898 106.684 72.3164C106.996 72.0365 107.244 71.7012 107.426 71.3105H107.573V73H110.424V58.3223H107.573V64.0547H107.426C107.244 63.6576 106.993 63.3158 106.674 63.0293C106.362 62.7428 105.994 62.5215 105.571 62.3652C105.154 62.209 104.698 62.1309 104.204 62.1309C103.305 62.1309 102.53 62.3522 101.879 62.7949C101.235 63.2376 100.737 63.8724 100.385 64.6992C100.04 65.5195 99.8676 66.5026 99.8676 67.6484V67.668C99.8676 68.8073 100.043 69.7904 100.395 70.6172C100.746 71.4375 101.248 72.0723 101.899 72.5215C102.55 72.9642 103.321 73.1855 104.213 73.1855ZM105.18 70.8223C104.685 70.8223 104.256 70.6953 103.891 70.4414C103.533 70.1875 103.256 69.8262 103.061 69.3574C102.866 68.8822 102.768 68.319 102.768 67.668V67.6484C102.768 66.9974 102.866 66.4375 103.061 65.9688C103.256 65.4935 103.533 65.1289 103.891 64.875C104.256 64.6211 104.685 64.4941 105.18 64.4941C105.668 64.4941 106.092 64.6211 106.45 64.875C106.814 65.1289 107.097 65.4935 107.299 65.9688C107.501 66.4375 107.602 66.9974 107.602 67.6484V67.668C107.602 68.319 107.501 68.8822 107.299 69.3574C107.104 69.8262 106.824 70.1875 106.459 70.4414C106.101 70.6953 105.675 70.8223 105.18 70.8223ZM115.894 73.2246C116.408 73.2246 116.87 73.1497 117.28 73C117.691 72.8438 118.042 72.6257 118.335 72.3457C118.628 72.0592 118.859 71.7207 119.029 71.3301H119.175V73H122.027V62.3164H119.175V68.4883C119.175 68.8464 119.126 69.1719 119.029 69.4648C118.937 69.7513 118.801 69.9987 118.618 70.207C118.436 70.4154 118.211 70.5781 117.945 70.6953C117.678 70.806 117.372 70.8613 117.027 70.8613C116.356 70.8613 115.868 70.6693 115.562 70.2852C115.256 69.8945 115.103 69.3281 115.103 68.5859V62.3164H112.251V69.2207C112.251 70.0671 112.388 70.7897 112.661 71.3887C112.941 71.9876 113.351 72.4434 113.892 72.7559C114.432 73.0684 115.099 73.2246 115.894 73.2246ZM128.59 73.2246C129.527 73.2246 130.335 73.0618 131.012 72.7363C131.695 72.4108 132.236 71.9583 132.633 71.3789C133.03 70.793 133.271 70.1126 133.355 69.3379L133.365 69.2695L130.719 69.2793L130.699 69.3184C130.582 69.8587 130.348 70.2721 129.996 70.5586C129.651 70.8451 129.186 70.9883 128.6 70.9883C128.105 70.9883 127.682 70.8613 127.33 70.6074C126.979 70.347 126.708 69.9694 126.52 69.4746C126.337 68.9733 126.246 68.3646 126.246 67.6484V67.6289C126.246 66.9258 126.337 66.3301 126.52 65.8418C126.708 65.347 126.975 64.9727 127.32 64.7188C127.672 64.4583 128.098 64.3281 128.6 64.3281C129.205 64.3281 129.684 64.4876 130.035 64.8066C130.393 65.1257 130.618 65.5423 130.709 66.0566L130.719 66.0957H133.365V66.0566C133.294 65.2624 133.059 64.569 132.662 63.9766C132.265 63.3841 131.721 62.9219 131.031 62.5898C130.348 62.2578 129.531 62.0918 128.58 62.0918C127.48 62.0918 126.539 62.3099 125.758 62.7461C124.977 63.1823 124.378 63.8138 123.961 64.6406C123.551 65.4674 123.346 66.4635 123.346 67.6289V67.6484C123.346 68.8203 123.551 69.8229 123.961 70.6562C124.378 71.4896 124.977 72.1276 125.758 72.5703C126.539 73.0065 127.483 73.2246 128.59 73.2246ZM139.059 73.0781C139.339 73.0781 139.6 73.0651 139.841 73.0391C140.088 73.0195 140.296 72.9935 140.466 72.9609V70.8516C140.342 70.8646 140.221 70.8743 140.104 70.8809C139.994 70.8874 139.854 70.8906 139.684 70.8906C139.216 70.8906 138.871 70.7832 138.649 70.5684C138.428 70.3535 138.317 70.0052 138.317 69.5234V64.4648H140.466V62.3164H138.317V59.748H135.436V62.3164H133.835V64.4648H135.436V70.0996C135.436 71.1608 135.72 71.9225 136.286 72.3848C136.859 72.847 137.783 73.0781 139.059 73.0781ZM141.882 73H144.734V62.3164H141.882V73ZM143.308 60.7344C143.751 60.7344 144.125 60.5814 144.431 60.2754C144.744 59.9694 144.9 59.6048 144.9 59.1816C144.9 58.7454 144.744 58.3776 144.431 58.0781C144.125 57.7721 143.751 57.6191 143.308 57.6191C142.879 57.6191 142.507 57.7721 142.195 58.0781C141.882 58.3776 141.726 58.7454 141.726 59.1816C141.726 59.6048 141.882 59.9694 142.195 60.2754C142.507 60.5814 142.879 60.7344 143.308 60.7344ZM149.383 73H152.586L156.278 62.3164H153.28L151.082 70.373H150.936L148.719 62.3164H145.662L149.383 73ZM157.216 73H160.068V62.3164H157.216V73ZM158.642 60.7344C159.085 60.7344 159.459 60.5814 159.765 60.2754C160.077 59.9694 160.234 59.6048 160.234 59.1816C160.234 58.7454 160.077 58.3776 159.765 58.0781C159.459 57.7721 159.085 57.6191 158.642 57.6191C158.212 57.6191 157.841 57.7721 157.529 58.0781C157.216 58.3776 157.06 58.7454 157.06 59.1816C157.06 59.6048 157.216 59.9694 157.529 60.2754C157.841 60.5814 158.212 60.7344 158.642 60.7344ZM166.309 73.0781C166.589 73.0781 166.849 73.0651 167.09 73.0391C167.337 73.0195 167.546 72.9935 167.715 72.9609V70.8516C167.591 70.8646 167.471 70.8743 167.354 70.8809C167.243 70.8874 167.103 70.8906 166.934 70.8906C166.465 70.8906 166.12 70.7832 165.898 70.5684C165.677 70.3535 165.566 70.0052 165.566 69.5234V64.4648H167.715V62.3164H165.566V59.748H162.686V62.3164H161.084V64.4648H162.686V70.0996C162.686 71.1608 162.969 71.9225 163.535 72.3848C164.108 72.847 165.033 73.0781 166.309 73.0781ZM170.47 76.7109C171.329 76.7109 172.068 76.5938 172.686 76.3594C173.305 76.1315 173.832 75.7507 174.268 75.2168C174.705 74.6829 175.076 73.957 175.382 73.0391L179.024 62.3164H176.016L173.497 71.4766L174.063 70.4707H173.292L173.878 71.4766L171.358 62.3164H168.223L171.983 73L171.876 73.4004C171.772 73.7975 171.576 74.0905 171.29 74.2793C171.003 74.4681 170.616 74.5625 170.128 74.5625C169.978 74.5625 169.832 74.556 169.688 74.543C169.552 74.5365 169.434 74.5299 169.337 74.5234V76.6523C169.506 76.6719 169.688 76.6849 169.884 76.6914C170.079 76.7044 170.274 76.7109 170.47 76.7109ZM188.811 73.2246C189.748 73.2246 190.556 73.0618 191.233 72.7363C191.916 72.4108 192.457 71.9583 192.854 71.3789C193.251 70.793 193.492 70.1126 193.577 69.3379L193.586 69.2695L190.94 69.2793L190.92 69.3184C190.803 69.8587 190.569 70.2721 190.217 70.5586C189.872 70.8451 189.407 70.9883 188.821 70.9883C188.326 70.9883 187.903 70.8613 187.551 70.6074C187.2 70.347 186.929 69.9694 186.741 69.4746C186.558 68.9733 186.467 68.3646 186.467 67.6484V67.6289C186.467 66.9258 186.558 66.3301 186.741 65.8418C186.929 65.347 187.196 64.9727 187.541 64.7188C187.893 64.4583 188.319 64.3281 188.821 64.3281C189.426 64.3281 189.905 64.4876 190.256 64.8066C190.614 65.1257 190.839 65.5423 190.93 66.0566L190.94 66.0957H193.586V66.0566C193.515 65.2624 193.28 64.569 192.883 63.9766C192.486 63.3841 191.942 62.9219 191.252 62.5898C190.569 62.2578 189.752 62.0918 188.801 62.0918C187.701 62.0918 186.76 62.3099 185.979 62.7461C185.198 63.1823 184.599 63.8138 184.182 64.6406C183.772 65.4674 183.567 66.4635 183.567 67.6289V67.6484C183.567 68.8203 183.772 69.8229 184.182 70.6562C184.599 71.4896 185.198 72.1276 185.979 72.5703C186.76 73.0065 187.704 73.2246 188.811 73.2246ZM199.583 73.2246C200.677 73.2246 201.618 73.0033 202.405 72.5605C203.193 72.1178 203.799 71.4798 204.222 70.6465C204.645 69.8132 204.857 68.8171 204.857 67.6582V67.6387C204.857 66.4863 204.642 65.4967 204.212 64.6699C203.789 63.8431 203.183 63.2083 202.396 62.7656C201.608 62.3164 200.67 62.0918 199.583 62.0918C198.502 62.0918 197.568 62.3164 196.78 62.7656C195.993 63.2083 195.384 63.8464 194.954 64.6797C194.525 65.5065 194.31 66.4928 194.31 67.6387V67.6582C194.31 68.8171 194.521 69.8132 194.945 70.6465C195.368 71.4798 195.973 72.1178 196.761 72.5605C197.555 73.0033 198.496 73.2246 199.583 73.2246ZM199.583 70.9883C199.088 70.9883 198.665 70.8581 198.314 70.5977C197.962 70.3372 197.692 69.9596 197.503 69.4648C197.321 68.9635 197.23 68.3646 197.23 67.668V67.6484C197.23 66.9518 197.324 66.3561 197.513 65.8613C197.702 65.3665 197.972 64.9889 198.323 64.7285C198.675 64.4616 199.095 64.3281 199.583 64.3281C200.078 64.3281 200.501 64.4616 200.853 64.7285C201.204 64.9889 201.474 65.3665 201.663 65.8613C201.852 66.3561 201.946 66.9518 201.946 67.6484V67.668C201.946 68.3646 201.852 68.9603 201.663 69.4551C201.474 69.9499 201.204 70.3307 200.853 70.5977C200.508 70.8581 200.085 70.9883 199.583 70.9883ZM206.176 73H209.027V66.5547C209.027 66.151 209.105 65.7897 209.262 65.4707C209.424 65.1517 209.646 64.9043 209.926 64.7285C210.206 64.5462 210.531 64.4551 210.902 64.4551C211.267 64.4551 211.579 64.5267 211.84 64.6699C212.1 64.8132 212.299 65.0215 212.436 65.2949C212.579 65.5618 212.65 65.8841 212.65 66.2617V73H215.482V66.4473C215.482 66.0566 215.557 65.7116 215.707 65.4121C215.863 65.1126 216.081 64.8783 216.361 64.709C216.641 64.5397 216.97 64.4551 217.348 64.4551C217.738 64.4551 218.064 64.5267 218.324 64.6699C218.585 64.8132 218.78 65.028 218.91 65.3145C219.04 65.6009 219.105 65.959 219.105 66.3887V73H221.957V65.6758C221.957 64.9401 221.814 64.3053 221.527 63.7715C221.247 63.2376 220.847 62.8242 220.326 62.5312C219.812 62.2383 219.2 62.0918 218.49 62.0918C217.989 62.0918 217.523 62.1764 217.094 62.3457C216.664 62.5085 216.29 62.7428 215.971 63.0488C215.652 63.3483 215.411 63.7031 215.248 64.1133H215.102C214.965 63.6836 214.757 63.319 214.477 63.0195C214.197 62.7201 213.858 62.4922 213.461 62.3359C213.07 62.1732 212.631 62.0918 212.143 62.0918C211.439 62.0918 210.824 62.2611 210.297 62.5996C209.776 62.9382 209.402 63.4102 209.174 64.0156H209.027V62.3164H206.176V73ZM223.696 76.5254H226.548V71.2617H226.694C226.876 71.6589 227.124 72.0007 227.436 72.2871C227.755 72.5736 228.123 72.7949 228.54 72.9512C228.963 73.1074 229.422 73.1855 229.917 73.1855C230.822 73.1855 231.596 72.9642 232.241 72.5215C232.886 72.0788 233.38 71.4473 233.725 70.627C234.077 69.8001 234.253 68.8138 234.253 67.668V67.6484C234.253 66.5026 234.077 65.5195 233.725 64.6992C233.374 63.8789 232.873 63.2474 232.221 62.8047C231.577 62.3555 230.805 62.1309 229.907 62.1309C229.406 62.1309 228.947 62.209 228.53 62.3652C228.113 62.515 227.749 62.7298 227.436 63.0098C227.13 63.2832 226.883 63.6185 226.694 64.0156H226.548V62.3164H223.696V76.5254ZM228.94 70.8223C228.452 70.8223 228.026 70.6953 227.661 70.4414C227.303 70.181 227.023 69.8164 226.821 69.3477C226.619 68.8724 226.518 68.3125 226.518 67.668V67.6484C226.518 66.9909 226.616 66.4277 226.811 65.959C227.013 65.4902 227.296 65.1289 227.661 64.875C228.026 64.6211 228.452 64.4941 228.94 64.4941C229.442 64.4941 229.871 64.6211 230.229 64.875C230.587 65.1289 230.864 65.4902 231.059 65.959C231.255 66.4277 231.352 66.9909 231.352 67.6484V67.668C231.352 68.3125 231.255 68.8724 231.059 69.3477C230.864 69.8164 230.587 70.181 230.229 70.4414C229.871 70.6953 229.442 70.8223 228.94 70.8223ZM238.56 73.166C239.029 73.166 239.462 73.1042 239.859 72.9805C240.256 72.8503 240.608 72.6647 240.914 72.4238C241.22 72.1764 241.464 71.8835 241.646 71.5449H241.793V73H244.615V65.6953C244.615 64.9466 244.439 64.3021 244.087 63.7617C243.736 63.2214 243.228 62.8079 242.564 62.5215C241.9 62.235 241.096 62.0918 240.152 62.0918C239.254 62.0918 238.466 62.2253 237.789 62.4922C237.112 62.7526 236.574 63.1204 236.177 63.5957C235.787 64.071 235.556 64.6276 235.484 65.2656L235.474 65.3633H238.101L238.121 65.3145C238.225 64.9889 238.436 64.735 238.755 64.5527C239.074 64.3639 239.494 64.2695 240.015 64.2695C240.595 64.2695 241.034 64.3997 241.334 64.6602C241.64 64.9141 241.793 65.2754 241.793 65.7441V69.1133C241.793 69.4844 241.692 69.8197 241.49 70.1191C241.295 70.4186 241.024 70.6562 240.679 70.832C240.341 71.0013 239.953 71.0859 239.517 71.0859C239.022 71.0859 238.619 70.972 238.306 70.7441C238 70.5098 237.847 70.194 237.847 69.7969V69.7773C237.847 69.3867 237.994 69.0807 238.287 68.8594C238.586 68.6315 239.032 68.498 239.625 68.459L243.218 68.2246V66.4863L239.205 66.7207C238.319 66.7793 237.567 66.9388 236.949 67.1992C236.33 67.4596 235.858 67.821 235.533 68.2832C235.214 68.7454 235.054 69.2988 235.054 69.9434V69.9531C235.054 70.5977 235.204 71.1641 235.504 71.6523C235.803 72.1341 236.216 72.5085 236.744 72.7754C237.271 73.0358 237.877 73.166 238.56 73.166ZM246.393 73H249.245V67.0234C249.245 66.5156 249.345 66.0827 249.547 65.7246C249.756 65.36 250.049 65.0801 250.426 64.8848C250.81 64.6895 251.263 64.5918 251.784 64.5918C252.005 64.5918 252.22 64.6081 252.428 64.6406C252.643 64.6667 252.845 64.7057 253.034 64.7578V62.2676C252.897 62.2285 252.741 62.196 252.565 62.1699C252.389 62.1439 252.21 62.1309 252.028 62.1309C251.351 62.1309 250.784 62.2969 250.329 62.6289C249.873 62.9609 249.56 63.4264 249.391 64.0254H249.245V62.3164H246.393V73ZM253.982 73H256.833V62.3164H253.982V73ZM255.407 60.7344C255.85 60.7344 256.224 60.5814 256.53 60.2754C256.843 59.9694 256.999 59.6048 256.999 59.1816C256.999 58.7454 256.843 58.3776 256.53 58.0781C256.224 57.7721 255.85 57.6191 255.407 57.6191C254.978 57.6191 254.607 57.7721 254.294 58.0781C253.982 58.3776 253.825 58.7454 253.825 59.1816C253.825 59.6048 253.982 59.9694 254.294 60.2754C254.607 60.5814 254.978 60.7344 255.407 60.7344ZM262.957 73.2246C263.875 73.2246 264.686 73.0814 265.389 72.7949C266.092 72.5085 266.642 72.1048 267.039 71.584C267.443 71.0566 267.645 70.4414 267.645 69.7383V69.7285C267.645 68.9408 267.391 68.3158 266.883 67.8535C266.382 67.3848 265.59 67.0332 264.51 66.7988L262.723 66.418C262.358 66.3333 262.065 66.2389 261.844 66.1348C261.629 66.0306 261.473 65.9102 261.375 65.7734C261.277 65.6302 261.229 65.4642 261.229 65.2754V65.2656C261.229 65.0247 261.3 64.8197 261.443 64.6504C261.587 64.4746 261.782 64.3411 262.029 64.25C262.283 64.1523 262.573 64.1035 262.898 64.1035C263.432 64.1035 263.855 64.2207 264.168 64.4551C264.48 64.6829 264.669 64.9531 264.734 65.2656L264.744 65.3145H267.391V65.2656C267.352 64.6797 267.156 64.1458 266.805 63.6641C266.453 63.1823 265.949 62.8014 265.291 62.5215C264.64 62.235 263.846 62.0918 262.908 62.0918C262.016 62.0918 261.235 62.2318 260.564 62.5117C259.894 62.7852 259.373 63.1725 259.002 63.6738C258.631 64.1751 258.445 64.7611 258.445 65.4316V65.4414C258.445 65.9753 258.559 66.444 258.787 66.8477C259.015 67.2513 259.357 67.5898 259.812 67.8633C260.268 68.1367 260.835 68.3451 261.512 68.4883L263.309 68.8691C263.842 68.9928 264.223 69.1458 264.451 69.3281C264.679 69.5104 264.793 69.7448 264.793 70.0312V70.0508C264.793 70.2852 264.718 70.4902 264.568 70.666C264.419 70.8353 264.207 70.9688 263.934 71.0664C263.667 71.1641 263.351 71.2129 262.986 71.2129C262.42 71.2129 261.974 71.1055 261.648 70.8906C261.323 70.6693 261.105 70.3828 260.994 70.0312L260.975 69.9824H258.182V70.0312C258.253 70.6562 258.481 71.2096 258.865 71.6914C259.256 72.1732 259.793 72.5508 260.477 72.8242C261.16 73.0911 261.987 73.2246 262.957 73.2246ZM273.749 73.2246C274.843 73.2246 275.783 73.0033 276.571 72.5605C277.359 72.1178 277.964 71.4798 278.387 70.6465C278.811 69.8132 279.022 68.8171 279.022 67.6582V67.6387C279.022 66.4863 278.807 65.4967 278.378 64.6699C277.955 63.8431 277.349 63.2083 276.561 62.7656C275.774 62.3164 274.836 62.0918 273.749 62.0918C272.668 62.0918 271.734 62.3164 270.946 62.7656C270.158 63.2083 269.55 63.8464 269.12 64.6797C268.69 65.5065 268.475 66.4928 268.475 67.6387V67.6582C268.475 68.8171 268.687 69.8132 269.11 70.6465C269.533 71.4798 270.139 72.1178 270.927 72.5605C271.721 73.0033 272.662 73.2246 273.749 73.2246ZM273.749 70.9883C273.254 70.9883 272.831 70.8581 272.479 70.5977C272.128 70.3372 271.858 69.9596 271.669 69.4648C271.486 68.9635 271.395 68.3646 271.395 67.668V67.6484C271.395 66.9518 271.49 66.3561 271.679 65.8613C271.867 65.3665 272.137 64.9889 272.489 64.7285C272.841 64.4616 273.261 64.3281 273.749 64.3281C274.244 64.3281 274.667 64.4616 275.018 64.7285C275.37 64.9889 275.64 65.3665 275.829 65.8613C276.018 66.3561 276.112 66.9518 276.112 67.6484V67.668C276.112 68.3646 276.018 68.9603 275.829 69.4551C275.64 69.9499 275.37 70.3307 275.018 70.5977C274.673 70.8581 274.25 70.9883 273.749 70.9883ZM280.341 73H283.193V66.8281C283.193 66.3464 283.278 65.9297 283.447 65.5781C283.616 65.2201 283.857 64.9434 284.17 64.748C284.489 64.5527 284.866 64.4551 285.302 64.4551C285.966 64.4551 286.458 64.6504 286.777 65.041C287.102 65.4251 287.265 65.9883 287.265 66.7305V73H290.117V66.0957C290.117 64.8197 289.801 63.8333 289.17 63.1367C288.545 62.4401 287.64 62.0918 286.455 62.0918C285.68 62.0918 285.029 62.2611 284.502 62.5996C283.981 62.9382 283.593 63.4004 283.339 63.9863H283.193V62.3164H280.341V73Z" fill="black"/>
<path d="M145.762 467.041L69 503.456V510H553V294.575L471.253 349.703L386.5 355.5L318.228 434.166L240.469 402.303L145.762 467.041Z" fill="url(#paint0_linear_32_45)"/>
<path d="M69 502L145.762 466L240.469 402L318.228 433.5L385.5 356L471.253 350L553 295.5" stroke="#E82929" stroke-width="2" stroke-linecap="round" stroke-linejoin="round" stroke-dasharray="7 11"/>
<path d="M153.5 417L67.5 476.5V511.5H553V200.5L518.5 250L482 229L391 311.5L292 262.5L191.5 343L153.5 417Z" fill="url(#paint1_linear_32_45)"/>
<g filter="url(#filter0_d_32_45)">
<path d="M67.5 476.5L153.5 417L191.5 343L292 262.5L390.5 312L482 229L518.5 250L553 200.5" stroke="#1BFDAC" stroke-width="3" stroke-linecap="round"/>
</g>
<circle cx="68" cy="475" r="5" fill="white" stroke="#292D30" stroke-width="2"/>
<circle cx="153" cy="416" r="5" fill="white" stroke="#292D30" stroke-width="2"/>
<circle cx="191" cy="343" r="5" fill="white" stroke="#292D30" stroke-width="2"/>
<circle cx="291" cy="263" r="5" fill="white" stroke="#292D30" stroke-width="2"/>
<circle cx="291" cy="422" r="5" fill="white" stroke="#E82929" stroke-width="2"/>
<circle cx="391" cy="311" r="5" fill="white" stroke="#292D30" stroke-width="2"/>
<circle cx="482" cy="230" r="5" fill="white" stroke="#292D30" stroke-width="2"/>
<circle cx="519" cy="249" r="5" fill="white" stroke="#292D30" stroke-width="2"/>
<circle cx="553" cy="201" r="5" fill="white" stroke="#292D30" stroke-width="2"/>
<rect x="221" y="212" width="144" height="24" rx="12" fill="#17AE78"/>
<path d="M240.025 228H241.602V222.246H242.475L240.793 219.779L243.887 228H244.994L248.094 219.779L246.406 222.246H247.279V228H248.855V219.545H246.828L244.496 225.732H244.391L242.053 219.545H240.025V228ZM252.08 228.1C252.361 228.1 252.621 228.062 252.859 227.988C253.101 227.91 253.312 227.801 253.492 227.66C253.676 227.516 253.822 227.344 253.932 227.145H254.037V228H255.725V223.594C255.725 223.137 255.619 222.746 255.408 222.422C255.201 222.094 254.898 221.844 254.5 221.672C254.101 221.496 253.617 221.408 253.047 221.408C252.508 221.408 252.033 221.486 251.623 221.643C251.217 221.799 250.892 222.018 250.65 222.299C250.412 222.58 250.269 222.91 250.223 223.289L250.217 223.342H251.799L251.81 223.318C251.877 223.127 252.006 222.98 252.197 222.879C252.392 222.773 252.644 222.721 252.953 222.721C253.305 222.721 253.572 222.797 253.756 222.949C253.943 223.098 254.037 223.312 254.037 223.594V225.65C254.037 225.877 253.976 226.082 253.855 226.266C253.734 226.445 253.57 226.588 253.363 226.693C253.156 226.799 252.92 226.852 252.654 226.852C252.357 226.852 252.115 226.781 251.928 226.641C251.74 226.5 251.646 226.307 251.646 226.061V226.049C251.646 225.814 251.736 225.629 251.916 225.492C252.096 225.355 252.369 225.277 252.736 225.258L254.881 225.117V224.074L252.478 224.221C251.943 224.252 251.488 224.348 251.113 224.508C250.742 224.664 250.459 224.881 250.264 225.158C250.072 225.436 249.976 225.768 249.976 226.154V226.166C249.976 226.557 250.066 226.898 250.246 227.191C250.426 227.48 250.674 227.705 250.99 227.865C251.31 228.021 251.674 228.1 252.08 228.1ZM256.98 228H258.691V224.391C258.691 224.086 258.756 223.824 258.885 223.605C259.014 223.387 259.197 223.219 259.435 223.102C259.674 222.98 259.955 222.92 260.279 222.92C260.412 222.92 260.543 222.93 260.672 222.949C260.805 222.965 260.935 222.988 261.064 223.02V221.525C260.978 221.502 260.879 221.482 260.765 221.467C260.656 221.451 260.543 221.443 260.426 221.443C260.008 221.443 259.658 221.541 259.377 221.736C259.096 221.928 258.902 222.199 258.797 222.551H258.691V221.549H256.98V228ZM261.845 228H263.556V219.082H261.845V228ZM265.906 228H267.927L265.203 224.174L263.926 225.199L265.906 228ZM263.439 225.961L264.189 225.164L265.103 224.479L267.758 221.549H265.818L263.662 224.098H263.381L263.439 225.961ZM271.035 228.135C271.507 228.135 271.916 228.076 272.259 227.959C272.607 227.838 272.896 227.682 273.127 227.49C273.361 227.299 273.545 227.094 273.677 226.875C273.81 226.652 273.902 226.439 273.953 226.236L273.965 226.178H272.371L272.353 226.213C272.314 226.295 272.24 226.387 272.131 226.488C272.025 226.586 271.884 226.672 271.709 226.746C271.533 226.82 271.32 226.857 271.07 226.857C270.761 226.857 270.496 226.789 270.273 226.652C270.05 226.516 269.879 226.318 269.757 226.061C269.636 225.803 269.576 225.492 269.576 225.129V224.438C269.576 224.062 269.636 223.746 269.757 223.488C269.882 223.227 270.05 223.029 270.261 222.896C270.476 222.76 270.72 222.691 270.994 222.691C271.271 222.691 271.513 222.758 271.72 222.891C271.931 223.02 272.095 223.213 272.213 223.471C272.334 223.729 272.394 224.051 272.394 224.438V225.123L273.197 224.109H268.738V225.182H274.017V224.648C274.017 223.996 273.894 223.428 273.648 222.943C273.402 222.459 273.05 222.082 272.593 221.812C272.136 221.543 271.593 221.408 270.965 221.408C270.34 221.408 269.795 221.547 269.33 221.824C268.869 222.102 268.511 222.492 268.257 222.996C268.007 223.5 267.882 224.094 267.882 224.777V224.783C267.882 225.475 268.009 226.07 268.263 226.57C268.517 227.07 268.879 227.457 269.347 227.73C269.82 228 270.382 228.135 271.035 228.135ZM277.675 228.023C277.843 228.023 278.002 228.016 278.15 228C278.298 227.984 278.425 227.967 278.531 227.947V226.676C278.449 226.684 278.371 226.691 278.296 226.699C278.226 226.703 278.136 226.705 278.027 226.705C277.738 226.705 277.527 226.639 277.394 226.506C277.265 226.369 277.201 226.156 277.201 225.867V222.838H278.531V221.549H277.201V220.008H275.472V221.549H274.476V222.838H275.472V226.26C275.472 226.885 275.644 227.336 275.988 227.613C276.332 227.887 276.894 228.023 277.675 228.023ZM282.324 228.135C282.796 228.135 283.205 228.076 283.548 227.959C283.896 227.838 284.185 227.682 284.416 227.49C284.65 227.299 284.834 227.094 284.966 226.875C285.099 226.652 285.191 226.439 285.242 226.236L285.253 226.178H283.66L283.642 226.213C283.603 226.295 283.529 226.387 283.419 226.488C283.314 226.586 283.173 226.672 282.998 226.746C282.822 226.82 282.609 226.857 282.359 226.857C282.05 226.857 281.785 226.789 281.562 226.652C281.339 226.516 281.167 226.318 281.046 226.061C280.925 225.803 280.865 225.492 280.865 225.129V224.438C280.865 224.062 280.925 223.746 281.046 223.488C281.171 223.227 281.339 223.029 281.55 222.896C281.765 222.76 282.009 222.691 282.283 222.691C282.56 222.691 282.802 222.758 283.009 222.891C283.22 223.02 283.384 223.213 283.501 223.471C283.623 223.729 283.683 224.051 283.683 224.438V225.123L284.486 224.109H280.027V225.182H285.306V224.648C285.306 223.996 285.183 223.428 284.937 222.943C284.691 222.459 284.339 222.082 283.882 221.812C283.425 221.543 282.882 221.408 282.253 221.408C281.628 221.408 281.084 221.547 280.619 221.824C280.158 222.102 279.8 222.492 279.546 222.996C279.296 223.5 279.171 224.094 279.171 224.777V224.783C279.171 225.475 279.298 226.07 279.552 226.57C279.806 227.07 280.167 227.457 280.636 227.73C281.109 228 281.671 228.135 282.324 228.135ZM286.287 228H287.998V224.391C287.998 224.086 288.062 223.824 288.191 223.605C288.32 223.387 288.503 223.219 288.742 223.102C288.98 222.98 289.261 222.92 289.585 222.92C289.718 222.92 289.849 222.93 289.978 222.949C290.111 222.965 290.242 222.988 290.371 223.02V221.525C290.285 221.502 290.185 221.482 290.072 221.467C289.962 221.451 289.849 221.443 289.732 221.443C289.314 221.443 288.964 221.541 288.683 221.736C288.402 221.928 288.208 222.199 288.103 222.551H287.998V221.549H286.287V228ZM293.507 228.135C294.058 228.135 294.546 228.049 294.972 227.877C295.398 227.701 295.732 227.455 295.974 227.139C296.216 226.822 296.337 226.451 296.337 226.025V226.02C296.337 225.543 296.183 225.164 295.874 224.883C295.566 224.602 295.089 224.391 294.445 224.25L293.372 224.021C293.15 223.971 292.972 223.914 292.839 223.852C292.706 223.789 292.611 223.715 292.552 223.629C292.494 223.543 292.464 223.443 292.464 223.33V223.324C292.464 223.18 292.507 223.055 292.593 222.949C292.683 222.844 292.804 222.762 292.956 222.703C293.109 222.645 293.283 222.615 293.478 222.615C293.798 222.615 294.052 222.684 294.24 222.82C294.427 222.953 294.544 223.107 294.591 223.283L294.597 223.312H296.185V223.289C296.161 222.941 296.042 222.627 295.827 222.346C295.617 222.061 295.314 221.834 294.919 221.666C294.525 221.494 294.046 221.408 293.484 221.408C292.949 221.408 292.478 221.492 292.072 221.66C291.669 221.828 291.355 222.064 291.128 222.369C290.906 222.67 290.794 223.023 290.794 223.43V223.436C290.794 223.756 290.861 224.037 290.994 224.279C291.13 224.521 291.335 224.727 291.609 224.895C291.882 225.059 292.224 225.184 292.634 225.27L293.712 225.498C294.04 225.572 294.275 225.666 294.415 225.779C294.556 225.893 294.626 226.035 294.626 226.207V226.219C294.626 226.359 294.579 226.482 294.486 226.588C294.392 226.693 294.263 226.777 294.099 226.84C293.935 226.898 293.744 226.928 293.525 226.928C293.189 226.928 292.921 226.863 292.722 226.734C292.527 226.605 292.394 226.441 292.324 226.242L292.312 226.219H290.63L290.636 226.242C290.675 226.609 290.81 226.936 291.04 227.221C291.275 227.506 291.597 227.73 292.007 227.895C292.421 228.055 292.921 228.135 293.507 228.135ZM303.7 228.217C304.427 228.217 305.054 228.086 305.581 227.824C306.112 227.562 306.521 227.197 306.806 226.729C307.095 226.256 307.239 225.707 307.239 225.082V219.545H305.47V224.924C305.47 225.287 305.402 225.604 305.265 225.873C305.128 226.139 304.927 226.346 304.661 226.494C304.4 226.643 304.079 226.717 303.7 226.717C303.321 226.717 302.999 226.643 302.734 226.494C302.472 226.346 302.271 226.139 302.13 225.873C301.993 225.604 301.925 225.287 301.925 224.924V219.545H300.155V225.082C300.155 225.711 300.3 226.26 300.589 226.729C300.882 227.197 301.292 227.562 301.82 227.824C302.351 228.086 302.978 228.217 303.7 228.217ZM311.267 228.135C311.817 228.135 312.306 228.049 312.732 227.877C313.157 227.701 313.491 227.455 313.734 227.139C313.976 226.822 314.097 226.451 314.097 226.025V226.02C314.097 225.543 313.942 225.164 313.634 224.883C313.325 224.602 312.849 224.391 312.204 224.25L311.132 224.021C310.909 223.971 310.732 223.914 310.599 223.852C310.466 223.789 310.37 223.715 310.312 223.629C310.253 223.543 310.224 223.443 310.224 223.33V223.324C310.224 223.18 310.267 223.055 310.353 222.949C310.442 222.844 310.564 222.762 310.716 222.703C310.868 222.645 311.042 222.615 311.237 222.615C311.558 222.615 311.812 222.684 311.999 222.82C312.187 222.953 312.304 223.107 312.351 223.283L312.357 223.312H313.944V223.289C313.921 222.941 313.802 222.627 313.587 222.346C313.376 222.061 313.073 221.834 312.679 221.666C312.284 221.494 311.806 221.408 311.243 221.408C310.708 221.408 310.237 221.492 309.831 221.66C309.429 221.828 309.114 222.064 308.888 222.369C308.665 222.67 308.554 223.023 308.554 223.43V223.436C308.554 223.756 308.62 224.037 308.753 224.279C308.89 224.521 309.095 224.727 309.368 224.895C309.642 225.059 309.984 225.184 310.394 225.27L311.472 225.498C311.8 225.572 312.034 225.666 312.175 225.779C312.316 225.893 312.386 226.035 312.386 226.207V226.219C312.386 226.359 312.339 226.482 312.245 226.588C312.151 226.693 312.023 226.777 311.859 226.84C311.694 226.898 311.503 226.928 311.284 226.928C310.948 226.928 310.681 226.863 310.482 226.734C310.286 226.605 310.153 226.441 310.083 226.242L310.071 226.219H308.39L308.396 226.242C308.435 226.609 308.569 226.936 308.8 227.221C309.034 227.506 309.357 227.73 309.767 227.895C310.181 228.055 310.681 228.135 311.267 228.135ZM315.089 228H316.8V221.549H315.089V228ZM315.95 220.559C316.216 220.559 316.442 220.467 316.63 220.283C316.817 220.096 316.911 219.871 316.911 219.609C316.911 219.344 316.817 219.119 316.63 218.936C316.442 218.748 316.216 218.654 315.95 218.654C315.689 218.654 315.462 218.748 315.271 218.936C315.079 219.119 314.983 219.344 314.983 219.609C314.983 219.871 315.079 220.096 315.271 220.283C315.462 220.467 315.689 220.559 315.95 220.559ZM318.103 228H319.813V224.268C319.813 223.975 319.864 223.721 319.966 223.506C320.071 223.291 320.218 223.125 320.405 223.008C320.597 222.887 320.823 222.826 321.085 222.826C321.491 222.826 321.79 222.943 321.981 223.178C322.173 223.412 322.269 223.758 322.269 224.215V228H323.979V223.828C323.979 223.055 323.79 222.459 323.411 222.041C323.036 221.619 322.489 221.408 321.77 221.408C321.31 221.408 320.923 221.51 320.61 221.713C320.298 221.916 320.067 222.193 319.919 222.545H319.813V221.549H318.103V228ZM328.065 230.268C328.718 230.268 329.282 230.166 329.759 229.963C330.235 229.764 330.602 229.479 330.86 229.107C331.122 228.74 331.253 228.305 331.253 227.801V221.549H329.542V222.604H329.46C329.347 222.361 329.196 222.154 329.009 221.982C328.821 221.811 328.602 221.678 328.352 221.584C328.106 221.49 327.835 221.443 327.538 221.443C326.987 221.443 326.513 221.576 326.114 221.842C325.72 222.107 325.415 222.479 325.2 222.955C324.989 223.432 324.884 223.986 324.884 224.619V224.631C324.884 225.24 324.989 225.777 325.2 226.242C325.415 226.707 325.718 227.07 326.108 227.332C326.503 227.59 326.97 227.719 327.509 227.719C327.806 227.719 328.077 227.68 328.323 227.602C328.573 227.52 328.792 227.4 328.979 227.244C329.171 227.088 329.325 226.896 329.442 226.67H329.548V227.871C329.548 228.246 329.421 228.535 329.167 228.738C328.913 228.945 328.558 229.049 328.1 229.049C327.722 229.049 327.421 228.99 327.198 228.873C326.979 228.756 326.847 228.604 326.8 228.416L326.794 228.393H325.1V228.422C325.147 228.785 325.292 229.105 325.534 229.383C325.776 229.664 326.108 229.881 326.53 230.033C326.956 230.189 327.468 230.268 328.065 230.268ZM328.089 226.406C327.78 226.406 327.518 226.332 327.304 226.184C327.089 226.031 326.923 225.822 326.806 225.557C326.692 225.287 326.636 224.977 326.636 224.625V224.613C326.636 224.258 326.692 223.947 326.806 223.682C326.923 223.412 327.089 223.203 327.304 223.055C327.518 222.906 327.78 222.832 328.089 222.832C328.397 222.832 328.661 222.906 328.88 223.055C329.099 223.203 329.266 223.412 329.384 223.682C329.505 223.951 329.565 224.262 329.565 224.613V224.625C329.565 224.98 329.505 225.291 329.384 225.557C329.266 225.822 329.099 226.031 328.88 226.184C328.661 226.332 328.397 226.406 328.089 226.406ZM334.784 228H336.641L338.71 221.232H339.225V219.545H337.719L334.784 228ZM336.354 225.949H341.13L340.696 224.625H336.788L336.354 225.949ZM340.878 228H342.741L339.8 219.545H338.815V221.232L340.878 228ZM343.756 228H345.526V219.545H343.756V228Z" fill="white"/>
<path d="M293.908 242.034C293.55 242.809 292.45 242.809 292.092 242.034L288.459 234.169C288.153 233.507 288.637 232.75 289.367 232.75L296.633 232.75C297.363 232.75 297.847 233.507 297.541 234.169L293.908 242.034Z" fill="#17AE78"/>
<rect x="345" y="406" width="162" height="24" rx="12" fill="#292D30"/>
<path d="M364.078 422H365.062V415.543H365.578L364.4 413.779L367.799 422H368.689L372.094 413.779L370.91 415.543H371.426V422H372.41V413.545H371.186L368.291 420.6H368.197L365.303 413.545H364.078V422ZM375.872 422.111C376.157 422.111 376.419 422.072 376.657 421.994C376.895 421.912 377.108 421.793 377.296 421.637C377.487 421.48 377.649 421.291 377.782 421.068H377.876V422H378.895V417.676C378.895 417.238 378.802 416.863 378.614 416.551C378.43 416.234 378.159 415.992 377.8 415.824C377.444 415.656 377.009 415.572 376.493 415.572C376.044 415.572 375.643 415.643 375.292 415.783C374.94 415.92 374.653 416.113 374.43 416.363C374.212 416.609 374.075 416.898 374.02 417.23L374.014 417.266H375.034L375.04 417.248C375.122 417.002 375.284 416.812 375.526 416.68C375.768 416.543 376.079 416.475 376.458 416.475C376.93 416.475 377.284 416.578 377.518 416.785C377.757 416.988 377.876 417.285 377.876 417.676V419.645C377.876 419.945 377.798 420.215 377.641 420.453C377.489 420.691 377.278 420.881 377.009 421.021C376.739 421.158 376.43 421.227 376.083 421.227C375.716 421.227 375.411 421.139 375.169 420.963C374.927 420.783 374.805 420.533 374.805 420.213V420.201C374.805 419.889 374.915 419.646 375.134 419.475C375.356 419.303 375.708 419.203 376.188 419.176L378.386 419.035V418.221L376.065 418.361C375.577 418.389 375.161 418.479 374.817 418.631C374.473 418.783 374.212 418.994 374.032 419.264C373.852 419.529 373.762 419.85 373.762 420.225V420.236C373.762 420.619 373.854 420.951 374.038 421.232C374.225 421.514 374.477 421.73 374.794 421.883C375.114 422.035 375.473 422.111 375.872 422.111ZM380.459 422H381.478V418.086C381.478 417.777 381.548 417.508 381.689 417.277C381.834 417.047 382.031 416.867 382.281 416.738C382.531 416.609 382.818 416.545 383.142 416.545C383.255 416.545 383.361 416.551 383.459 416.562C383.56 416.57 383.664 416.584 383.769 416.604V415.613C383.718 415.605 383.644 415.598 383.546 415.59C383.453 415.578 383.357 415.572 383.259 415.572C382.834 415.572 382.476 415.664 382.187 415.848C381.898 416.031 381.693 416.289 381.572 416.621H381.478V415.684H380.459V422ZM384.788 422H385.807V413.176H384.788V422ZM388.766 422H390.049L387.049 418.256L386.299 418.906L388.766 422ZM385.678 419.727L386.621 418.818L386.868 418.578L389.868 415.684H388.631L385.901 418.443H385.631L385.678 419.727ZM393.23 422.111C393.601 422.111 393.935 422.064 394.232 421.971C394.532 421.873 394.792 421.744 395.011 421.584C395.23 421.42 395.407 421.238 395.544 421.039C395.685 420.836 395.782 420.627 395.837 420.412L395.849 420.365H394.829L394.806 420.418C394.751 420.543 394.655 420.666 394.519 420.787C394.382 420.908 394.208 421.008 393.997 421.086C393.786 421.164 393.538 421.203 393.253 421.203C392.87 421.203 392.538 421.119 392.257 420.951C391.976 420.779 391.759 420.535 391.607 420.219C391.454 419.898 391.378 419.514 391.378 419.064V418.66C391.378 418.188 391.456 417.789 391.612 417.465C391.769 417.141 391.98 416.896 392.245 416.732C392.515 416.564 392.82 416.48 393.159 416.48C393.499 416.48 393.8 416.561 394.062 416.721C394.323 416.877 394.529 417.115 394.677 417.436C394.825 417.756 394.9 418.164 394.9 418.66V419.064L395.404 418.32H390.862V419.135H395.925V418.736C395.925 418.107 395.814 417.557 395.591 417.084C395.372 416.607 395.056 416.236 394.642 415.971C394.232 415.705 393.739 415.572 393.165 415.572C392.595 415.572 392.097 415.711 391.671 415.988C391.245 416.266 390.915 416.65 390.681 417.143C390.45 417.635 390.335 418.207 390.335 418.859V418.865C390.335 419.525 390.45 420.1 390.681 420.588C390.915 421.072 391.247 421.447 391.677 421.713C392.111 421.979 392.628 422.111 393.23 422.111ZM399.451 422.047C399.553 422.047 399.652 422.041 399.75 422.029C399.848 422.018 399.945 422.004 400.043 421.988V421.121C399.949 421.129 399.869 421.135 399.803 421.139C399.74 421.143 399.664 421.145 399.574 421.145C399.246 421.145 399.012 421.064 398.871 420.904C398.73 420.74 398.66 420.473 398.66 420.102V416.527H400.043V415.684H398.66V414.049H397.605V415.684H396.609V416.527H397.605V420.359C397.605 420.961 397.75 421.393 398.039 421.654C398.332 421.916 398.803 422.047 399.451 422.047ZM403.763 422.111C404.134 422.111 404.468 422.064 404.764 421.971C405.065 421.873 405.325 421.744 405.544 421.584C405.763 421.42 405.94 421.238 406.077 421.039C406.218 420.836 406.315 420.627 406.37 420.412L406.382 420.365H405.362L405.339 420.418C405.284 420.543 405.188 420.666 405.052 420.787C404.915 420.908 404.741 421.008 404.53 421.086C404.319 421.164 404.071 421.203 403.786 421.203C403.403 421.203 403.071 421.119 402.79 420.951C402.509 420.779 402.292 420.535 402.139 420.219C401.987 419.898 401.911 419.514 401.911 419.064V418.66C401.911 418.188 401.989 417.789 402.145 417.465C402.302 417.141 402.513 416.896 402.778 416.732C403.048 416.564 403.352 416.48 403.692 416.48C404.032 416.48 404.333 416.561 404.595 416.721C404.856 416.877 405.061 417.115 405.21 417.436C405.358 417.756 405.432 418.164 405.432 418.66V419.064L405.936 418.32H401.395V419.135H406.458V418.736C406.458 418.107 406.346 417.557 406.124 417.084C405.905 416.607 405.589 416.236 405.175 415.971C404.764 415.705 404.272 415.572 403.698 415.572C403.128 415.572 402.63 415.711 402.204 415.988C401.778 416.266 401.448 416.65 401.214 417.143C400.983 417.635 400.868 418.207 400.868 418.859V418.865C400.868 419.525 400.983 420.1 401.214 420.588C401.448 421.072 401.78 421.447 402.21 421.713C402.643 421.979 403.161 422.111 403.763 422.111ZM407.74 422H408.759V418.086C408.759 417.777 408.83 417.508 408.97 417.277C409.115 417.047 409.312 416.867 409.562 416.738C409.812 416.609 410.099 416.545 410.423 416.545C410.537 416.545 410.642 416.551 410.74 416.562C410.841 416.57 410.945 416.584 411.05 416.604V415.613C411 415.605 410.925 415.598 410.828 415.59C410.734 415.578 410.638 415.572 410.541 415.572C410.115 415.572 409.757 415.664 409.468 415.848C409.179 416.031 408.974 416.289 408.853 416.621H408.759V415.684H407.74V422ZM414.061 422.111C414.541 422.111 414.971 422.031 415.35 421.871C415.733 421.711 416.036 421.488 416.258 421.203C416.481 420.914 416.592 420.582 416.592 420.207V420.195C416.592 419.742 416.446 419.381 416.153 419.111C415.864 418.842 415.422 418.635 414.829 418.49L413.856 418.256C413.61 418.193 413.409 418.121 413.252 418.039C413.096 417.957 412.981 417.861 412.907 417.752C412.832 417.643 412.795 417.518 412.795 417.377V417.365C412.795 417.178 412.852 417.014 412.965 416.873C413.079 416.732 413.233 416.623 413.428 416.545C413.623 416.463 413.846 416.422 414.096 416.422C414.479 416.422 414.789 416.5 415.028 416.656C415.266 416.812 415.418 417.016 415.485 417.266H416.487C416.44 416.922 416.311 416.623 416.1 416.369C415.893 416.115 415.618 415.92 415.274 415.783C414.934 415.643 414.543 415.572 414.102 415.572C413.657 415.572 413.256 415.652 412.901 415.812C412.545 415.973 412.264 416.191 412.057 416.469C411.854 416.746 411.752 417.061 411.752 417.412V417.418C411.752 417.719 411.813 417.98 411.934 418.203C412.055 418.422 412.243 418.607 412.496 418.76C412.75 418.908 413.075 419.029 413.469 419.123L414.448 419.357C414.838 419.451 415.12 419.574 415.291 419.727C415.463 419.875 415.549 420.057 415.549 420.271V420.283C415.549 420.475 415.487 420.645 415.362 420.793C415.237 420.938 415.065 421.053 414.846 421.139C414.631 421.221 414.381 421.262 414.096 421.262C413.694 421.262 413.368 421.182 413.118 421.021C412.868 420.861 412.7 420.65 412.614 420.389H411.571C411.61 420.736 411.737 421.039 411.952 421.297C412.17 421.555 412.459 421.756 412.819 421.9C413.178 422.041 413.592 422.111 414.061 422.111ZM421.025 422H422.719V416.592H423.604L422.361 415.965L426.727 422H428.191V413.545H426.498V418.93H425.619L426.855 419.557L422.502 413.545H421.025V422ZM432.643 422.135C433.307 422.135 433.876 422.002 434.348 421.736C434.825 421.467 435.19 421.082 435.444 420.582C435.698 420.078 435.825 419.477 435.825 418.777V418.766C435.825 418.07 435.696 417.473 435.438 416.973C435.18 416.469 434.813 416.082 434.337 415.812C433.864 415.543 433.3 415.408 432.643 415.408C431.987 415.408 431.421 415.545 430.944 415.818C430.471 416.088 430.106 416.473 429.848 416.973C429.591 417.473 429.462 418.07 429.462 418.766V418.777C429.462 419.477 429.589 420.078 429.843 420.582C430.096 421.082 430.462 421.467 430.938 421.736C431.415 422.002 431.983 422.135 432.643 422.135ZM432.643 420.793C432.339 420.793 432.079 420.715 431.864 420.559C431.653 420.398 431.491 420.168 431.378 419.867C431.268 419.566 431.214 419.203 431.214 418.777V418.766C431.214 418.344 431.27 417.984 431.384 417.688C431.497 417.387 431.659 417.156 431.87 416.996C432.085 416.832 432.343 416.75 432.643 416.75C432.944 416.75 433.2 416.832 433.411 416.996C433.626 417.156 433.79 417.387 433.903 417.688C434.016 417.984 434.073 418.344 434.073 418.766V418.777C434.073 419.199 434.016 419.561 433.903 419.861C433.79 420.162 433.628 420.393 433.417 420.553C433.206 420.713 432.948 420.793 432.643 420.793ZM439.597 422.023C439.765 422.023 439.923 422.016 440.072 422C440.22 421.984 440.347 421.967 440.453 421.947V420.676C440.371 420.684 440.293 420.691 440.218 420.699C440.148 420.703 440.058 420.705 439.949 420.705C439.66 420.705 439.449 420.639 439.316 420.506C439.187 420.369 439.123 420.156 439.123 419.867V416.838H440.453V415.549H439.123V414.008H437.394V415.549H436.398V416.838H437.394V420.26C437.394 420.885 437.566 421.336 437.91 421.613C438.254 421.887 438.816 422.023 439.597 422.023ZM448.226 422.199C448.925 422.199 449.525 422.068 450.025 421.807C450.525 421.545 450.907 421.182 451.173 420.717C451.443 420.248 451.577 419.707 451.577 419.094V413.545H450.523V419.023C450.523 419.457 450.433 419.84 450.253 420.172C450.073 420.5 449.812 420.758 449.468 420.945C449.128 421.133 448.714 421.227 448.226 421.227C447.738 421.227 447.321 421.133 446.978 420.945C446.634 420.758 446.37 420.5 446.187 420.172C446.007 419.84 445.917 419.457 445.917 419.023V413.545H444.863V419.094C444.863 419.707 444.997 420.248 445.267 420.717C445.536 421.182 445.921 421.545 446.421 421.807C446.925 422.068 447.527 422.199 448.226 422.199ZM455.461 422.111C455.941 422.111 456.371 422.031 456.75 421.871C457.133 421.711 457.436 421.488 457.658 421.203C457.881 420.914 457.992 420.582 457.992 420.207V420.195C457.992 419.742 457.846 419.381 457.553 419.111C457.264 418.842 456.822 418.635 456.229 418.49L455.256 418.256C455.01 418.193 454.809 418.121 454.652 418.039C454.496 417.957 454.381 417.861 454.307 417.752C454.232 417.643 454.195 417.518 454.195 417.377V417.365C454.195 417.178 454.252 417.014 454.365 416.873C454.479 416.732 454.633 416.623 454.828 416.545C455.023 416.463 455.246 416.422 455.496 416.422C455.879 416.422 456.189 416.5 456.428 416.656C456.666 416.812 456.818 417.016 456.885 417.266H457.887C457.84 416.922 457.711 416.623 457.5 416.369C457.293 416.115 457.018 415.92 456.674 415.783C456.334 415.643 455.943 415.572 455.502 415.572C455.057 415.572 454.656 415.652 454.301 415.812C453.945 415.973 453.664 416.191 453.457 416.469C453.254 416.746 453.152 417.061 453.152 417.412V417.418C453.152 417.719 453.213 417.98 453.334 418.203C453.455 418.422 453.643 418.607 453.896 418.76C454.15 418.908 454.475 419.029 454.869 419.123L455.848 419.357C456.238 419.451 456.52 419.574 456.691 419.727C456.863 419.875 456.949 420.057 456.949 420.271V420.283C456.949 420.475 456.887 420.645 456.762 420.793C456.637 420.938 456.465 421.053 456.246 421.139C456.031 421.221 455.781 421.262 455.496 421.262C455.094 421.262 454.768 421.182 454.518 421.021C454.268 420.861 454.1 420.65 454.014 420.389H452.971C453.01 420.736 453.137 421.039 453.352 421.297C453.57 421.555 453.859 421.756 454.219 421.9C454.578 422.041 454.992 422.111 455.461 422.111ZM459.298 422H460.317V415.684H459.298V422ZM459.813 414.465C460.009 414.465 460.175 414.396 460.311 414.26C460.448 414.119 460.516 413.953 460.516 413.762C460.516 413.566 460.448 413.4 460.311 413.264C460.175 413.127 460.009 413.059 459.813 413.059C459.622 413.059 459.456 413.127 459.315 413.264C459.179 413.4 459.11 413.566 459.11 413.762C459.11 413.953 459.179 414.119 459.315 414.26C459.456 414.396 459.622 414.465 459.813 414.465ZM461.939 422H462.959V418.262C462.959 417.891 463.025 417.572 463.158 417.307C463.295 417.041 463.486 416.836 463.732 416.691C463.978 416.547 464.269 416.475 464.605 416.475C465.109 416.475 465.48 416.613 465.718 416.891C465.961 417.164 466.082 417.586 466.082 418.156V422H467.101V417.91C467.101 417.16 466.91 416.584 466.527 416.182C466.148 415.775 465.603 415.572 464.892 415.572C464.427 415.572 464.045 415.666 463.744 415.854C463.443 416.037 463.213 416.297 463.052 416.633H462.959V415.684H461.939V422ZM471.248 424.227C471.823 424.227 472.321 424.131 472.743 423.939C473.164 423.752 473.489 423.484 473.715 423.137C473.946 422.789 474.061 422.381 474.061 421.912V415.684H473.041V416.727H472.971C472.842 416.488 472.68 416.283 472.485 416.111C472.293 415.939 472.073 415.807 471.823 415.713C471.573 415.619 471.299 415.572 471.002 415.572C470.452 415.572 469.977 415.705 469.579 415.971C469.18 416.232 468.871 416.594 468.653 417.055C468.438 417.512 468.33 418.035 468.33 418.625V418.637C468.33 419.227 468.438 419.75 468.653 420.207C468.868 420.664 469.172 421.023 469.567 421.285C469.965 421.543 470.436 421.672 470.979 421.672C471.268 421.672 471.537 421.631 471.787 421.549C472.037 421.463 472.262 421.338 472.461 421.174C472.661 421.01 472.827 420.812 472.959 420.582H473.053V421.859C473.053 422.324 472.893 422.684 472.573 422.938C472.256 423.195 471.815 423.324 471.248 423.324C470.795 423.324 470.432 423.246 470.159 423.09C469.885 422.938 469.721 422.742 469.666 422.504L469.661 422.498H468.606L468.594 422.504C468.649 422.848 468.787 423.148 469.01 423.406C469.237 423.668 469.539 423.869 469.918 424.01C470.297 424.154 470.741 424.227 471.248 424.227ZM471.202 420.77C470.811 420.77 470.479 420.68 470.205 420.5C469.936 420.316 469.729 420.064 469.584 419.744C469.444 419.424 469.373 419.055 469.373 418.637V418.625C469.373 418.207 469.444 417.836 469.584 417.512C469.729 417.188 469.936 416.934 470.205 416.75C470.479 416.566 470.811 416.475 471.202 416.475C471.592 416.475 471.926 416.566 472.204 416.75C472.485 416.934 472.7 417.188 472.848 417.512C473 417.836 473.077 418.207 473.077 418.625V418.637C473.077 419.055 473 419.424 472.848 419.744C472.7 420.064 472.485 420.316 472.204 420.5C471.926 420.68 471.592 420.77 471.202 420.77ZM478.189 422H479.297L481.781 414.91H482.115V413.545H481.307L478.189 422ZM479.602 419.58H484.078L483.75 418.684H479.93L479.602 419.58ZM484.359 422H485.467L482.35 413.545H481.875V414.91L484.359 422ZM486.649 422H487.704V413.545H486.649V422Z" fill="white"/>
<path d="M342.505 406.801C342.092 406.055 342.742 405.167 343.578 405.336L352.07 407.054C352.785 407.199 353.11 408.036 352.678 408.625L348.384 414.486C347.953 415.075 347.057 415.018 346.703 414.379L342.505 406.801Z" fill="#292D30"/>
<defs>
<filter id="filter0_d_32_45" x="62" y="199" width="496.5" height="287" filterUnits="userSpaceOnUse" color-interpolation-filters="sRGB">
<feFlood flood-opacity="0" result="BackgroundImageFix"/>
<feColorMatrix in="SourceAlpha" type="matrix" values="0 0 0 0 0 0 0 0 0 0 0 0 0 0 0 0 0 0 127 0" result="hardAlpha"/>
<feOffset dy="4"/>
<feGaussianBlur stdDeviation="2"/>
<feComposite in2="hardAlpha" operator="out"/>
<feColorMatrix type="matrix" values="0 0 0 0 0 0 0 0 0 0 0 0 0 0 0 0 0 0 0.25 0"/>
<feBlend mode="normal" in2="BackgroundImageFix" result="effect1_dropShadow_32_45"/>
<feBlend mode="normal" in="SourceGraphic" in2="effect1_dropShadow_32_45" result="shape"/>
</filter>
<linearGradient id="paint0_linear_32_45" x1="214.5" y1="253.344" x2="311.765" y2="509.71" gradientUnits="userSpaceOnUse">
<stop stop-color="#E81D1D"/>
<stop offset="1" stop-color="white" stop-opacity="0"/>
</linearGradient>
<linearGradient id="paint1_linear_32_45" x1="304" y1="271.5" x2="310" y2="546.5" gradientUnits="userSpaceOnUse">
<stop stop-color="#E7E7E7" stop-opacity="0.29"/>
<stop offset="0.867743" stop-color="#383B3D" stop-opacity="0"/>
</linearGradient>
</defs>
</svg>
