<svg width="24" height="24" viewBox="0 0 24 24" fill="none" xmlns="http://www.w3.org/2000/svg">
<path d="M5 7.08712C4.20435 7.08712 3.44129 7.40319 2.87868 7.9658C2.31607 8.52841 2 9.29147 2 10.0871V13.9131C2.00256 14.5314 2.19608 15.1338 2.55409 15.6378C2.91209 16.1419 3.41709 16.523 4 16.7291V21.0001C4 21.2653 4.10536 21.5197 4.29289 21.7072C4.48043 21.8948 4.73478 22.0001 5 22.0001H9C9.26522 22.0001 9.51957 21.8948 9.70711 21.7072C9.89464 21.5197 10 21.2653 10 21.0001V17.4231L20.609 21.9231C20.7613 21.9878 20.9272 22.0137 21.0919 21.9985C21.2567 21.9833 21.4151 21.9274 21.5529 21.836C21.6908 21.7445 21.8038 21.6203 21.8818 21.4744C21.9598 21.3285 22.0004 21.1656 22 21.0001V3.00012C22.0001 2.83486 21.9592 2.67214 21.8811 2.52653C21.8029 2.38092 21.6899 2.25695 21.5521 2.16571C21.4143 2.07448 21.256 2.01881 21.0914 2.0037C20.9269 1.98859 20.7611 2.0145 20.609 2.07912L8.8 7.08712H5ZM8 20.0001H6V16.9131H8V20.0001ZM8 14.9131H5C4.73478 14.9131 4.48043 14.8078 4.29289 14.6202C4.10536 14.4327 4 14.1783 4 13.9131V10.0871C4 9.8219 4.10536 9.56755 4.29289 9.38001C4.48043 9.19248 4.73478 9.08712 5 9.08712H8V14.9131ZM10 8.74912L20 4.51012V19.4901L10 15.2511V8.74912Z" fill="#5C99D9"/>
</svg>
