<svg width="24" height="24" viewBox="0 0 24 24" fill="none" xmlns="http://www.w3.org/2000/svg">
<path d="M6.01801 14.182V4.00002C6.01781 3.56554 6.11226 3.13624 6.2948 2.74198C6.47734 2.34771 6.74358 1.99795 7.07501 1.71702C7.40994 1.43373 7.80236 1.22649 8.22517 1.10961C8.64798 0.992725 9.09113 0.968982 9.52401 1.04002C10.2362 1.17591 10.8779 1.55807 11.3366 2.11955C11.7953 2.68103 12.0419 3.38602 12.033 4.11102V8.00002H14C14.2652 8.00002 14.5196 8.10537 14.7071 8.29291C14.8947 8.48045 15 8.7348 15 9.00002C15 9.26523 14.8947 9.51959 14.7071 9.70712C14.5196 9.89466 14.2652 10 14 10H11.033C10.7678 10 10.5134 9.89466 10.3259 9.70712C10.1384 9.51959 10.033 9.26523 10.033 9.00002V4.11102C10.0428 3.86021 9.96557 3.61374 9.81451 3.4133C9.66345 3.21286 9.44779 3.07075 9.20401 3.01102C9.05909 2.98466 8.91016 2.99045 8.76773 3.02797C8.6253 3.06549 8.49285 3.13383 8.37973 3.22816C8.26661 3.3225 8.17558 3.44051 8.11308 3.57389C8.05057 3.70726 8.01812 3.85273 8.01801 4.00002V16.575C8.01797 16.7726 7.95937 16.9658 7.84961 17.1302C7.73985 17.2945 7.58385 17.4227 7.40132 17.4984C7.21878 17.5742 7.01789 17.5941 6.82402 17.5558C6.63014 17.5175 6.45197 17.4225 6.31201 17.283L4.80001 15.774C4.62786 15.5904 4.39793 15.4713 4.14861 15.4368C3.89928 15.4022 3.64564 15.4542 3.43001 15.584C3.3104 15.6677 3.21058 15.7766 3.13755 15.9031C3.06453 16.0295 3.02006 16.1703 3.00729 16.3158C2.99452 16.4612 3.01375 16.6077 3.06363 16.7449C3.11351 16.8821 3.19282 17.0067 3.29601 17.11L6.32001 20.126C6.59808 20.404 6.92834 20.6243 7.29181 20.7743C7.65528 20.9243 8.04481 21.001 8.43801 21H14.506C14.8992 21.001 15.2887 20.9243 15.6522 20.7743C16.0157 20.6243 16.3459 20.404 16.624 20.126C17.6621 19.0869 18.3372 17.7405 18.549 16.287L18.971 13.345C18.986 13.2121 19.0276 13.0835 19.0932 12.9669C19.1589 12.8503 19.2472 12.748 19.3531 12.6662C19.4589 12.5844 19.5801 12.5246 19.7095 12.4905C19.8389 12.4563 19.9738 12.4485 20.1062 12.4674C20.2387 12.4864 20.366 12.5317 20.4806 12.6007C20.5952 12.6698 20.6948 12.7611 20.7735 12.8693C20.8522 12.9775 20.9084 13.1005 20.9387 13.2308C20.969 13.3611 20.9728 13.4962 20.95 13.628L20.528 16.57C20.2544 18.4524 19.3804 20.1962 18.036 21.542C17.5728 22.0057 17.0224 22.3733 16.4166 22.6235C15.8108 22.8737 15.1615 23.0017 14.506 23H8.43801C7.78267 23.0019 7.13346 22.874 6.52778 22.6237C5.9221 22.3735 5.37194 22.0059 4.90901 21.542L1.88201 18.526C1.57326 18.2177 1.33547 17.8458 1.18521 17.4362C1.03496 17.0266 0.975862 16.5891 1.01204 16.1543C1.04822 15.7195 1.1788 15.2978 1.39468 14.9187C1.61057 14.5395 1.90656 14.212 2.26201 13.959C2.82512 13.577 3.49866 13.3918 4.17791 13.4321C4.85716 13.4725 5.50405 13.7361 6.01801 14.182ZM22.706 5.29202L18.706 1.29202C18.5174 1.10986 18.2648 1.00906 18.0026 1.01134C17.7404 1.01362 17.4896 1.11879 17.3042 1.3042C17.1188 1.48961 17.0136 1.74042 17.0113 2.00261C17.0091 2.26481 17.1098 2.51741 17.292 2.70602L19.586 5.00002H15C14.7348 5.00002 14.4804 5.10537 14.2929 5.29291C14.1054 5.48045 14 5.7348 14 6.00002C14 6.26523 14.1054 6.51959 14.2929 6.70712C14.4804 6.89466 14.7348 7.00002 15 7.00002H19.586L17.293 9.29302C17.1975 9.38526 17.1213 9.49561 17.0689 9.61761C17.0165 9.73962 16.9889 9.87084 16.9878 10.0036C16.9866 10.1364 17.0119 10.2681 17.0622 10.391C17.1125 10.5139 17.1867 10.6255 17.2806 10.7194C17.3745 10.8133 17.4862 10.8876 17.6091 10.9378C17.732 10.9881 17.8636 11.0134 17.9964 11.0123C18.1292 11.0111 18.2604 10.9835 18.3824 10.9311C18.5044 10.8787 18.6148 10.8025 18.707 10.707L22.707 6.70702C22.7999 6.61408 22.8736 6.50374 22.9238 6.3823C22.9741 6.26087 22.9999 6.13072 22.9998 5.99931C22.9997 5.86789 22.9737 5.73778 22.9233 5.61642C22.8729 5.49506 22.799 5.38482 22.706 5.29202Z" fill="white"/>
</svg>
