<svg width="24" height="24" viewBox="0 0 24 24" fill="none" xmlns="http://www.w3.org/2000/svg">
<path d="M1.99997 11H7.99997C8.26519 11 8.51955 10.8946 8.70708 10.7071C8.89462 10.5196 8.99997 10.2652 8.99997 10V4C8.99997 3.73478 8.89462 3.48043 8.70708 3.29289C8.51955 3.10536 8.26519 3 7.99997 3H1.99997C1.73476 3 1.4804 3.10536 1.29287 3.29289C1.10533 3.48043 0.999975 3.73478 0.999975 4V10C0.999975 10.2652 1.10533 10.5196 1.29287 10.7071C1.4804 10.8946 1.73476 11 1.99997 11ZM2.99997 5H6.99997V9H2.99997V5ZM23 7C23 7.26522 22.8946 7.51957 22.7071 7.70711C22.5195 7.89464 22.2652 8 22 8H12C11.7348 8 11.4804 7.89464 11.2929 7.70711C11.1053 7.51957 11 7.26522 11 7C11 6.73478 11.1053 6.48043 11.2929 6.29289C11.4804 6.10536 11.7348 6 12 6H22C22.2652 6 22.5195 6.10536 22.7071 6.29289C22.8946 6.48043 23 6.73478 23 7ZM23 17C23 17.2652 22.8946 17.5196 22.7071 17.7071C22.5195 17.8946 22.2652 18 22 18H12C11.7348 18 11.4804 17.8946 11.2929 17.7071C11.1053 17.5196 11 17.2652 11 17C11 16.7348 11.1053 16.4804 11.2929 16.2929C11.4804 16.1054 11.7348 16 12 16H22C22.2652 16 22.5195 16.1054 22.7071 16.2929C22.8946 16.4804 23 16.7348 23 17ZM3.23497 19.7L1.28097 17.673C1.09652 17.4823 0.995365 17.2262 0.999772 16.9609C1.00418 16.6956 1.11378 16.443 1.30447 16.2585C1.49517 16.074 1.75132 15.9729 2.01659 15.9773C2.28186 15.9817 2.53452 16.0913 2.71897 16.282L3.97097 17.582L7.29997 14.289C7.39092 14.1866 7.50194 14.104 7.62613 14.0462C7.75033 13.9885 7.88506 13.9569 8.02198 13.9534C8.15889 13.9499 8.29507 13.9745 8.42207 14.0258C8.54907 14.0771 8.66418 14.1539 8.76026 14.2515C8.85635 14.3491 8.93137 14.4654 8.98066 14.5931C9.02995 14.7209 9.05247 14.8575 9.04681 14.9943C9.04116 15.1312 9.00746 15.2654 8.9478 15.3887C8.88813 15.5119 8.80378 15.6217 8.69997 15.711L4.65397 19.711C4.46755 19.8954 4.21617 19.9992 3.95397 20H3.94197C3.81017 19.9991 3.67986 19.9721 3.55853 19.9206C3.43719 19.8691 3.32723 19.7941 3.23497 19.7Z" fill="#4BD4FF"/>
</svg>
