<svg width="24" height="24" viewBox="0 0 24 24" fill="none" xmlns="http://www.w3.org/2000/svg">
<path d="M19 8H14.724L17.868 2.5C17.9559 2.34784 18.0021 2.17521 18.002 1.99951C18.0019 1.8238 17.9555 1.65122 17.8675 1.49915C17.7795 1.34707 17.653 1.22086 17.5007 1.13323C17.3484 1.04561 17.1757 0.999655 17 1H10C9.81418 0.999915 9.632 1.05161 9.47391 1.14929C9.31582 1.24697 9.18808 1.38677 9.10501 1.553L4.10501 11.553C4.02881 11.7055 3.99285 11.8749 4.00057 12.0452C4.00828 12.2155 4.0594 12.381 4.14908 12.526C4.23875 12.671 4.364 12.7907 4.51294 12.8736C4.66187 12.9566 4.82953 13.0001 5.00001 13H9.65601L7.04201 21.713C6.97568 21.9333 6.98732 22.1697 7.07496 22.3824C7.16261 22.595 7.3209 22.771 7.52315 22.8806C7.72541 22.9902 7.95926 23.0267 8.18529 22.9839C8.41133 22.9412 8.61572 22.8219 8.76401 22.646L19.764 9.646C19.8872 9.50038 19.9663 9.32255 19.9917 9.13349C20.0172 8.94443 19.988 8.75202 19.9077 8.57899C19.8274 8.40595 19.6993 8.2595 19.5384 8.15691C19.3776 8.05432 19.1908 7.99988 19 8ZM10.337 17.689L11.958 12.289C12.0031 12.1396 12.0126 11.9816 11.9858 11.8279C11.9589 11.6741 11.8964 11.5288 11.8033 11.4035C11.7102 11.2782 11.589 11.1765 11.4495 11.1064C11.3101 11.0363 11.1561 10.9999 11 11H6.61801L10.618 3H15.276L12.132 8.5C12.0442 8.65217 11.9979 8.82479 11.998 9.0005C11.9981 9.1762 12.0445 9.34878 12.1325 9.50086C12.2205 9.65294 12.347 9.77914 12.4993 9.86677C12.6516 9.9544 12.8243 10.0003 13 10H16.844L10.337 17.689Z" fill="white"/>
</svg>
