<svg width="600" height="600" viewBox="0 0 600 600" fill="none" xmlns="http://www.w3.org/2000/svg">
<rect width="600" height="600" rx="39" fill="white"/>
<line x1="71" y1="280.5" x2="556" y2="280.5" stroke="#D9D9D9"/>
<line x1="71" y1="201.5" x2="556" y2="201.5" stroke="#D9D9D9"/>
<line x1="71" y1="359.5" x2="556" y2="359.5" stroke="#D9D9D9"/>
<line x1="71" y1="438.5" x2="556" y2="438.5" stroke="#D9D9D9"/>
<path d="M97.704 537.452C97.704 538.264 97.298 538.964 96.29 538.964C95.282 538.964 94.862 538.25 94.848 537.354H93.574C93.574 539.062 94.666 540.098 96.29 540.098C97.9 540.098 98.992 539.076 98.992 537.452V530.242H97.704V537.452ZM108.054 540H109.398L105.884 530.298H104.414L100.886 540H102.23L103.014 537.83H107.27L108.054 540ZM106.906 536.794H103.378L105.142 531.866L106.906 536.794ZM117.333 530.228V537.984L112.209 530.228H110.935V540H112.209V532.23L117.333 540H118.607V530.228H117.333Z" fill="#666666"/>
<path d="M46.868 504.834C46.868 507.774 47.596 510 50.396 510C53.182 510 53.91 507.774 53.91 504.834C53.91 501.936 53.182 499.724 50.396 499.724C47.596 499.724 46.868 501.936 46.868 504.834ZM52.65 504.834C52.65 507.018 52.384 508.838 50.396 508.838C48.394 508.838 48.128 507.018 48.128 504.834C48.128 502.734 48.394 500.886 50.396 500.886C52.384 500.886 52.65 502.734 52.65 504.834Z" fill="#666666"/>
<path d="M46.714 442.888H53.448V441.824H48.632C50.438 440.354 53.154 438.212 53.154 435.692C53.154 433.816 51.922 432.696 50.018 432.696C48.198 432.696 46.84 433.816 46.756 435.972H47.988C48.044 434.698 48.716 433.788 50.032 433.788C51.404 433.788 51.894 434.628 51.894 435.748C51.894 437.82 49.374 439.836 46.714 441.978V442.888Z" fill="#666666"/>
<path d="M51.74 364H53V361.746H54.4V360.64H53V353.976H51.474L46.56 360.78V361.746H51.74V364ZM48.03 360.64L51.796 355.306V360.64H48.03Z" fill="#666666"/>
<path d="M53.686 277.286C53.518 275.872 52.538 274.668 50.606 274.668C48.044 274.668 47.022 276.628 47.022 279.806C47.022 282.872 47.736 285.028 50.732 285.028C52.944 285.028 54.036 283.516 54.036 281.668C54.036 279.54 52.762 278.294 50.872 278.294C49.668 278.294 48.562 278.854 48.128 279.848C48.114 276.838 48.982 275.732 50.592 275.732C51.74 275.732 52.314 276.306 52.51 277.286H53.686ZM50.606 279.372C52.062 279.372 52.804 280.282 52.804 281.71C52.804 283.082 51.978 283.964 50.662 283.964C49.066 283.964 48.282 282.914 48.282 281.57C48.282 280.058 49.444 279.372 50.606 279.372Z" fill="#666666"/>
<path d="M48.716 200.736C47.582 201.072 46.84 201.996 46.84 203.27C46.84 205.104 48.282 206.28 50.41 206.28C52.552 206.28 54.008 205.104 54.008 203.27C54.008 202.01 53.266 201.086 52.118 200.736C53.112 200.344 53.742 199.504 53.742 198.412C53.742 196.942 52.608 195.724 50.41 195.724C48.212 195.724 47.092 196.928 47.092 198.412C47.092 199.546 47.68 200.33 48.716 200.736ZM50.41 200.316C49.178 200.316 48.324 199.63 48.324 198.58C48.324 197.39 49.164 196.788 50.41 196.788C51.684 196.788 52.51 197.404 52.51 198.566C52.51 199.616 51.656 200.316 50.41 200.316ZM50.41 201.296C51.74 201.296 52.748 201.926 52.748 203.228C52.748 204.404 51.852 205.216 50.41 205.216C48.968 205.216 48.058 204.418 48.058 203.228C48.058 201.884 49.108 201.296 50.41 201.296Z" fill="#666666"/>
<path d="M45.876 125H47.164V114.878H44.532V116.04H45.876V125ZM49.3524 119.834C49.3524 122.774 50.0804 125 52.8804 125C55.6664 125 56.3944 122.774 56.3944 119.834C56.3944 116.936 55.6664 114.724 52.8804 114.724C50.0804 114.724 49.3524 116.936 49.3524 119.834ZM55.1344 119.834C55.1344 122.018 54.8684 123.838 52.8804 123.838C50.8784 123.838 50.6124 122.018 50.6124 119.834C50.6124 117.734 50.8784 115.886 52.8804 115.886C54.8684 115.886 55.1344 117.734 55.1344 119.834Z" fill="#666666"/>
<path d="M177.078 540H178.352V535.604H181.796V534.568H178.352V531.278H182.594V530.242H177.078V540ZM189.383 530.228H184.133V540H189.383V538.95H185.407V535.59H188.963V534.54H185.407V531.278H189.383V530.228ZM196.854 537.256C196.854 538.32 196.098 538.95 194.838 538.95H192.584V535.506H194.796C196.042 535.506 196.854 536.178 196.854 537.256ZM196.602 532.874C196.602 533.868 195.916 534.456 194.726 534.456H192.584V531.292H194.698C195.944 531.292 196.602 531.908 196.602 532.874ZM198.128 537.382C198.128 536.178 197.26 535.156 196.196 534.974C197.134 534.666 197.904 533.952 197.904 532.72C197.904 531.362 196.868 530.242 194.81 530.242H191.31V540H194.95C196.966 540 198.128 538.852 198.128 537.382Z" fill="#666666"/>
<path d="M256.078 540H257.352V532.762L260.586 540H261.482L264.702 532.776V540H265.976V530.312H264.618L261.034 538.32L257.45 530.312H256.078V540ZM274.689 540H276.033L272.519 530.298H271.049L267.521 540H268.865L269.649 537.83H273.905L274.689 540ZM273.541 536.794H270.013L271.777 531.866L273.541 536.794ZM282.792 533.112C282.792 534.204 282.162 534.988 280.72 534.988H278.844V531.292H280.72C282.176 531.292 282.792 532.006 282.792 533.112ZM277.57 530.242V540H278.844V536.01H280.384L282.708 540H284.234L281.784 535.912C283.422 535.548 284.108 534.358 284.108 533.112C284.108 531.516 283.016 530.242 280.72 530.242H277.57Z" fill="#666666"/>
<path d="M349.63 540H350.974L347.46 530.298H345.99L342.462 540H343.806L344.59 537.83H348.846L349.63 540ZM348.482 536.794H344.954L346.718 531.866L348.482 536.794ZM353.786 534.876V531.292H355.662C357.118 531.292 357.734 531.964 357.734 533.098C357.734 534.19 357.118 534.876 355.662 534.876H353.786ZM359.036 533.098C359.036 531.502 357.958 530.242 355.662 530.242H352.512V540H353.786V535.926H355.662C358.084 535.926 359.036 534.582 359.036 533.098ZM365.841 533.112C365.841 534.204 365.211 534.988 363.769 534.988H361.893V531.292H363.769C365.225 531.292 365.841 532.006 365.841 533.112ZM360.619 530.242V540H361.893V536.01H363.433L365.757 540H367.283L364.833 535.912C366.471 535.548 367.157 534.358 367.157 533.112C367.157 531.516 366.065 530.242 363.769 530.242H360.619Z" fill="#666666"/>
<path d="M426.078 540H427.352V532.762L430.586 540H431.482L434.702 532.776V540H435.976V530.312H434.618L431.034 538.32L427.45 530.312H426.078V540ZM444.689 540H446.033L442.519 530.298H441.049L437.521 540H438.865L439.649 537.83H443.905L444.689 540ZM443.541 536.794H440.013L441.777 531.866L443.541 536.794ZM449.95 536.318V540H451.224V536.318L454.402 530.242H452.988L450.58 535.184L448.172 530.242H446.758L449.95 536.318Z" fill="#666666"/>
<path d="M515.704 537.452C515.704 538.264 515.298 538.964 514.29 538.964C513.282 538.964 512.862 538.25 512.848 537.354H511.574C511.574 539.062 512.666 540.098 514.29 540.098C515.9 540.098 516.992 539.076 516.992 537.452V530.242H515.704V537.452ZM519.474 536.402C519.474 538.936 521.126 540.098 523.142 540.098C525.158 540.098 526.824 538.936 526.824 536.402V530.242H525.55V536.416C525.55 538.208 524.598 538.978 523.156 538.978C521.714 538.978 520.748 538.208 520.748 536.416V530.242H519.474V536.402ZM535.347 530.228V537.984L530.223 530.228H528.949V540H530.223V532.23L535.347 540H536.621V530.228H535.347Z" fill="#666666"/>
<path d="M81.22 66.24C81.22 66.9467 81.0533 67.6133 80.72 68.24C80.3867 68.8667 79.8533 69.38 79.12 69.78C78.3867 70.1667 77.4467 70.36 76.3 70.36H73.78V76H71.5V62.1H76.3C77.3667 62.1 78.2667 62.2867 79 62.66C79.7467 63.02 80.3 63.5133 80.66 64.14C81.0333 64.7667 81.22 65.4667 81.22 66.24ZM76.3 68.5C77.1667 68.5 77.8133 68.3067 78.24 67.92C78.6667 67.52 78.88 66.96 78.88 66.24C78.88 64.72 78.02 63.96 76.3 63.96H73.78V68.5H76.3ZM85.6745 66.58C86.0079 66.02 86.4479 65.5867 86.9945 65.28C87.5545 64.96 88.2145 64.8 88.9745 64.8V67.16H88.3945C87.5012 67.16 86.8212 67.3867 86.3545 67.84C85.9012 68.2933 85.6745 69.08 85.6745 70.2V76H83.3945V64.98H85.6745V66.58ZM95.8503 76.18C94.8103 76.18 93.8703 75.9467 93.0303 75.48C92.1903 75 91.5303 74.3333 91.0503 73.48C90.5703 72.6133 90.3303 71.6133 90.3303 70.48C90.3303 69.36 90.577 68.3667 91.0703 67.5C91.5636 66.6333 92.237 65.9667 93.0903 65.5C93.9436 65.0333 94.897 64.8 95.9503 64.8C97.0036 64.8 97.957 65.0333 98.8103 65.5C99.6636 65.9667 100.337 66.6333 100.83 67.5C101.324 68.3667 101.57 69.36 101.57 70.48C101.57 71.6 101.317 72.5933 100.81 73.46C100.304 74.3267 99.6103 75 98.7303 75.48C97.8636 75.9467 96.9036 76.18 95.8503 76.18ZM95.8503 74.2C96.437 74.2 96.9836 74.06 97.4903 73.78C98.0103 73.5 98.4303 73.08 98.7503 72.52C99.0703 71.96 99.2303 71.28 99.2303 70.48C99.2303 69.68 99.077 69.0067 98.7703 68.46C98.4636 67.9 98.057 67.48 97.5503 67.2C97.0436 66.92 96.497 66.78 95.9103 66.78C95.3236 66.78 94.777 66.92 94.2703 67.2C93.777 67.48 93.3836 67.9 93.0903 68.46C92.797 69.0067 92.6503 69.68 92.6503 70.48C92.6503 71.6667 92.9503 72.5867 93.5503 73.24C94.1636 73.88 94.9303 74.2 95.8503 74.2ZM103.064 70.44C103.064 69.3333 103.291 68.3533 103.744 67.5C104.211 66.6467 104.838 65.9867 105.624 65.52C106.424 65.04 107.311 64.8 108.284 64.8C109.004 64.8 109.711 64.96 110.404 65.28C111.111 65.5867 111.671 66 112.084 66.52V61.2H114.384V76H112.084V74.34C111.711 74.8733 111.191 75.3133 110.524 75.66C109.871 76.0067 109.118 76.18 108.264 76.18C107.304 76.18 106.424 75.94 105.624 75.46C104.838 74.9667 104.211 74.2867 103.744 73.42C103.291 72.54 103.064 71.5467 103.064 70.44ZM112.084 70.48C112.084 69.72 111.924 69.06 111.604 68.5C111.298 67.94 110.891 67.5133 110.384 67.22C109.878 66.9267 109.331 66.78 108.744 66.78C108.158 66.78 107.611 66.9267 107.104 67.22C106.598 67.5 106.184 67.92 105.864 68.48C105.558 69.0267 105.404 69.68 105.404 70.44C105.404 71.2 105.558 71.8667 105.864 72.44C106.184 73.0133 106.598 73.4533 107.104 73.76C107.624 74.0533 108.171 74.2 108.744 74.2C109.331 74.2 109.878 74.0533 110.384 73.76C110.891 73.4667 111.298 73.04 111.604 72.48C111.924 71.9067 112.084 71.24 112.084 70.48ZM127.359 64.98V76H125.079V74.7C124.719 75.1533 124.246 75.5133 123.659 75.78C123.086 76.0333 122.472 76.16 121.819 76.16C120.952 76.16 120.172 75.98 119.479 75.62C118.799 75.26 118.259 74.7267 117.859 74.02C117.472 73.3133 117.279 72.46 117.279 71.46V64.98H119.539V71.12C119.539 72.1067 119.786 72.8667 120.279 73.4C120.772 73.92 121.446 74.18 122.299 74.18C123.152 74.18 123.826 73.92 124.319 73.4C124.826 72.8667 125.079 72.1067 125.079 71.12V64.98H127.359ZM129.607 70.48C129.607 69.3467 129.834 68.3533 130.287 67.5C130.754 66.6333 131.394 65.9667 132.207 65.5C133.021 65.0333 133.954 64.8 135.007 64.8C136.341 64.8 137.441 65.12 138.307 65.76C139.187 66.3867 139.781 67.2867 140.087 68.46H137.627C137.427 67.9133 137.107 67.4867 136.667 67.18C136.227 66.8733 135.674 66.72 135.007 66.72C134.074 66.72 133.327 67.0533 132.767 67.72C132.221 68.3733 131.947 69.2933 131.947 70.48C131.947 71.6667 132.221 72.5933 132.767 73.26C133.327 73.9267 134.074 74.26 135.007 74.26C136.327 74.26 137.201 73.68 137.627 72.52H140.087C139.767 73.64 139.167 74.5333 138.287 75.2C137.407 75.8533 136.314 76.18 135.007 76.18C133.954 76.18 133.021 75.9467 132.207 75.48C131.394 75 130.754 74.3333 130.287 73.48C129.834 72.6133 129.607 71.6133 129.607 70.48ZM145.019 66.84V72.94C145.019 73.3533 145.113 73.6533 145.299 73.84C145.499 74.0133 145.833 74.1 146.299 74.1H147.699V76H145.899C144.873 76 144.086 75.76 143.539 75.28C142.993 74.8 142.719 74.02 142.719 72.94V66.84H141.419V64.98H142.719V62.24H145.019V64.98H147.699V66.84H145.019ZM150.961 63.52C150.547 63.52 150.201 63.38 149.921 63.1C149.641 62.82 149.501 62.4733 149.501 62.06C149.501 61.6467 149.641 61.3 149.921 61.02C150.201 60.74 150.547 60.6 150.961 60.6C151.361 60.6 151.701 60.74 151.981 61.02C152.261 61.3 152.401 61.6467 152.401 62.06C152.401 62.4733 152.261 62.82 151.981 63.1C151.701 63.38 151.361 63.52 150.961 63.52ZM152.081 64.98V76H149.801V64.98H152.081ZM159.334 73.96L162.454 64.98H164.874L160.674 76H157.954L153.774 64.98H156.214L159.334 73.96ZM167.758 63.52C167.344 63.52 166.998 63.38 166.718 63.1C166.438 62.82 166.298 62.4733 166.298 62.06C166.298 61.6467 166.438 61.3 166.718 61.02C166.998 60.74 167.344 60.6 167.758 60.6C168.158 60.6 168.498 60.74 168.778 61.02C169.058 61.3 169.198 61.6467 169.198 62.06C169.198 62.4733 169.058 62.82 168.778 63.1C168.498 63.38 168.158 63.52 167.758 63.52ZM168.878 64.98V76H166.598V64.98H168.878ZM174.531 66.84V72.94C174.531 73.3533 174.624 73.6533 174.811 73.84C175.011 74.0133 175.344 74.1 175.811 74.1H177.211V76H175.411C174.384 76 173.598 75.76 173.051 75.28C172.504 74.8 172.231 74.02 172.231 72.94V66.84H170.931V64.98H172.231V62.24H174.531V64.98H177.211V66.84H174.531ZM189.233 64.98L182.473 81.18H180.113L182.353 75.82L178.013 64.98H180.553L183.653 73.38L186.873 64.98H189.233ZM200.928 76.18C199.888 76.18 198.948 75.9467 198.108 75.48C197.268 75 196.608 74.3333 196.128 73.48C195.648 72.6133 195.408 71.6133 195.408 70.48C195.408 69.36 195.655 68.3667 196.148 67.5C196.642 66.6333 197.315 65.9667 198.168 65.5C199.022 65.0333 199.975 64.8 201.028 64.8C202.082 64.8 203.035 65.0333 203.888 65.5C204.742 65.9667 205.415 66.6333 205.908 67.5C206.402 68.3667 206.648 69.36 206.648 70.48C206.648 71.6 206.395 72.5933 205.888 73.46C205.382 74.3267 204.688 75 203.808 75.48C202.942 75.9467 201.982 76.18 200.928 76.18ZM200.928 74.2C201.515 74.2 202.062 74.06 202.568 73.78C203.088 73.5 203.508 73.08 203.828 72.52C204.148 71.96 204.308 71.28 204.308 70.48C204.308 69.68 204.155 69.0067 203.848 68.46C203.542 67.9 203.135 67.48 202.628 67.2C202.122 66.92 201.575 66.78 200.988 66.78C200.402 66.78 199.855 66.92 199.348 67.2C198.855 67.48 198.462 67.9 198.168 68.46C197.875 69.0067 197.728 69.68 197.728 70.48C197.728 71.6667 198.028 72.5867 198.628 73.24C199.242 73.88 200.008 74.2 200.928 74.2ZM213.522 66.84H211.482V76H209.182V66.84H207.882V64.98H209.182V64.2C209.182 62.9333 209.516 62.0133 210.182 61.44C210.862 60.8533 211.922 60.56 213.362 60.56V62.46C212.669 62.46 212.182 62.5933 211.902 62.86C211.622 63.1133 211.482 63.56 211.482 64.2V64.98H213.522V66.84ZM234.078 64.8C234.945 64.8 235.718 64.98 236.398 65.34C237.092 65.7 237.632 66.2333 238.018 66.94C238.418 67.6467 238.618 68.5 238.618 69.5V76H236.358V69.84C236.358 68.8533 236.112 68.1 235.618 67.58C235.125 67.0467 234.452 66.78 233.598 66.78C232.745 66.78 232.065 67.0467 231.558 67.58C231.065 68.1 230.818 68.8533 230.818 69.84V76H228.558V69.84C228.558 68.8533 228.312 68.1 227.818 67.58C227.325 67.0467 226.652 66.78 225.798 66.78C224.945 66.78 224.265 67.0467 223.758 67.58C223.265 68.1 223.018 68.8533 223.018 69.84V76H220.738V64.98H223.018V66.24C223.392 65.7867 223.865 65.4333 224.438 65.18C225.012 64.9267 225.625 64.8 226.278 64.8C227.158 64.8 227.945 64.9867 228.638 65.36C229.332 65.7333 229.865 66.2733 230.238 66.98C230.572 66.3133 231.092 65.7867 231.798 65.4C232.505 65 233.265 64.8 234.078 64.8ZM240.76 70.44C240.76 69.3333 240.986 68.3533 241.44 67.5C241.906 66.6467 242.533 65.9867 243.32 65.52C244.12 65.04 245 64.8 245.96 64.8C246.826 64.8 247.58 64.9733 248.22 65.32C248.873 65.6533 249.393 66.0733 249.78 66.58V64.98H252.08V76H249.78V74.36C249.393 74.88 248.866 75.3133 248.2 75.66C247.533 76.0067 246.773 76.18 245.92 76.18C244.973 76.18 244.106 75.94 243.32 75.46C242.533 74.9667 241.906 74.2867 241.44 73.42C240.986 72.54 240.76 71.5467 240.76 70.44ZM249.78 70.48C249.78 69.72 249.62 69.06 249.3 68.5C248.993 67.94 248.586 67.5133 248.08 67.22C247.573 66.9267 247.026 66.78 246.44 66.78C245.853 66.78 245.306 66.9267 244.8 67.22C244.293 67.5 243.88 67.92 243.56 68.48C243.253 69.0267 243.1 69.68 243.1 70.44C243.1 71.2 243.253 71.8667 243.56 72.44C243.88 73.0133 244.293 73.4533 244.8 73.76C245.32 74.0533 245.866 74.2 246.44 74.2C247.026 74.2 247.573 74.0533 248.08 73.76C248.586 73.4667 248.993 73.04 249.3 72.48C249.62 71.9067 249.78 71.24 249.78 70.48ZM257.354 66.58C257.688 66.02 258.128 65.5867 258.674 65.28C259.234 64.96 259.894 64.8 260.654 64.8V67.16H260.074C259.181 67.16 258.501 67.3867 258.034 67.84C257.581 68.2933 257.354 69.08 257.354 70.2V76H255.074V64.98H257.354V66.58ZM267.11 70.5L272.19 76H269.11L265.03 71.26V76H262.75V61.2H265.03V69.8L269.03 64.98H272.19L267.11 70.5ZM283.924 70.22C283.924 70.6333 283.898 71.0067 283.844 71.34H275.424C275.491 72.22 275.818 72.9267 276.404 73.46C276.991 73.9933 277.711 74.26 278.564 74.26C279.791 74.26 280.658 73.7467 281.164 72.72H283.624C283.291 73.7333 282.684 74.5667 281.804 75.22C280.938 75.86 279.858 76.18 278.564 76.18C277.511 76.18 276.564 75.9467 275.724 75.48C274.898 75 274.244 74.3333 273.764 73.48C273.298 72.6133 273.064 71.6133 273.064 70.48C273.064 69.3467 273.291 68.3533 273.744 67.5C274.211 66.6333 274.858 65.9667 275.684 65.5C276.524 65.0333 277.484 64.8 278.564 64.8C279.604 64.8 280.531 65.0267 281.344 65.48C282.158 65.9333 282.791 66.5733 283.244 67.4C283.698 68.2133 283.924 69.1533 283.924 70.22ZM281.544 69.5C281.531 68.66 281.231 67.9867 280.644 67.48C280.058 66.9733 279.331 66.72 278.464 66.72C277.678 66.72 277.004 66.9733 276.444 67.48C275.884 67.9733 275.551 68.6467 275.444 69.5H281.544ZM288.828 66.84V72.94C288.828 73.3533 288.921 73.6533 289.108 73.84C289.308 74.0133 289.641 74.1 290.108 74.1H291.508V76H289.708C288.681 76 287.895 75.76 287.348 75.28C286.801 74.8 286.528 74.02 286.528 72.94V66.84H285.228V64.98H286.528V62.24H288.828V64.98H291.508V66.84H288.828ZM303.709 70.22C303.709 70.6333 303.683 71.0067 303.629 71.34H295.209C295.276 72.22 295.603 72.9267 296.189 73.46C296.776 73.9933 297.496 74.26 298.349 74.26C299.576 74.26 300.443 73.7467 300.949 72.72H303.409C303.076 73.7333 302.469 74.5667 301.589 75.22C300.723 75.86 299.643 76.18 298.349 76.18C297.296 76.18 296.349 75.9467 295.509 75.48C294.683 75 294.029 74.3333 293.549 73.48C293.083 72.6133 292.849 71.6133 292.849 70.48C292.849 69.3467 293.076 68.3533 293.529 67.5C293.996 66.6333 294.643 65.9667 295.469 65.5C296.309 65.0333 297.269 64.8 298.349 64.8C299.389 64.8 300.316 65.0267 301.129 65.48C301.943 65.9333 302.576 66.5733 303.029 67.4C303.483 68.2133 303.709 69.1533 303.709 70.22ZM301.329 69.5C301.316 68.66 301.016 67.9867 300.429 67.48C299.843 66.9733 299.116 66.72 298.249 66.72C297.463 66.72 296.789 66.9733 296.229 67.48C295.669 67.9733 295.336 68.6467 295.229 69.5H301.329ZM308.233 66.58C308.566 66.02 309.006 65.5867 309.553 65.28C310.113 64.96 310.773 64.8 311.533 64.8V67.16H310.953C310.06 67.16 309.38 67.3867 308.913 67.84C308.46 68.2933 308.233 69.08 308.233 70.2V76H305.953V64.98H308.233V66.58ZM317.629 76.18C316.762 76.18 315.982 76.0267 315.289 75.72C314.609 75.4 314.069 74.9733 313.669 74.44C313.269 73.8933 313.056 73.2867 313.029 72.62H315.389C315.429 73.0867 315.649 73.48 316.049 73.8C316.462 74.1067 316.976 74.26 317.589 74.26C318.229 74.26 318.722 74.14 319.069 73.9C319.429 73.6467 319.609 73.3267 319.609 72.94C319.609 72.5267 319.409 72.22 319.009 72.02C318.622 71.82 318.002 71.6 317.149 71.36C316.322 71.1333 315.649 70.9133 315.129 70.7C314.609 70.4867 314.156 70.16 313.769 69.72C313.396 69.28 313.209 68.7 313.209 67.98C313.209 67.3933 313.382 66.86 313.729 66.38C314.076 65.8867 314.569 65.5 315.209 65.22C315.862 64.94 316.609 64.8 317.449 64.8C318.702 64.8 319.709 65.12 320.469 65.76C321.242 66.3867 321.656 67.2467 321.709 68.34H319.429C319.389 67.8467 319.189 67.4533 318.829 67.16C318.469 66.8667 317.982 66.72 317.369 66.72C316.769 66.72 316.309 66.8333 315.989 67.06C315.669 67.2867 315.509 67.5867 315.509 67.96C315.509 68.2533 315.616 68.5 315.829 68.7C316.042 68.9 316.302 69.06 316.609 69.18C316.916 69.2867 317.369 69.4267 317.969 69.6C318.769 69.8133 319.422 70.0333 319.929 70.26C320.449 70.4733 320.896 70.7933 321.269 71.22C321.642 71.6467 321.836 72.2133 321.849 72.92C321.849 73.5467 321.676 74.1067 321.329 74.6C320.982 75.0933 320.489 75.48 319.849 75.76C319.222 76.04 318.482 76.18 317.629 76.18Z" fill="black"/>
<rect x="397" y="47" width="16" height="16" rx="4" fill="#34B3F1"/>
<path d="M138.704 296.402C111.26 299.225 71 262.966 71 262.966V511H555V288.418C522.76 277.439 513.231 254.05 485.281 257.976C452.625 262.563 452.992 324.608 420.399 329.838C380.943 336.169 370.581 251.508 332.545 265.961C310.604 274.298 310.191 285.744 288 293C248.488 305.92 267.338 281.085 226.5 283C192.121 284.612 172.989 292.876 138.704 296.402Z" fill="url(#paint0_linear_36_131)"/>
<rect x="397" y="73" width="16" height="16" rx="4" fill="#003488"/>
<path d="M423.172 60.098C422.528 60.098 421.949 59.986 421.436 59.762C420.932 59.5287 420.535 59.2113 420.246 58.81C419.957 58.3993 419.807 57.928 419.798 57.396H421.156C421.203 57.8533 421.389 58.2407 421.716 58.558C422.052 58.866 422.537 59.02 423.172 59.02C423.779 59.02 424.255 58.8707 424.6 58.572C424.955 58.264 425.132 57.872 425.132 57.396C425.132 57.0227 425.029 56.7193 424.824 56.486C424.619 56.2527 424.362 56.0753 424.054 55.954C423.746 55.8327 423.331 55.702 422.808 55.562C422.164 55.394 421.646 55.226 421.254 55.058C420.871 54.89 420.54 54.6287 420.26 54.274C419.989 53.91 419.854 53.4247 419.854 52.818C419.854 52.286 419.989 51.8147 420.26 51.404C420.531 50.9933 420.909 50.676 421.394 50.452C421.889 50.228 422.453 50.116 423.088 50.116C424.003 50.116 424.749 50.3447 425.328 50.802C425.916 51.2593 426.247 51.866 426.322 52.622H424.922C424.875 52.2487 424.679 51.922 424.334 51.642C423.989 51.3527 423.531 51.208 422.962 51.208C422.43 51.208 421.996 51.348 421.66 51.628C421.324 51.8987 421.156 52.2813 421.156 52.776C421.156 53.1307 421.254 53.42 421.45 53.644C421.655 53.868 421.903 54.0407 422.192 54.162C422.491 54.274 422.906 54.4047 423.438 54.554C424.082 54.7313 424.6 54.9087 424.992 55.086C425.384 55.254 425.72 55.52 426 55.884C426.28 56.2387 426.42 56.724 426.42 57.34C426.42 57.816 426.294 58.264 426.042 58.684C425.79 59.104 425.417 59.4447 424.922 59.706C424.427 59.9673 423.844 60.098 423.172 60.098ZM431.641 60.126C430.922 60.126 430.269 59.9627 429.681 59.636C429.102 59.3093 428.645 58.8473 428.309 58.25C427.982 57.6433 427.819 56.9433 427.819 56.15C427.819 55.366 427.987 54.6753 428.323 54.078C428.668 53.4713 429.135 53.0093 429.723 52.692C430.311 52.3653 430.969 52.202 431.697 52.202C432.425 52.202 433.083 52.3653 433.671 52.692C434.259 53.0093 434.721 53.4667 435.057 54.064C435.402 54.6613 435.575 55.3567 435.575 56.15C435.575 56.9433 435.397 57.6433 435.043 58.25C434.697 58.8473 434.226 59.3093 433.629 59.636C433.031 59.9627 432.369 60.126 431.641 60.126ZM431.641 59.006C432.098 59.006 432.527 58.8987 432.929 58.684C433.33 58.4693 433.652 58.1473 433.895 57.718C434.147 57.2887 434.273 56.766 434.273 56.15C434.273 55.534 434.151 55.0113 433.909 54.582C433.666 54.1527 433.349 53.8353 432.957 53.63C432.565 53.4153 432.14 53.308 431.683 53.308C431.216 53.308 430.787 53.4153 430.395 53.63C430.012 53.8353 429.704 54.1527 429.471 54.582C429.237 55.0113 429.121 55.534 429.121 56.15C429.121 56.7753 429.233 57.3027 429.457 57.732C429.69 58.1613 429.998 58.4833 430.381 58.698C430.763 58.9033 431.183 59.006 431.641 59.006ZM446.476 52.188C447.073 52.188 447.605 52.314 448.072 52.566C448.539 52.8087 448.907 53.1773 449.178 53.672C449.449 54.1667 449.584 54.7687 449.584 55.478V60H448.324V55.66C448.324 54.8947 448.133 54.3113 447.75 53.91C447.377 53.4993 446.868 53.294 446.224 53.294C445.561 53.294 445.034 53.5087 444.642 53.938C444.25 54.358 444.054 54.9693 444.054 55.772V60H442.794V55.66C442.794 54.8947 442.603 54.3113 442.22 53.91C441.847 53.4993 441.338 53.294 440.694 53.294C440.031 53.294 439.504 53.5087 439.112 53.938C438.72 54.358 438.524 54.9693 438.524 55.772V60H437.25V52.328H438.524V53.434C438.776 53.0327 439.112 52.7247 439.532 52.51C439.961 52.2953 440.433 52.188 440.946 52.188C441.59 52.188 442.159 52.3327 442.654 52.622C443.149 52.9113 443.517 53.336 443.76 53.896C443.975 53.3547 444.329 52.9347 444.824 52.636C445.319 52.3373 445.869 52.188 446.476 52.188ZM458.674 55.87C458.674 56.1127 458.66 56.3693 458.632 56.64H452.5C452.546 57.396 452.803 57.9887 453.27 58.418C453.746 58.838 454.32 59.048 454.992 59.048C455.542 59.048 456 58.922 456.364 58.67C456.737 58.4087 456.998 58.0633 457.148 57.634H458.52C458.314 58.3713 457.904 58.9733 457.288 59.44C456.672 59.8973 455.906 60.126 454.992 60.126C454.264 60.126 453.61 59.9627 453.032 59.636C452.462 59.3093 452.014 58.8473 451.688 58.25C451.361 57.6433 451.198 56.9433 451.198 56.15C451.198 55.3567 451.356 54.6613 451.674 54.064C451.991 53.4667 452.434 53.0093 453.004 52.692C453.582 52.3653 454.245 52.202 454.992 52.202C455.72 52.202 456.364 52.3607 456.924 52.678C457.484 52.9953 457.913 53.434 458.212 53.994C458.52 54.5447 458.674 55.17 458.674 55.87ZM457.358 55.604C457.358 55.1187 457.25 54.7033 457.036 54.358C456.821 54.0033 456.527 53.7373 456.154 53.56C455.79 53.3733 455.384 53.28 454.936 53.28C454.292 53.28 453.741 53.4853 453.284 53.896C452.836 54.3067 452.579 54.876 452.514 55.604H457.358ZM469.856 57.83H465.6L464.816 60H463.472L467 50.298H468.47L471.984 60H470.64L469.856 57.83ZM469.492 56.794L467.728 51.866L465.964 56.794H469.492ZM474.795 50.242V60H473.521V50.242H474.795ZM484.983 60L481.973 56.612V60H480.699V49.64H481.973V55.73L484.927 52.328H486.705L483.093 56.15L486.719 60H484.983ZM491.642 52.188C492.576 52.188 493.332 52.4727 493.91 53.042C494.489 53.602 494.778 54.414 494.778 55.478V60H493.518V55.66C493.518 54.8947 493.327 54.3113 492.944 53.91C492.562 53.4993 492.039 53.294 491.376 53.294C490.704 53.294 490.168 53.504 489.766 53.924C489.374 54.344 489.178 54.9553 489.178 55.758V60H487.904V52.328H489.178V53.42C489.43 53.028 489.771 52.7247 490.2 52.51C490.639 52.2953 491.12 52.188 491.642 52.188ZM500.205 60.126C499.487 60.126 498.833 59.9627 498.245 59.636C497.667 59.3093 497.209 58.8473 496.873 58.25C496.547 57.6433 496.383 56.9433 496.383 56.15C496.383 55.366 496.551 54.6753 496.887 54.078C497.233 53.4713 497.699 53.0093 498.287 52.692C498.875 52.3653 499.533 52.202 500.261 52.202C500.989 52.202 501.647 52.3653 502.235 52.692C502.823 53.0093 503.285 53.4667 503.621 54.064C503.967 54.6613 504.139 55.3567 504.139 56.15C504.139 56.9433 503.962 57.6433 503.607 58.25C503.262 58.8473 502.791 59.3093 502.193 59.636C501.596 59.9627 500.933 60.126 500.205 60.126ZM500.205 59.006C500.663 59.006 501.092 58.8987 501.493 58.684C501.895 58.4693 502.217 58.1473 502.459 57.718C502.711 57.2887 502.837 56.766 502.837 56.15C502.837 55.534 502.716 55.0113 502.473 54.582C502.231 54.1527 501.913 53.8353 501.521 53.63C501.129 53.4153 500.705 53.308 500.247 53.308C499.781 53.308 499.351 53.4153 498.959 53.63C498.577 53.8353 498.269 54.1527 498.035 54.582C497.802 55.0113 497.685 55.534 497.685 56.15C497.685 56.7753 497.797 57.3027 498.021 57.732C498.255 58.1613 498.563 58.4833 498.945 58.698C499.328 58.9033 499.748 59.006 500.205 59.006ZM516.034 52.328L513.64 60H512.324L510.476 53.91L508.628 60H507.312L504.904 52.328H506.206L507.97 58.768L509.874 52.328H511.176L513.038 58.782L514.774 52.328H516.034ZM518.573 49.64V60H517.299V49.64H518.573ZM527.744 55.87C527.744 56.1127 527.73 56.3693 527.702 56.64H521.57C521.617 57.396 521.873 57.9887 522.34 58.418C522.816 58.838 523.39 59.048 524.062 59.048C524.613 59.048 525.07 58.922 525.434 58.67C525.807 58.4087 526.069 58.0633 526.218 57.634H527.59C527.385 58.3713 526.974 58.9733 526.358 59.44C525.742 59.8973 524.977 60.126 524.062 60.126C523.334 60.126 522.681 59.9627 522.102 59.636C521.533 59.3093 521.085 58.8473 520.758 58.25C520.431 57.6433 520.268 56.9433 520.268 56.15C520.268 55.3567 520.427 54.6613 520.744 54.064C521.061 53.4667 521.505 53.0093 522.074 52.692C522.653 52.3653 523.315 52.202 524.062 52.202C524.79 52.202 525.434 52.3607 525.994 52.678C526.554 52.9953 526.983 53.434 527.282 53.994C527.59 54.5447 527.744 55.17 527.744 55.87ZM526.428 55.604C526.428 55.1187 526.321 54.7033 526.106 54.358C525.891 54.0033 525.597 53.7373 525.224 53.56C524.86 53.3733 524.454 53.28 524.006 53.28C523.362 53.28 522.811 53.4853 522.354 53.896C521.906 54.3067 521.649 54.876 521.584 55.604H526.428ZM528.95 56.136C528.95 55.352 529.108 54.666 529.426 54.078C529.743 53.4807 530.177 53.0187 530.728 52.692C531.288 52.3653 531.913 52.202 532.604 52.202C533.201 52.202 533.756 52.342 534.27 52.622C534.783 52.8927 535.175 53.252 535.446 53.7V49.64H536.734V60H535.446V58.558C535.194 59.0153 534.82 59.3933 534.326 59.692C533.831 59.9813 533.252 60.126 532.59 60.126C531.908 60.126 531.288 59.958 530.728 59.622C530.177 59.286 529.743 58.8147 529.426 58.208C529.108 57.6013 528.95 56.9107 528.95 56.136ZM535.446 56.15C535.446 55.5713 535.329 55.0673 535.096 54.638C534.862 54.2087 534.545 53.882 534.144 53.658C533.752 53.4247 533.318 53.308 532.842 53.308C532.366 53.308 531.932 53.42 531.54 53.644C531.148 53.868 530.835 54.1947 530.602 54.624C530.368 55.0533 530.252 55.5573 530.252 56.136C530.252 56.724 530.368 57.2373 530.602 57.676C530.835 58.1053 531.148 58.4367 531.54 58.67C531.932 58.894 532.366 59.006 532.842 59.006C533.318 59.006 533.752 58.894 534.144 58.67C534.545 58.4367 534.862 58.1053 535.096 57.676C535.329 57.2373 535.446 56.7287 535.446 56.15ZM542.051 52.202C542.713 52.202 543.292 52.3467 543.787 52.636C544.291 52.9253 544.664 53.2893 544.907 53.728V52.328H546.195V60.168C546.195 60.868 546.045 61.4887 545.747 62.03C545.448 62.5807 545.019 63.01 544.459 63.318C543.908 63.626 543.264 63.78 542.527 63.78C541.519 63.78 540.679 63.542 540.007 63.066C539.335 62.59 538.938 61.9413 538.817 61.12H540.077C540.217 61.5867 540.506 61.96 540.945 62.24C541.383 62.5293 541.911 62.674 542.527 62.674C543.227 62.674 543.796 62.4547 544.235 62.016C544.683 61.5773 544.907 60.9613 544.907 60.168V58.558C544.655 59.006 544.281 59.3793 543.787 59.678C543.292 59.9767 542.713 60.126 542.051 60.126C541.369 60.126 540.749 59.958 540.189 59.622C539.638 59.286 539.204 58.8147 538.887 58.208C538.569 57.6013 538.411 56.9107 538.411 56.136C538.411 55.352 538.569 54.666 538.887 54.078C539.204 53.4807 539.638 53.0187 540.189 52.692C540.749 52.3653 541.369 52.202 542.051 52.202ZM544.907 56.15C544.907 55.5713 544.79 55.0673 544.557 54.638C544.323 54.2087 544.006 53.882 543.605 53.658C543.213 53.4247 542.779 53.308 542.303 53.308C541.827 53.308 541.393 53.42 541.001 53.644C540.609 53.868 540.296 54.1947 540.063 54.624C539.829 55.0533 539.713 55.5573 539.713 56.136C539.713 56.724 539.829 57.2373 540.063 57.676C540.296 58.1053 540.609 58.4367 541.001 58.67C541.393 58.894 541.827 59.006 542.303 59.006C542.779 59.006 543.213 58.894 543.605 58.67C544.006 58.4367 544.323 58.1053 544.557 57.676C544.79 57.2373 544.907 56.7287 544.907 56.15ZM555.348 55.87C555.348 56.1127 555.334 56.3693 555.306 56.64H549.174C549.22 57.396 549.477 57.9887 549.944 58.418C550.42 58.838 550.994 59.048 551.666 59.048C552.216 59.048 552.674 58.922 553.038 58.67C553.411 58.4087 553.672 58.0633 553.822 57.634H555.194C554.988 58.3713 554.578 58.9733 553.962 59.44C553.346 59.8973 552.58 60.126 551.666 60.126C550.938 60.126 550.284 59.9627 549.706 59.636C549.136 59.3093 548.688 58.8473 548.362 58.25C548.035 57.6433 547.872 56.9433 547.872 56.15C547.872 55.3567 548.03 54.6613 548.348 54.064C548.665 53.4667 549.108 53.0093 549.678 52.692C550.256 52.3653 550.919 52.202 551.666 52.202C552.394 52.202 553.038 52.3607 553.598 52.678C554.158 52.9953 554.587 53.434 554.886 53.994C555.194 54.5447 555.348 55.17 555.348 55.87ZM554.032 55.604C554.032 55.1187 553.924 54.7033 553.71 54.358C553.495 54.0033 553.201 53.7373 552.828 53.56C552.464 53.3733 552.058 53.28 551.61 53.28C550.966 53.28 550.415 53.4853 549.958 53.896C549.51 54.3067 549.253 54.876 549.188 55.604H554.032Z" fill="#8D9092"/>
<path d="M420.156 84.894H424.916V86H418.644V84.992L423.376 77.348H418.7V76.242H424.888V77.25L420.156 84.894ZM433.652 81.87C433.652 82.1127 433.638 82.3693 433.61 82.64H427.478C427.525 83.396 427.782 83.9887 428.248 84.418C428.724 84.838 429.298 85.048 429.97 85.048C430.521 85.048 430.978 84.922 431.342 84.67C431.716 84.4087 431.977 84.0633 432.126 83.634H433.498C433.293 84.3713 432.882 84.9733 432.266 85.44C431.65 85.8973 430.885 86.126 429.97 86.126C429.242 86.126 428.589 85.9627 428.01 85.636C427.441 85.3093 426.993 84.8473 426.666 84.25C426.34 83.6433 426.176 82.9433 426.176 82.15C426.176 81.3567 426.335 80.6613 426.652 80.064C426.97 79.4667 427.413 79.0093 427.982 78.692C428.561 78.3653 429.224 78.202 429.97 78.202C430.698 78.202 431.342 78.3607 431.902 78.678C432.462 78.9953 432.892 79.434 433.19 79.994C433.498 80.5447 433.652 81.17 433.652 81.87ZM432.336 81.604C432.336 81.1187 432.229 80.7033 432.014 80.358C431.8 80.0033 431.506 79.7373 431.132 79.56C430.768 79.3733 430.362 79.28 429.914 79.28C429.27 79.28 428.72 79.4853 428.262 79.896C427.814 80.3067 427.558 80.876 427.492 81.604H432.336ZM436.608 79.574C436.832 79.1353 437.149 78.7947 437.56 78.552C437.98 78.3093 438.489 78.188 439.086 78.188V79.504H438.75C437.322 79.504 436.608 80.2787 436.608 81.828V86H435.334V78.328H436.608V79.574ZM443.903 86.126C443.184 86.126 442.531 85.9627 441.943 85.636C441.364 85.3093 440.907 84.8473 440.571 84.25C440.244 83.6433 440.081 82.9433 440.081 82.15C440.081 81.366 440.249 80.6753 440.585 80.078C440.93 79.4713 441.397 79.0093 441.985 78.692C442.573 78.3653 443.231 78.202 443.959 78.202C444.687 78.202 445.345 78.3653 445.933 78.692C446.521 79.0093 446.983 79.4667 447.319 80.064C447.664 80.6613 447.837 81.3567 447.837 82.15C447.837 82.9433 447.659 83.6433 447.305 84.25C446.959 84.8473 446.488 85.3093 445.891 85.636C445.293 85.9627 444.631 86.126 443.903 86.126ZM443.903 85.006C444.36 85.006 444.789 84.8987 445.191 84.684C445.592 84.4693 445.914 84.1473 446.157 83.718C446.409 83.2887 446.535 82.766 446.535 82.15C446.535 81.534 446.413 81.0113 446.171 80.582C445.928 80.1527 445.611 79.8353 445.219 79.63C444.827 79.4153 444.402 79.308 443.945 79.308C443.478 79.308 443.049 79.4153 442.657 79.63C442.274 79.8353 441.966 80.1527 441.733 80.582C441.499 81.0113 441.383 81.534 441.383 82.15C441.383 82.7753 441.495 83.3027 441.719 83.732C441.952 84.1613 442.26 84.4833 442.643 84.698C443.025 84.9033 443.445 85.006 443.903 85.006ZM459.012 83.83H454.756L453.972 86H452.628L456.156 76.298H457.626L461.14 86H459.796L459.012 83.83ZM458.648 82.794L456.884 77.866L455.12 82.794H458.648ZM463.952 76.242V86H462.678V76.242H463.952ZM474.139 86L471.129 82.612V86H469.855V75.64H471.129V81.73L474.083 78.328H475.861L472.249 82.15L475.875 86H474.139ZM480.798 78.188C481.732 78.188 482.488 78.4727 483.066 79.042C483.645 79.602 483.934 80.414 483.934 81.478V86H482.674V81.66C482.674 80.8947 482.483 80.3113 482.1 79.91C481.718 79.4993 481.195 79.294 480.532 79.294C479.86 79.294 479.324 79.504 478.922 79.924C478.53 80.344 478.334 80.9553 478.334 81.758V86H477.06V78.328H478.334V79.42C478.586 79.028 478.927 78.7247 479.356 78.51C479.795 78.2953 480.276 78.188 480.798 78.188ZM489.362 86.126C488.643 86.126 487.99 85.9627 487.402 85.636C486.823 85.3093 486.366 84.8473 486.03 84.25C485.703 83.6433 485.54 82.9433 485.54 82.15C485.54 81.366 485.708 80.6753 486.044 80.078C486.389 79.4713 486.856 79.0093 487.444 78.692C488.032 78.3653 488.69 78.202 489.418 78.202C490.146 78.202 490.804 78.3653 491.392 78.692C491.98 79.0093 492.442 79.4667 492.778 80.064C493.123 80.6613 493.296 81.3567 493.296 82.15C493.296 82.9433 493.118 83.6433 492.764 84.25C492.418 84.8473 491.947 85.3093 491.35 85.636C490.752 85.9627 490.09 86.126 489.362 86.126ZM489.362 85.006C489.819 85.006 490.248 84.8987 490.65 84.684C491.051 84.4693 491.373 84.1473 491.616 83.718C491.868 83.2887 491.994 82.766 491.994 82.15C491.994 81.534 491.872 81.0113 491.63 80.582C491.387 80.1527 491.07 79.8353 490.678 79.63C490.286 79.4153 489.861 79.308 489.404 79.308C488.937 79.308 488.508 79.4153 488.116 79.63C487.733 79.8353 487.425 80.1527 487.192 80.582C486.958 81.0113 486.842 81.534 486.842 82.15C486.842 82.7753 486.954 83.3027 487.178 83.732C487.411 84.1613 487.719 84.4833 488.102 84.698C488.484 84.9033 488.904 85.006 489.362 85.006ZM505.191 78.328L502.797 86H501.481L499.633 79.91L497.785 86H496.469L494.061 78.328H495.363L497.127 84.768L499.031 78.328H500.333L502.195 84.782L503.931 78.328H505.191ZM507.729 75.64V86H506.455V75.64H507.729ZM516.9 81.87C516.9 82.1127 516.886 82.3693 516.858 82.64H510.726C510.773 83.396 511.03 83.9887 511.496 84.418C511.972 84.838 512.546 85.048 513.218 85.048C513.769 85.048 514.226 84.922 514.59 84.67C514.964 84.4087 515.225 84.0633 515.374 83.634H516.746C516.541 84.3713 516.13 84.9733 515.514 85.44C514.898 85.8973 514.133 86.126 513.218 86.126C512.49 86.126 511.837 85.9627 511.258 85.636C510.689 85.3093 510.241 84.8473 509.914 84.25C509.588 83.6433 509.424 82.9433 509.424 82.15C509.424 81.3567 509.583 80.6613 509.9 80.064C510.218 79.4667 510.661 79.0093 511.23 78.692C511.809 78.3653 512.472 78.202 513.218 78.202C513.946 78.202 514.59 78.3607 515.15 78.678C515.71 78.9953 516.14 79.434 516.438 79.994C516.746 80.5447 516.9 81.17 516.9 81.87ZM515.584 81.604C515.584 81.1187 515.477 80.7033 515.262 80.358C515.048 80.0033 514.754 79.7373 514.38 79.56C514.016 79.3733 513.61 79.28 513.162 79.28C512.518 79.28 511.968 79.4853 511.51 79.896C511.062 80.3067 510.806 80.876 510.74 81.604H515.584ZM518.106 82.136C518.106 81.352 518.265 80.666 518.582 80.078C518.899 79.4807 519.333 79.0187 519.884 78.692C520.444 78.3653 521.069 78.202 521.76 78.202C522.357 78.202 522.913 78.342 523.426 78.622C523.939 78.8927 524.331 79.252 524.602 79.7V75.64H525.89V86H524.602V84.558C524.35 85.0153 523.977 85.3933 523.482 85.692C522.987 85.9813 522.409 86.126 521.746 86.126C521.065 86.126 520.444 85.958 519.884 85.622C519.333 85.286 518.899 84.8147 518.582 84.208C518.265 83.6013 518.106 82.9107 518.106 82.136ZM524.602 82.15C524.602 81.5713 524.485 81.0673 524.252 80.638C524.019 80.2087 523.701 79.882 523.3 79.658C522.908 79.4247 522.474 79.308 521.998 79.308C521.522 79.308 521.088 79.42 520.696 79.644C520.304 79.868 519.991 80.1947 519.758 80.624C519.525 81.0533 519.408 81.5573 519.408 82.136C519.408 82.724 519.525 83.2373 519.758 83.676C519.991 84.1053 520.304 84.4367 520.696 84.67C521.088 84.894 521.522 85.006 521.998 85.006C522.474 85.006 522.908 84.894 523.3 84.67C523.701 84.4367 524.019 84.1053 524.252 83.676C524.485 83.2373 524.602 82.7287 524.602 82.15ZM531.207 78.202C531.87 78.202 532.448 78.3467 532.943 78.636C533.447 78.9253 533.82 79.2893 534.063 79.728V78.328H535.351V86.168C535.351 86.868 535.202 87.4887 534.903 88.03C534.604 88.5807 534.175 89.01 533.615 89.318C533.064 89.626 532.42 89.78 531.683 89.78C530.675 89.78 529.835 89.542 529.163 89.066C528.491 88.59 528.094 87.9413 527.973 87.12H529.233C529.373 87.5867 529.662 87.96 530.101 88.24C530.54 88.5293 531.067 88.674 531.683 88.674C532.383 88.674 532.952 88.4547 533.391 88.016C533.839 87.5773 534.063 86.9613 534.063 86.168V84.558C533.811 85.006 533.438 85.3793 532.943 85.678C532.448 85.9767 531.87 86.126 531.207 86.126C530.526 86.126 529.905 85.958 529.345 85.622C528.794 85.286 528.36 84.8147 528.043 84.208C527.726 83.6013 527.567 82.9107 527.567 82.136C527.567 81.352 527.726 80.666 528.043 80.078C528.36 79.4807 528.794 79.0187 529.345 78.692C529.905 78.3653 530.526 78.202 531.207 78.202ZM534.063 82.15C534.063 81.5713 533.946 81.0673 533.713 80.638C533.48 80.2087 533.162 79.882 532.761 79.658C532.369 79.4247 531.935 79.308 531.459 79.308C530.983 79.308 530.549 79.42 530.157 79.644C529.765 79.868 529.452 80.1947 529.219 80.624C528.986 81.0533 528.869 81.5573 528.869 82.136C528.869 82.724 528.986 83.2373 529.219 83.676C529.452 84.1053 529.765 84.4367 530.157 84.67C530.549 84.894 530.983 85.006 531.459 85.006C531.935 85.006 532.369 84.894 532.761 84.67C533.162 84.4367 533.48 84.1053 533.713 83.676C533.946 83.2373 534.063 82.7287 534.063 82.15ZM544.504 81.87C544.504 82.1127 544.49 82.3693 544.462 82.64H538.33C538.376 83.396 538.633 83.9887 539.1 84.418C539.576 84.838 540.15 85.048 540.822 85.048C541.372 85.048 541.83 84.922 542.194 84.67C542.567 84.4087 542.828 84.0633 542.978 83.634H544.35C544.144 84.3713 543.734 84.9733 543.118 85.44C542.502 85.8973 541.736 86.126 540.822 86.126C540.094 86.126 539.44 85.9627 538.862 85.636C538.292 85.3093 537.844 84.8473 537.518 84.25C537.191 83.6433 537.028 82.9433 537.028 82.15C537.028 81.3567 537.186 80.6613 537.504 80.064C537.821 79.4667 538.264 79.0093 538.834 78.692C539.412 78.3653 540.075 78.202 540.822 78.202C541.55 78.202 542.194 78.3607 542.754 78.678C543.314 78.9953 543.743 79.434 544.042 79.994C544.35 80.5447 544.504 81.17 544.504 81.87ZM543.188 81.604C543.188 81.1187 543.08 80.7033 542.866 80.358C542.651 80.0033 542.357 79.7373 541.984 79.56C541.62 79.3733 541.214 79.28 540.766 79.28C540.122 79.28 539.571 79.4853 539.114 79.896C538.666 80.3067 538.409 80.876 538.344 81.604H543.188Z" fill="#8D9092"/>
<path d="M73.5 262.5C73.5 262.5 113.844 299.103 141.004 296.286C174.935 292.766 187.476 284.109 221.5 282.5C261.916 280.589 250.665 306.614 289.769 293.717C311.731 286.474 311.128 274.221 332.843 265.898C370.486 251.471 380.741 335.982 419.789 329.662C452.046 324.441 451.683 262.506 484.002 257.928C511.663 254.009 521.093 277.356 553 288.315" stroke="#292D30" stroke-width="5" stroke-linecap="round"/>
<path d="M162.013 311.506C123.34 308.167 71 360.509 71 360.509V509H556V149.5C556 149.5 517.428 195.723 492 190.5C451.411 182.163 472.401 217.151 433 202.5C404.46 191.888 421.76 207.906 394 194.5C366.068 181.011 353.683 215 322 215C279.966 215 307.808 283.14 240 281.5C206.516 280.69 195.423 314.391 162.013 311.506Z" fill="url(#paint1_linear_36_131)"/>
<path d="M73 357.49C73 357.49 124.908 305.563 163.263 308.876C196.397 311.738 211.292 277.696 244.5 278.5C311.749 280.127 283.313 212.5 325 212.5C356.421 212.5 364.798 181.118 392.5 194.5C420.031 207.8 405.696 191.972 434 202.5C473.076 217.034 454.246 181.729 494.5 190C519.718 195.182 555 150 555 150" stroke="#34B3F1" stroke-width="5" stroke-linecap="round"/>
<path d="M381.5 191L375 511" stroke="#D9E7FF" stroke-linecap="round"/>
<circle cx="380" cy="191" r="6" fill="#292D30" stroke="white" stroke-width="2"/>
<rect x="302" y="142" width="162" height="28" rx="14" fill="#25FBAE"/>
<path d="M325.112 155.692C325.416 155.74 325.692 155.864 325.94 156.064C326.196 156.264 326.396 156.512 326.54 156.808C326.692 157.104 326.768 157.42 326.768 157.756C326.768 158.18 326.66 158.564 326.444 158.908C326.228 159.244 325.912 159.512 325.496 159.712C325.088 159.904 324.604 160 324.044 160H320.924V151.636H323.924C324.492 151.636 324.976 151.732 325.376 151.924C325.776 152.108 326.076 152.36 326.276 152.68C326.476 153 326.576 153.36 326.576 153.76C326.576 154.256 326.44 154.668 326.168 154.996C325.904 155.316 325.552 155.548 325.112 155.692ZM322.016 155.248H323.852C324.364 155.248 324.76 155.128 325.04 154.888C325.32 154.648 325.46 154.316 325.46 153.892C325.46 153.468 325.32 153.136 325.04 152.896C324.76 152.656 324.356 152.536 323.828 152.536H322.016V155.248ZM323.948 159.1C324.492 159.1 324.916 158.972 325.22 158.716C325.524 158.46 325.676 158.104 325.676 157.648C325.676 157.184 325.516 156.82 325.196 156.556C324.876 156.284 324.448 156.148 323.912 156.148H322.016V159.1H323.948ZM334.283 156.46C334.283 156.668 334.271 156.888 334.247 157.12H328.991C329.031 157.768 329.251 158.276 329.651 158.644C330.059 159.004 330.551 159.184 331.127 159.184C331.599 159.184 331.991 159.076 332.303 158.86C332.623 158.636 332.847 158.34 332.975 157.972H334.151C333.975 158.604 333.623 159.12 333.095 159.52C332.567 159.912 331.911 160.108 331.127 160.108C330.503 160.108 329.943 159.968 329.447 159.688C328.959 159.408 328.575 159.012 328.295 158.5C328.015 157.98 327.875 157.38 327.875 156.7C327.875 156.02 328.011 155.424 328.283 154.912C328.555 154.4 328.935 154.008 329.423 153.736C329.919 153.456 330.487 153.316 331.127 153.316C331.751 153.316 332.303 153.452 332.783 153.724C333.263 153.996 333.631 154.372 333.887 154.852C334.151 155.324 334.283 155.86 334.283 156.46ZM333.155 156.232C333.155 155.816 333.063 155.46 332.879 155.164C332.695 154.86 332.443 154.632 332.123 154.48C331.811 154.32 331.463 154.24 331.079 154.24C330.527 154.24 330.055 154.416 329.663 154.768C329.279 155.12 329.059 155.608 329.003 156.232H333.155ZM335.317 156.7C335.317 156.02 335.453 155.428 335.725 154.924C335.997 154.412 336.373 154.016 336.853 153.736C337.341 153.456 337.897 153.316 338.521 153.316C339.329 153.316 339.993 153.512 340.513 153.904C341.041 154.296 341.389 154.84 341.557 155.536H340.381C340.269 155.136 340.049 154.82 339.721 154.588C339.401 154.356 339.001 154.24 338.521 154.24C337.897 154.24 337.393 154.456 337.009 154.888C336.625 155.312 336.433 155.916 336.433 156.7C336.433 157.492 336.625 158.104 337.009 158.536C337.393 158.968 337.897 159.184 338.521 159.184C339.001 159.184 339.401 159.072 339.721 158.848C340.041 158.624 340.261 158.304 340.381 157.888H341.557C341.381 158.56 341.029 159.1 340.501 159.508C339.973 159.908 339.313 160.108 338.521 160.108C337.897 160.108 337.341 159.968 336.853 159.688C336.373 159.408 335.997 159.012 335.725 158.5C335.453 157.988 335.317 157.388 335.317 156.7ZM345.882 160.108C345.266 160.108 344.706 159.968 344.202 159.688C343.706 159.408 343.314 159.012 343.026 158.5C342.746 157.98 342.606 157.38 342.606 156.7C342.606 156.028 342.75 155.436 343.038 154.924C343.334 154.404 343.734 154.008 344.238 153.736C344.742 153.456 345.306 153.316 345.93 153.316C346.554 153.316 347.118 153.456 347.622 153.736C348.126 154.008 348.522 154.4 348.81 154.912C349.106 155.424 349.254 156.02 349.254 156.7C349.254 157.38 349.102 157.98 348.798 158.5C348.502 159.012 348.098 159.408 347.586 159.688C347.074 159.968 346.506 160.108 345.882 160.108ZM345.882 159.148C346.274 159.148 346.642 159.056 346.986 158.872C347.33 158.688 347.606 158.412 347.814 158.044C348.03 157.676 348.138 157.228 348.138 156.7C348.138 156.172 348.034 155.724 347.826 155.356C347.618 154.988 347.346 154.716 347.01 154.54C346.674 154.356 346.31 154.264 345.918 154.264C345.518 154.264 345.15 154.356 344.814 154.54C344.486 154.716 344.222 154.988 344.022 155.356C343.822 155.724 343.722 156.172 343.722 156.7C343.722 157.236 343.818 157.688 344.01 158.056C344.21 158.424 344.474 158.7 344.802 158.884C345.13 159.06 345.49 159.148 345.882 159.148ZM358.598 153.304C359.11 153.304 359.566 153.412 359.966 153.628C360.366 153.836 360.682 154.152 360.914 154.576C361.146 155 361.262 155.516 361.262 156.124V160H360.182V156.28C360.182 155.624 360.018 155.124 359.69 154.78C359.37 154.428 358.934 154.252 358.382 154.252C357.814 154.252 357.362 154.436 357.026 154.804C356.69 155.164 356.522 155.688 356.522 156.376V160H355.442V156.28C355.442 155.624 355.278 155.124 354.95 154.78C354.63 154.428 354.194 154.252 353.642 154.252C353.074 154.252 352.622 154.436 352.286 154.804C351.95 155.164 351.782 155.688 351.782 156.376V160H350.69V153.424H351.782V154.372C351.998 154.028 352.286 153.764 352.646 153.58C353.014 153.396 353.418 153.304 353.858 153.304C354.41 153.304 354.898 153.428 355.322 153.676C355.746 153.924 356.062 154.288 356.27 154.768C356.454 154.304 356.758 153.944 357.182 153.688C357.606 153.432 358.078 153.304 358.598 153.304ZM363.617 152.356C363.409 152.356 363.233 152.284 363.089 152.14C362.945 151.996 362.873 151.82 362.873 151.612C362.873 151.404 362.945 151.228 363.089 151.084C363.233 150.94 363.409 150.868 363.617 150.868C363.817 150.868 363.985 150.94 364.121 151.084C364.265 151.228 364.337 151.404 364.337 151.612C364.337 151.82 364.265 151.996 364.121 152.14C363.985 152.284 363.817 152.356 363.617 152.356ZM364.145 153.424V160H363.053V153.424H364.145ZM369.21 153.304C370.01 153.304 370.658 153.548 371.154 154.036C371.65 154.516 371.898 155.212 371.898 156.124V160H370.818V156.28C370.818 155.624 370.654 155.124 370.326 154.78C369.998 154.428 369.55 154.252 368.982 154.252C368.406 154.252 367.946 154.432 367.602 154.792C367.266 155.152 367.098 155.676 367.098 156.364V160H366.006V153.424H367.098V154.36C367.314 154.024 367.606 153.764 367.974 153.58C368.35 153.396 368.762 153.304 369.21 153.304ZM376.394 153.316C376.962 153.316 377.458 153.44 377.882 153.688C378.314 153.936 378.634 154.248 378.842 154.624V153.424H379.946V160.144C379.946 160.744 379.818 161.276 379.562 161.74C379.306 162.212 378.938 162.58 378.458 162.844C377.986 163.108 377.434 163.24 376.802 163.24C375.938 163.24 375.218 163.036 374.642 162.628C374.066 162.22 373.726 161.664 373.622 160.96H374.702C374.822 161.36 375.07 161.68 375.446 161.92C375.822 162.168 376.274 162.292 376.802 162.292C377.402 162.292 377.89 162.104 378.266 161.728C378.65 161.352 378.842 160.824 378.842 160.144V158.764C378.626 159.148 378.306 159.468 377.882 159.724C377.458 159.98 376.962 160.108 376.394 160.108C375.81 160.108 375.278 159.964 374.798 159.676C374.326 159.388 373.954 158.984 373.682 158.464C373.41 157.944 373.274 157.352 373.274 156.688C373.274 156.016 373.41 155.428 373.682 154.924C373.954 154.412 374.326 154.016 374.798 153.736C375.278 153.456 375.81 153.316 376.394 153.316ZM378.842 156.7C378.842 156.204 378.742 155.772 378.542 155.404C378.342 155.036 378.07 154.756 377.726 154.564C377.39 154.364 377.018 154.264 376.61 154.264C376.202 154.264 375.83 154.36 375.494 154.552C375.158 154.744 374.89 155.024 374.69 155.392C374.49 155.76 374.39 156.192 374.39 156.688C374.39 157.192 374.49 157.632 374.69 158.008C374.89 158.376 375.158 158.66 375.494 158.86C375.83 159.052 376.202 159.148 376.61 159.148C377.018 159.148 377.39 159.052 377.726 158.86C378.07 158.66 378.342 158.376 378.542 158.008C378.742 157.632 378.842 157.196 378.842 156.7ZM387.702 153.316C388.27 153.316 388.766 153.44 389.19 153.688C389.622 153.936 389.942 154.248 390.15 154.624V153.424H391.254V160.144C391.254 160.744 391.126 161.276 390.87 161.74C390.614 162.212 390.246 162.58 389.766 162.844C389.294 163.108 388.742 163.24 388.11 163.24C387.246 163.24 386.526 163.036 385.95 162.628C385.374 162.22 385.034 161.664 384.93 160.96H386.01C386.13 161.36 386.378 161.68 386.754 161.92C387.13 162.168 387.582 162.292 388.11 162.292C388.71 162.292 389.198 162.104 389.574 161.728C389.958 161.352 390.15 160.824 390.15 160.144V158.764C389.934 159.148 389.614 159.468 389.19 159.724C388.766 159.98 388.27 160.108 387.702 160.108C387.118 160.108 386.586 159.964 386.106 159.676C385.634 159.388 385.262 158.984 384.99 158.464C384.718 157.944 384.582 157.352 384.582 156.688C384.582 156.016 384.718 155.428 384.99 154.924C385.262 154.412 385.634 154.016 386.106 153.736C386.586 153.456 387.118 153.316 387.702 153.316ZM390.15 156.7C390.15 156.204 390.05 155.772 389.85 155.404C389.65 155.036 389.378 154.756 389.034 154.564C388.698 154.364 388.326 154.264 387.918 154.264C387.51 154.264 387.138 154.36 386.802 154.552C386.466 154.744 386.198 155.024 385.998 155.392C385.798 155.76 385.698 156.192 385.698 156.688C385.698 157.192 385.798 157.632 385.998 158.008C386.198 158.376 386.466 158.66 386.802 158.86C387.138 159.052 387.51 159.148 387.918 159.148C388.326 159.148 388.698 159.052 389.034 158.86C389.378 158.66 389.65 158.376 389.85 158.008C390.05 157.632 390.15 157.196 390.15 156.7ZM395.968 160.108C395.352 160.108 394.792 159.968 394.288 159.688C393.792 159.408 393.4 159.012 393.112 158.5C392.832 157.98 392.692 157.38 392.692 156.7C392.692 156.028 392.836 155.436 393.124 154.924C393.42 154.404 393.82 154.008 394.324 153.736C394.828 153.456 395.392 153.316 396.016 153.316C396.64 153.316 397.204 153.456 397.708 153.736C398.212 154.008 398.608 154.4 398.896 154.912C399.192 155.424 399.34 156.02 399.34 156.7C399.34 157.38 399.188 157.98 398.884 158.5C398.588 159.012 398.184 159.408 397.672 159.688C397.16 159.968 396.592 160.108 395.968 160.108ZM395.968 159.148C396.36 159.148 396.728 159.056 397.072 158.872C397.416 158.688 397.692 158.412 397.9 158.044C398.116 157.676 398.224 157.228 398.224 156.7C398.224 156.172 398.12 155.724 397.912 155.356C397.704 154.988 397.432 154.716 397.096 154.54C396.76 154.356 396.396 154.264 396.004 154.264C395.604 154.264 395.236 154.356 394.9 154.54C394.572 154.716 394.308 154.988 394.108 155.356C393.908 155.724 393.808 156.172 393.808 156.7C393.808 157.236 393.904 157.688 394.096 158.056C394.296 158.424 394.56 158.7 394.888 158.884C395.216 159.06 395.576 159.148 395.968 159.148ZM403.644 160.108C403.028 160.108 402.468 159.968 401.964 159.688C401.468 159.408 401.076 159.012 400.788 158.5C400.508 157.98 400.368 157.38 400.368 156.7C400.368 156.028 400.512 155.436 400.8 154.924C401.096 154.404 401.496 154.008 402 153.736C402.504 153.456 403.068 153.316 403.692 153.316C404.316 153.316 404.88 153.456 405.384 153.736C405.888 154.008 406.284 154.4 406.572 154.912C406.868 155.424 407.016 156.02 407.016 156.7C407.016 157.38 406.864 157.98 406.56 158.5C406.264 159.012 405.86 159.408 405.348 159.688C404.836 159.968 404.268 160.108 403.644 160.108ZM403.644 159.148C404.036 159.148 404.404 159.056 404.748 158.872C405.092 158.688 405.368 158.412 405.576 158.044C405.792 157.676 405.9 157.228 405.9 156.7C405.9 156.172 405.796 155.724 405.588 155.356C405.38 154.988 405.108 154.716 404.772 154.54C404.436 154.356 404.072 154.264 403.68 154.264C403.28 154.264 402.912 154.356 402.576 154.54C402.248 154.716 401.984 154.988 401.784 155.356C401.584 155.724 401.484 156.172 401.484 156.7C401.484 157.236 401.58 157.688 401.772 158.056C401.972 158.424 402.236 158.7 402.564 158.884C402.892 159.06 403.252 159.148 403.644 159.148ZM408.043 156.688C408.043 156.016 408.179 155.428 408.451 154.924C408.723 154.412 409.095 154.016 409.567 153.736C410.047 153.456 410.583 153.316 411.175 153.316C411.687 153.316 412.163 153.436 412.603 153.676C413.043 153.908 413.379 154.216 413.611 154.6V151.12H414.715V160H413.611V158.764C413.395 159.156 413.075 159.48 412.651 159.736C412.227 159.984 411.731 160.108 411.163 160.108C410.579 160.108 410.047 159.964 409.567 159.676C409.095 159.388 408.723 158.984 408.451 158.464C408.179 157.944 408.043 157.352 408.043 156.688ZM413.611 156.7C413.611 156.204 413.511 155.772 413.311 155.404C413.111 155.036 412.839 154.756 412.495 154.564C412.159 154.364 411.787 154.264 411.379 154.264C410.971 154.264 410.599 154.36 410.263 154.552C409.927 154.744 409.659 155.024 409.459 155.392C409.259 155.76 409.159 156.192 409.159 156.688C409.159 157.192 409.259 157.632 409.459 158.008C409.659 158.376 409.927 158.66 410.263 158.86C410.599 159.052 410.971 159.148 411.379 159.148C411.787 159.148 412.159 159.052 412.495 158.86C412.839 158.66 413.111 158.376 413.311 158.008C413.511 157.632 413.611 157.196 413.611 156.7ZM419.352 156.688C419.352 156.016 419.488 155.428 419.76 154.924C420.032 154.412 420.404 154.016 420.876 153.736C421.356 153.456 421.888 153.316 422.472 153.316C423.048 153.316 423.548 153.44 423.972 153.688C424.396 153.936 424.712 154.248 424.92 154.624V153.424H426.024V160H424.92V158.776C424.704 159.16 424.38 159.48 423.948 159.736C423.524 159.984 423.028 160.108 422.46 160.108C421.876 160.108 421.348 159.964 420.876 159.676C420.404 159.388 420.032 158.984 419.76 158.464C419.488 157.944 419.352 157.352 419.352 156.688ZM424.92 156.7C424.92 156.204 424.82 155.772 424.62 155.404C424.42 155.036 424.148 154.756 423.804 154.564C423.468 154.364 423.096 154.264 422.688 154.264C422.28 154.264 421.908 154.36 421.572 154.552C421.236 154.744 420.968 155.024 420.768 155.392C420.568 155.76 420.468 156.192 420.468 156.688C420.468 157.192 420.568 157.632 420.768 158.008C420.968 158.376 421.236 158.66 421.572 158.86C421.908 159.052 422.28 159.148 422.688 159.148C423.096 159.148 423.468 159.052 423.804 158.86C424.148 158.66 424.42 158.376 424.62 158.008C424.82 157.632 424.92 157.196 424.92 156.7ZM429.201 154.324V158.2C429.201 158.52 429.269 158.748 429.405 158.884C429.541 159.012 429.777 159.076 430.113 159.076H430.917V160H429.933C429.325 160 428.869 159.86 428.565 159.58C428.261 159.3 428.109 158.84 428.109 158.2V154.324H427.257V153.424H428.109V151.768H429.201V153.424H430.917V154.324H429.201ZM440.384 158.14H436.736L436.064 160H434.912L437.936 151.684H439.196L442.208 160H441.056L440.384 158.14ZM440.072 157.252L438.56 153.028L437.048 157.252H440.072ZM444.618 151.636V160H443.526V151.636H444.618Z" fill="black"/>
<path d="M383.921 174.825C383.576 175.639 382.424 175.639 382.079 174.825L378.825 167.14C378.546 166.481 379.03 165.75 379.746 165.75L386.254 165.75C386.97 165.75 387.454 166.481 387.175 167.14L383.921 174.825Z" fill="#25FBAE"/>
<rect x="71.5" y="121.5" width="484" height="389" stroke="#D9D9D9"/>
<rect x="163" y="242.964" width="125" height="28" rx="14" transform="rotate(-10.5859 163 242.964)" fill="#292D30"/>
<path d="M184.422 248.763L185.394 253.965C185.531 254.696 185.809 255.206 186.229 255.494C186.657 255.78 187.19 255.863 187.826 255.744C188.456 255.627 188.914 255.358 189.202 254.938C189.497 254.517 189.577 253.94 189.44 253.209L188.468 248.007L189.541 247.806L190.511 252.996C190.639 253.681 190.61 254.284 190.423 254.808C190.234 255.323 189.925 255.739 189.496 256.055C189.075 256.37 188.573 256.582 187.991 256.69C187.409 256.799 186.861 256.783 186.346 256.644C185.84 256.502 185.406 256.225 185.044 255.813C184.688 255.391 184.446 254.838 184.319 254.154L183.349 248.964L184.422 248.763ZM195.177 255.372C194.681 255.464 194.222 255.465 193.798 255.373C193.372 255.274 193.017 255.096 192.733 254.84C192.448 254.576 192.257 254.249 192.16 253.86L193.269 253.653C193.36 253.97 193.559 254.205 193.865 254.36C194.178 254.513 194.555 254.548 194.995 254.466C195.404 254.389 195.71 254.239 195.912 254.014C196.114 253.789 196.189 253.539 196.138 253.263C196.085 252.98 195.92 252.795 195.643 252.709C195.365 252.614 194.95 252.549 194.399 252.514C193.895 252.478 193.479 252.426 193.148 252.357C192.825 252.279 192.529 252.135 192.262 251.925C192.001 251.705 191.832 251.386 191.754 250.97C191.692 250.639 191.734 250.318 191.879 250.006C192.024 249.694 192.263 249.426 192.595 249.201C192.926 248.968 193.324 248.809 193.787 248.722C194.503 248.588 195.115 248.661 195.623 248.94C196.131 249.22 196.459 249.671 196.608 250.294L195.535 250.495C195.448 250.161 195.26 249.916 194.97 249.758C194.688 249.599 194.339 249.559 193.922 249.637C193.537 249.709 193.245 249.849 193.048 250.056C192.851 250.264 192.777 250.502 192.827 250.769C192.867 250.981 192.967 251.146 193.127 251.262C193.293 251.37 193.487 251.447 193.708 251.496C193.935 251.535 194.243 251.571 194.631 251.604C195.119 251.643 195.52 251.698 195.834 251.77C196.147 251.833 196.429 251.968 196.679 252.173C196.937 252.377 197.106 252.675 197.188 253.067C197.254 253.421 197.215 253.758 197.071 254.078C196.928 254.398 196.69 254.674 196.359 254.907C196.035 255.13 195.641 255.285 195.177 255.372ZM198.182 246.924C197.977 246.962 197.791 246.924 197.623 246.809C197.455 246.694 197.352 246.534 197.313 246.329C197.275 246.125 197.314 245.939 197.429 245.771C197.544 245.603 197.704 245.5 197.908 245.461C198.105 245.425 198.283 245.464 198.443 245.581C198.611 245.696 198.714 245.856 198.753 246.06C198.791 246.265 198.752 246.451 198.637 246.619C198.53 246.786 198.378 246.887 198.182 246.924ZM198.897 247.877L200.105 254.341L199.031 254.541L197.823 248.077L198.897 247.877ZM203.854 246.828C204.64 246.681 205.322 246.802 205.899 247.191C206.475 247.571 206.846 248.21 207.014 249.107L207.726 252.917L206.664 253.115L205.981 249.458C205.86 248.813 205.607 248.352 205.222 248.074C204.835 247.788 204.362 247.698 203.804 247.802C203.237 247.908 202.818 248.169 202.546 248.586C202.282 249.002 202.213 249.548 202.34 250.224L203.008 253.798L201.934 253.999L200.726 247.535L201.8 247.334L201.972 248.254C202.122 247.884 202.361 247.575 202.689 247.327C203.025 247.077 203.413 246.911 203.854 246.828ZM210.917 245.52C211.476 245.416 211.986 245.447 212.448 245.613C212.919 245.777 213.29 246.025 213.564 246.356L213.343 245.177L214.429 244.974L215.663 251.58C215.773 252.169 215.745 252.716 215.579 253.219C215.414 253.73 215.12 254.159 214.697 254.507C214.281 254.853 213.763 255.084 213.142 255.201C212.292 255.359 211.547 255.291 210.906 254.996C210.265 254.701 209.828 254.216 209.597 253.544L210.658 253.345C210.85 253.716 211.152 253.985 211.566 254.152C211.981 254.327 212.448 254.366 212.967 254.269C213.557 254.158 214.002 253.884 214.303 253.445C214.611 253.005 214.703 252.451 214.578 251.782L214.325 250.426C214.183 250.843 213.927 251.216 213.557 251.546C213.187 251.876 212.723 252.092 212.165 252.197C211.591 252.304 211.042 252.26 210.517 252.065C210 251.869 209.56 251.54 209.197 251.079C208.834 250.618 208.592 250.061 208.47 249.408C208.346 248.748 208.372 248.145 208.547 247.599C208.72 247.046 209.013 246.588 209.426 246.226C209.846 245.863 210.343 245.628 210.917 245.52ZM213.945 248.397C213.854 247.91 213.677 247.503 213.412 247.178C213.148 246.853 212.829 246.628 212.456 246.502C212.089 246.368 211.705 246.338 211.304 246.413C210.903 246.488 210.555 246.65 210.26 246.901C209.965 247.151 209.753 247.476 209.624 247.874C209.495 248.273 209.476 248.716 209.567 249.203C209.659 249.699 209.839 250.113 210.104 250.446C210.368 250.771 210.684 251.001 211.051 251.135C211.417 251.262 211.8 251.288 212.201 251.213C212.602 251.139 212.95 250.976 213.245 250.725C213.547 250.466 213.762 250.136 213.891 249.738C214.018 249.332 214.036 248.885 213.945 248.397ZM219.425 246.47C219.275 245.667 219.322 244.914 219.564 244.21C219.805 243.497 220.203 242.902 220.757 242.424C221.318 241.945 221.98 241.634 222.743 241.491C223.639 241.324 224.462 241.394 225.212 241.701C225.961 242.009 226.563 242.531 227.018 243.268L225.732 243.508C225.412 243.056 225.01 242.736 224.528 242.549C224.053 242.361 223.517 242.323 222.919 242.435C222.345 242.542 221.855 242.772 221.449 243.125C221.043 243.477 220.756 243.926 220.589 244.47C220.421 245.006 220.399 245.604 220.522 246.265C220.644 246.917 220.881 247.467 221.233 247.914C221.584 248.353 222.012 248.664 222.518 248.846C223.024 249.028 223.564 249.065 224.138 248.958C224.736 248.846 225.223 248.621 225.599 248.282C225.982 247.934 226.241 247.491 226.376 246.953L227.662 246.713C227.502 247.556 227.129 248.257 226.541 248.814C225.952 249.364 225.209 249.722 224.313 249.89C223.55 250.032 222.821 249.986 222.126 249.749C221.437 249.504 220.852 249.096 220.371 248.527C219.89 247.957 219.575 247.272 219.425 246.47ZM231.686 241.627C232.173 241.536 232.633 241.56 233.066 241.698C233.498 241.829 233.862 242.083 234.16 242.458C234.466 242.832 234.675 243.318 234.787 243.916L235.499 247.726L234.437 247.924L233.754 244.268C233.633 243.623 233.38 243.162 232.995 242.884C232.608 242.598 232.135 242.507 231.577 242.612C231.01 242.717 230.591 242.979 230.319 243.396C230.055 243.811 229.986 244.357 230.113 245.034L230.781 248.608L229.707 248.808L228.076 240.08L229.149 239.879L229.745 243.064C229.895 242.694 230.138 242.384 230.474 242.134C230.818 241.883 231.222 241.713 231.686 241.627ZM236.243 244.218C236.119 243.557 236.145 242.954 236.32 242.409C236.493 241.855 236.786 241.398 237.199 241.036C237.619 240.673 238.116 240.437 238.69 240.33C239.257 240.224 239.771 240.254 240.233 240.42C240.696 240.586 241.063 240.834 241.337 241.166L241.117 239.986L242.202 239.783L243.41 246.248L242.325 246.45L242.1 245.247C241.958 245.664 241.698 246.038 241.321 246.369C240.949 246.691 240.485 246.904 239.926 247.008C239.352 247.116 238.807 247.071 238.29 246.875C237.773 246.678 237.333 246.35 236.97 245.888C236.607 245.427 236.365 244.87 236.243 244.218ZM241.718 243.207C241.627 242.719 241.45 242.313 241.185 241.988C240.921 241.663 240.602 241.437 240.229 241.312C239.862 241.177 239.478 241.147 239.077 241.222C238.676 241.297 238.328 241.46 238.033 241.71C237.738 241.961 237.526 242.285 237.397 242.684C237.268 243.082 237.249 243.525 237.34 244.013C237.433 244.508 237.612 244.922 237.877 245.255C238.142 245.58 238.457 245.81 238.824 245.945C239.19 246.072 239.573 246.098 239.974 246.023C240.375 245.948 240.723 245.785 241.018 245.535C241.32 245.275 241.535 244.946 241.664 244.547C241.791 244.141 241.809 243.694 241.718 243.207ZM245.49 240.084L246.202 243.894C246.261 244.209 246.37 244.421 246.529 244.529C246.686 244.63 246.93 244.65 247.26 244.588L248.05 244.44L248.22 245.349L247.253 245.529C246.655 245.641 246.181 245.587 245.831 245.368C245.481 245.148 245.247 244.724 245.129 244.095L244.417 240.285L243.579 240.442L243.414 239.557L244.252 239.4L243.947 237.773L245.021 237.572L245.325 239.2L247.012 238.885L247.177 239.769L245.49 240.084ZM254.657 238.103C254.34 237.666 253.94 237.358 253.459 237.179C252.977 236.992 252.449 236.953 251.875 237.06C251.3 237.167 250.806 237.398 250.392 237.752C249.985 238.097 249.694 238.542 249.519 239.087C249.35 239.623 249.327 240.214 249.447 240.859C249.568 241.504 249.803 242.046 250.154 242.485C250.512 242.922 250.945 243.232 251.451 243.414C251.963 243.587 252.506 243.62 253.08 243.512C253.883 243.363 254.498 242.999 254.928 242.423C255.357 241.846 255.538 241.14 255.472 240.306L252.193 240.919L252.03 240.046L256.453 239.22L256.608 240.045C256.671 240.734 256.575 241.394 256.319 242.028C256.061 242.654 255.669 243.187 255.141 243.628C254.611 244.061 253.985 244.344 253.261 244.48C252.498 244.622 251.769 244.575 251.074 244.339C250.377 244.095 249.785 243.689 249.296 243.121C248.815 242.552 248.5 241.866 248.35 241.064C248.2 240.262 248.247 239.508 248.489 238.804C248.738 238.09 249.144 237.497 249.707 237.026C250.269 236.546 250.931 236.235 251.694 236.093C252.567 235.93 253.378 236.002 254.127 236.31C254.884 236.616 255.489 237.133 255.943 237.862L254.657 238.103ZM263.111 236.547C263.239 237.231 263.11 237.845 262.723 238.39C262.343 238.925 261.673 239.282 260.714 239.461L259.133 239.757L259.775 243.189L258.701 243.39L257.165 235.168L259.819 234.672C260.747 234.499 261.493 234.591 262.056 234.95C262.627 235.307 262.979 235.839 263.111 236.547ZM260.549 238.576C261.146 238.465 261.562 238.253 261.797 237.94C262.032 237.628 262.104 237.232 262.014 236.752C261.825 235.738 261.148 235.339 259.984 235.557L258.404 235.852L258.968 238.872L260.549 238.576ZM269.056 232.946L269.219 233.819L266.978 234.237L268.352 241.586L267.278 241.787L265.905 234.438L263.652 234.859L263.489 233.986L269.056 232.946Z" fill="white"/>
<path d="M231.372 263.579C231.183 264.442 230.049 264.654 229.561 263.917L224.951 256.961C224.556 256.364 224.897 255.557 225.601 255.425L231.998 254.23C232.702 254.098 233.312 254.727 233.158 255.427L231.372 263.579Z" fill="#292D30"/>
<defs>
<linearGradient id="paint0_linear_36_131" x1="313" y1="231" x2="313" y2="542" gradientUnits="userSpaceOnUse">
<stop stop-color="#2D3033"/>
<stop offset="0.608596" stop-color="#238FDA" stop-opacity="0.469999"/>
<stop offset="1" stop-color="white" stop-opacity="0"/>
</linearGradient>
<linearGradient id="paint1_linear_36_131" x1="313.5" y1="169" x2="313.5" y2="509" gradientUnits="userSpaceOnUse">
<stop stop-color="#34B3F1"/>
<stop offset="1" stop-color="#34B3F1" stop-opacity="0"/>
</linearGradient>
</defs>
</svg>
