<svg width="24" height="24" viewBox="0 0 24 24" fill="none" xmlns="http://www.w3.org/2000/svg">
<path d="M12 2.00001C10.4692 1.99902 8.95864 2.34946 7.58467 3.02435C6.2107 3.69924 5.01001 4.68054 4.07512 5.89266C3.14022 7.10478 2.49608 8.51535 2.19232 10.0157C1.88857 11.516 1.93331 13.0661 2.3231 14.5464C2.71289 16.0267 3.43732 17.3978 4.44058 18.5539C5.44383 19.7101 6.69913 20.6205 8.10973 21.215C9.52034 21.8095 11.0486 22.0723 12.5768 21.983C14.1049 21.8937 15.5922 21.4548 16.924 20.7L20.684 21.953C20.7862 21.9853 20.8928 22.0011 21 22C21.1583 21.9999 21.3144 21.9622 21.4554 21.8899C21.5963 21.8177 21.7181 21.713 21.8106 21.5845C21.9032 21.456 21.9639 21.3074 21.9878 21.1508C22.0117 20.9943 21.998 20.8343 21.948 20.684L20.7 16.924C21.5643 15.4035 22.0143 13.6827 22.0048 11.9337C21.9952 10.1846 21.5266 8.4688 20.6458 6.95778C19.7649 5.44676 18.5027 4.19353 16.9854 3.32348C15.4682 2.45343 13.749 1.99705 12 2.00001ZM18.653 17.121L19.419 19.421L17.119 18.655C16.9787 18.6072 16.8294 18.5913 16.6822 18.6086C16.5349 18.6259 16.3934 18.6759 16.268 18.755C14.6001 19.8105 12.6016 20.214 10.6549 19.8881C8.70822 19.5622 6.95007 18.5299 5.71693 16.9887C4.48379 15.4475 3.86229 13.5057 3.97137 11.5349C4.08044 9.56417 4.91243 7.70283 6.30812 6.30715C7.7038 4.91147 9.56514 4.07947 11.5359 3.9704C13.5067 3.86132 15.4485 4.48283 16.9896 5.71596C18.5308 6.9491 19.5631 8.70725 19.889 10.654C20.2149 12.6007 19.8115 14.5992 18.756 16.267C18.6764 16.3927 18.6258 16.5346 18.608 16.6824C18.5901 16.8301 18.6055 16.98 18.653 17.121ZM17 9.50001C17 9.76523 16.8946 10.0196 16.7071 10.2071C16.5196 10.3947 16.2652 10.5 16 10.5H7.99998C7.73477 10.5 7.48041 10.3947 7.29288 10.2071C7.10534 10.0196 6.99998 9.76523 6.99998 9.50001C6.99998 9.2348 7.10534 8.98044 7.29288 8.79291C7.48041 8.60537 7.73477 8.50001 7.99998 8.50001H16C16.2652 8.50001 16.5196 8.60537 16.7071 8.79291C16.8946 8.98044 17 9.2348 17 9.50001ZM13 14.5C13 14.7652 12.8946 15.0196 12.7071 15.2071C12.5196 15.3947 12.2652 15.5 12 15.5H7.99998C7.73477 15.5 7.48041 15.3947 7.29288 15.2071C7.10534 15.0196 6.99998 14.7652 6.99998 14.5C6.99998 14.2348 7.10534 13.9804 7.29288 13.7929C7.48041 13.6054 7.73477 13.5 7.99998 13.5H12C12.2652 13.5 12.5196 13.6054 12.7071 13.7929C12.8946 13.9804 13 14.2348 13 14.5Z" fill="#C6842B"/>
</svg>
