<svg width="24" height="24" viewBox="0 0 24 24" fill="none" xmlns="http://www.w3.org/2000/svg">
<path d="M22 2H2C1.73478 2 1.48043 2.10536 1.29289 2.29289C1.10536 2.48043 1 2.73478 1 3V21C1 21.2652 1.10536 21.5196 1.29289 21.7071C1.48043 21.8946 1.73478 22 2 22H22C22.2652 22 22.5196 21.8946 22.7071 21.7071C22.8946 21.5196 23 21.2652 23 21V3C23 2.73478 22.8946 2.48043 22.7071 2.29289C22.5196 2.10536 22.2652 2 22 2ZM21 20H3V4H21V20ZM5 16C5 15.7348 5.10536 15.4804 5.29289 15.2929C5.48043 15.1054 5.73478 15 6 15H6.2C7.90798 15.0045 9.5999 14.6703 11.1779 14.0167C12.7558 13.363 14.1885 12.403 15.393 11.192L15.586 11H14C13.7348 11 13.4804 10.8946 13.2929 10.7071C13.1054 10.5196 13 10.2652 13 10C13 9.73478 13.1054 9.48043 13.2929 9.29289C13.4804 9.10536 13.7348 9 14 9H18C18.1311 9.00063 18.2609 9.02678 18.382 9.077C18.5647 9.15252 18.7209 9.28052 18.8309 9.4448C18.9409 9.60909 18.9998 9.80229 19 10V14C19 14.2652 18.8946 14.5196 18.7071 14.7071C18.5196 14.8946 18.2652 15 18 15C17.7348 15 17.4804 14.8946 17.2929 14.7071C17.1054 14.5196 17 14.2652 17 14V12.414L16.808 12.606C15.4183 14.0036 13.7651 15.1116 11.9443 15.8659C10.1234 16.6201 8.17092 17.0056 6.2 17H6C5.73478 17 5.48043 16.8946 5.29289 16.7071C5.10536 16.5196 5 16.2652 5 16ZM5.293 10.293L6.086 9.5L5.293 8.707C5.19749 8.61475 5.12131 8.50441 5.0689 8.3824C5.01649 8.2604 4.9889 8.12918 4.98775 7.9964C4.9866 7.86362 5.0119 7.73194 5.06218 7.60905C5.11246 7.48615 5.18671 7.3745 5.2806 7.2806C5.3745 7.18671 5.48615 7.11246 5.60905 7.06218C5.73194 7.0119 5.86362 6.9866 5.9964 6.98775C6.12918 6.9889 6.2604 7.01649 6.3824 7.0689C6.50441 7.12131 6.61475 7.19749 6.707 7.293L7.5 8.086L8.293 7.293C8.38525 7.19749 8.49559 7.12131 8.6176 7.0689C8.7396 7.01649 8.87082 6.9889 9.0036 6.98775C9.13638 6.9866 9.26806 7.0119 9.39095 7.06218C9.51385 7.11246 9.6255 7.18671 9.71939 7.2806C9.81329 7.3745 9.88754 7.48615 9.93782 7.60905C9.9881 7.73194 10.0134 7.86362 10.0123 7.9964C10.0111 8.12918 9.98351 8.2604 9.9311 8.3824C9.87869 8.50441 9.80251 8.61475 9.707 8.707L8.914 9.5L9.707 10.293C9.80251 10.3852 9.87869 10.4956 9.9311 10.6176C9.98351 10.7396 10.0111 10.8708 10.0123 11.0036C10.0134 11.1364 9.9881 11.2681 9.93782 11.391C9.88754 11.5139 9.81329 11.6255 9.71939 11.7194C9.6255 11.8133 9.51385 11.8875 9.39095 11.9378C9.26806 11.9881 9.13638 12.0134 9.0036 12.0123C8.87082 12.0111 8.7396 11.9835 8.6176 11.9311C8.49559 11.8787 8.38525 11.8025 8.293 11.707L7.5 10.914L6.707 11.707C6.5184 11.8892 6.2658 11.99 6.0036 11.9877C5.7414 11.9854 5.49059 11.8802 5.30518 11.6948C5.11977 11.5094 5.0146 11.2586 5.01233 10.9964C5.01005 10.7342 5.11084 10.4816 5.293 10.293Z" fill="#17C5B4"/>
</svg>
