<svg width="816" height="378" viewBox="0 0 816 378" fill="none" xmlns="http://www.w3.org/2000/svg">
<rect x="25" y="30" width="30" height="25" rx="9" transform="rotate(90 25 30)" fill="#F6F7F7"/>
<rect x="92" y="123" width="30" height="92" rx="9" transform="rotate(90 92 123)" fill="#B3D9FF"/>
<rect x="133" y="216" width="30" height="133" rx="11" transform="rotate(90 133 216)" fill="#6DB3F9"/>
<rect x="207" y="216" width="30" height="93" transform="rotate(90 207 216)" fill="#FBC8FF"/>
<rect x="260" y="216" width="30" height="69" transform="rotate(90 260 216)" fill="#9EF9C1"/>
<rect x="318" y="216" width="30" height="64" transform="rotate(90 318 216)" fill="#F4DD8A"/>
<rect x="389" y="216" width="30" height="71" transform="rotate(90 389 216)" fill="#82E9E0"/>
<rect x="458" y="216" width="30" height="71" transform="rotate(90 458 216)" fill="#FFB1CA"/>
<rect x="521" y="216" width="30" height="65" transform="rotate(90 521 216)" fill="#F9FCA1"/>
<rect x="586" y="216" width="30" height="65" transform="rotate(90 586 216)" fill="#FF8081"/>
<rect x="651" y="216" width="30" height="65" transform="rotate(90 651 216)" fill="#FF9770"/>
<path d="M699 216C707.284 216 714 222.716 714 231V231C714 239.284 707.284 246 699 246L649 246L649 216L699 216Z" fill="#8ECBFF"/>
<path d="M6.66 17L4.17 12.725H2.52V17H1.155V6.545H4.53C5.32 6.545 5.985 6.68 6.525 6.95C7.075 7.22 7.485 7.585 7.755 8.045C8.025 8.505 8.16 9.03 8.16 9.62C8.16 10.34 7.95 10.975 7.53 11.525C7.12 12.075 6.5 12.44 5.67 12.62L8.295 17H6.66ZM2.52 11.63H4.53C5.27 11.63 5.825 11.45 6.195 11.09C6.565 10.72 6.75 10.23 6.75 9.62C6.75 9 6.565 8.52 6.195 8.18C5.835 7.84 5.28 7.67 4.53 7.67H2.52V11.63ZM17.781 12.575C17.781 12.835 17.766 13.11 17.736 13.4H11.166C11.216 14.21 11.491 14.845 11.991 15.305C12.501 15.755 13.116 15.98 13.836 15.98C14.426 15.98 14.916 15.845 15.306 15.575C15.706 15.295 15.986 14.925 16.146 14.465H17.616C17.396 15.255 16.956 15.9 16.296 16.4C15.636 16.89 14.816 17.135 13.836 17.135C13.056 17.135 12.356 16.96 11.736 16.61C11.126 16.26 10.646 15.765 10.296 15.125C9.94598 14.475 9.77098 13.725 9.77098 12.875C9.77098 12.025 9.94098 11.28 10.281 10.64C10.621 10 11.096 9.51 11.706 9.17C12.326 8.82 13.036 8.645 13.836 8.645C14.616 8.645 15.306 8.815 15.906 9.155C16.506 9.495 16.966 9.965 17.286 10.565C17.616 11.155 17.781 11.825 17.781 12.575ZM16.371 12.29C16.371 11.77 16.256 11.325 16.026 10.955C15.796 10.575 15.481 10.29 15.081 10.1C14.691 9.9 14.256 9.8 13.776 9.8C13.086 9.8 12.496 10.02 12.006 10.46C11.526 10.9 11.251 11.51 11.181 12.29H16.371ZM22.9727 8.645C23.6827 8.645 24.3027 8.8 24.8327 9.11C25.3727 9.42 25.7727 9.81 26.0327 10.28V8.78H27.4127V17.18C27.4127 17.93 27.2527 18.595 26.9327 19.175C26.6127 19.765 26.1527 20.225 25.5527 20.555C24.9627 20.885 24.2727 21.05 23.4827 21.05C22.4027 21.05 21.5027 20.795 20.7827 20.285C20.0627 19.775 19.6377 19.08 19.5077 18.2H20.8577C21.0077 18.7 21.3177 19.1 21.7877 19.4C22.2577 19.71 22.8227 19.865 23.4827 19.865C24.2327 19.865 24.8427 19.63 25.3127 19.16C25.7927 18.69 26.0327 18.03 26.0327 17.18V15.455C25.7627 15.935 25.3627 16.335 24.8327 16.655C24.3027 16.975 23.6827 17.135 22.9727 17.135C22.2427 17.135 21.5777 16.955 20.9777 16.595C20.3877 16.235 19.9227 15.73 19.5827 15.08C19.2427 14.43 19.0727 13.69 19.0727 12.86C19.0727 12.02 19.2427 11.285 19.5827 10.655C19.9227 10.015 20.3877 9.52 20.9777 9.17C21.5777 8.82 22.2427 8.645 22.9727 8.645ZM26.0327 12.875C26.0327 12.255 25.9077 11.715 25.6577 11.255C25.4077 10.795 25.0677 10.445 24.6377 10.205C24.2177 9.955 23.7527 9.83 23.2427 9.83C22.7327 9.83 22.2677 9.95 21.8477 10.19C21.4277 10.43 21.0927 10.78 20.8427 11.24C20.5927 11.7 20.4677 12.24 20.4677 12.86C20.4677 13.49 20.5927 14.04 20.8427 14.51C21.0927 14.97 21.4277 15.325 21.8477 15.575C22.2677 15.815 22.7327 15.935 23.2427 15.935C23.7527 15.935 24.2177 15.815 24.6377 15.575C25.0677 15.325 25.4077 14.97 25.6577 14.51C25.9077 14.04 26.0327 13.495 26.0327 12.875ZM37.0095 8.78V17H35.6445V15.785C35.3845 16.205 35.0195 16.535 34.5495 16.775C34.0895 17.005 33.5795 17.12 33.0195 17.12C32.3795 17.12 31.8045 16.99 31.2945 16.73C30.7845 16.46 30.3795 16.06 30.0795 15.53C29.7895 15 29.6445 14.355 29.6445 13.595V8.78H30.9945V13.415C30.9945 14.225 31.1995 14.85 31.6095 15.29C32.0195 15.72 32.5795 15.935 33.2895 15.935C34.0195 15.935 34.5945 15.71 35.0145 15.26C35.4345 14.81 35.6445 14.155 35.6445 13.295V8.78H37.0095ZM40.6792 5.9V17H39.3142V5.9H40.6792ZM42.4956 12.86C42.4956 12.02 42.6656 11.285 43.0056 10.655C43.3456 10.015 43.8106 9.52 44.4006 9.17C45.0006 8.82 45.6656 8.645 46.3956 8.645C47.1156 8.645 47.7406 8.8 48.2706 9.11C48.8006 9.42 49.1956 9.81 49.4556 10.28V8.78H50.8356V17H49.4556V15.47C49.1856 15.95 48.7806 16.35 48.2406 16.67C47.7106 16.98 47.0906 17.135 46.3806 17.135C45.6506 17.135 44.9906 16.955 44.4006 16.595C43.8106 16.235 43.3456 15.73 43.0056 15.08C42.6656 14.43 42.4956 13.69 42.4956 12.86ZM49.4556 12.875C49.4556 12.255 49.3306 11.715 49.0806 11.255C48.8306 10.795 48.4906 10.445 48.0606 10.205C47.6406 9.955 47.1756 9.83 46.6656 9.83C46.1556 9.83 45.6906 9.95 45.2706 10.19C44.8506 10.43 44.5156 10.78 44.2656 11.24C44.0156 11.7 43.8906 12.24 43.8906 12.86C43.8906 13.49 44.0156 14.04 44.2656 14.51C44.5156 14.97 44.8506 15.325 45.2706 15.575C45.6906 15.815 46.1556 15.935 46.6656 15.935C47.1756 15.935 47.6406 15.815 48.0606 15.575C48.4906 15.325 48.8306 14.97 49.0806 14.51C49.3306 14.04 49.4556 13.495 49.4556 12.875ZM54.5073 10.115C54.7473 9.645 55.0873 9.28 55.5273 9.02C55.9773 8.76 56.5223 8.63 57.1623 8.63V10.04H56.8023C55.2723 10.04 54.5073 10.87 54.5073 12.53V17H53.1423V8.78H54.5073V10.115ZM62.227 11.765C62.227 10.745 62.457 9.83 62.917 9.02C63.377 8.2 64.002 7.56 64.792 7.1C65.592 6.64 66.477 6.41 67.447 6.41C68.587 6.41 69.582 6.685 70.432 7.235C71.282 7.785 71.902 8.565 72.292 9.575H70.657C70.367 8.945 69.947 8.46 69.397 8.12C68.857 7.78 68.207 7.61 67.447 7.61C66.717 7.61 66.062 7.78 65.482 8.12C64.902 8.46 64.447 8.945 64.117 9.575C63.787 10.195 63.622 10.925 63.622 11.765C63.622 12.595 63.787 13.325 64.117 13.955C64.447 14.575 64.902 15.055 65.482 15.395C66.062 15.735 66.717 15.905 67.447 15.905C68.207 15.905 68.857 15.74 69.397 15.41C69.947 15.07 70.367 14.585 70.657 13.955H72.292C71.902 14.955 71.282 15.73 70.432 16.28C69.582 16.82 68.587 17.09 67.447 17.09C66.477 17.09 65.592 16.865 64.792 16.415C64.002 15.955 63.377 15.32 62.917 14.51C62.457 13.7 62.227 12.785 62.227 11.765ZM78.4039 8.63C79.0239 8.63 79.5839 8.765 80.0839 9.035C80.5839 9.295 80.9739 9.69 81.2539 10.22C81.5439 10.75 81.6889 11.395 81.6889 12.155V17H80.3389V12.35C80.3389 11.53 80.1339 10.905 79.7239 10.475C79.3139 10.035 78.7539 9.815 78.0439 9.815C77.3239 9.815 76.7489 10.04 76.3189 10.49C75.8989 10.94 75.6889 11.595 75.6889 12.455V17H74.3239V5.9H75.6889V9.95C75.9589 9.53 76.3289 9.205 76.7989 8.975C77.2789 8.745 77.8139 8.63 78.4039 8.63ZM83.4087 12.86C83.4087 12.02 83.5787 11.285 83.9187 10.655C84.2587 10.015 84.7237 9.52 85.3137 9.17C85.9137 8.82 86.5787 8.645 87.3087 8.645C88.0287 8.645 88.6537 8.8 89.1837 9.11C89.7137 9.42 90.1087 9.81 90.3687 10.28V8.78H91.7487V17H90.3687V15.47C90.0987 15.95 89.6937 16.35 89.1537 16.67C88.6237 16.98 88.0037 17.135 87.2937 17.135C86.5637 17.135 85.9037 16.955 85.3137 16.595C84.7237 16.235 84.2587 15.73 83.9187 15.08C83.5787 14.43 83.4087 13.69 83.4087 12.86ZM90.3687 12.875C90.3687 12.255 90.2437 11.715 89.9937 11.255C89.7437 10.795 89.4037 10.445 88.9737 10.205C88.5537 9.955 88.0887 9.83 87.5787 9.83C87.0687 9.83 86.6037 9.95 86.1837 10.19C85.7637 10.43 85.4287 10.78 85.1787 11.24C84.9287 11.7 84.8037 12.24 84.8037 12.86C84.8037 13.49 84.9287 14.04 85.1787 14.51C85.4287 14.97 85.7637 15.325 86.1837 15.575C86.6037 15.815 87.0687 15.935 87.5787 15.935C88.0887 15.935 88.5537 15.815 88.9737 15.575C89.4037 15.325 89.7437 14.97 89.9937 14.51C90.2437 14.04 90.3687 13.495 90.3687 12.875ZM95.7204 9.905V14.75C95.7204 15.15 95.8054 15.435 95.9754 15.605C96.1454 15.765 96.4404 15.845 96.8604 15.845H97.8654V17H96.6354C95.8754 17 95.3054 16.825 94.9254 16.475C94.5454 16.125 94.3554 15.55 94.3554 14.75V9.905H93.2904V8.78H94.3554V6.71H95.7204V8.78H97.8654V9.905H95.7204ZM107.439 9.575C107.149 8.965 106.729 8.495 106.179 8.165C105.629 7.825 104.989 7.655 104.259 7.655C103.529 7.655 102.869 7.825 102.279 8.165C101.699 8.495 101.239 8.975 100.899 9.605C100.569 10.225 100.404 10.945 100.404 11.765C100.404 12.585 100.569 13.305 100.899 13.925C101.239 14.545 101.699 15.025 102.279 15.365C102.869 15.695 103.529 15.86 104.259 15.86C105.279 15.86 106.119 15.555 106.779 14.945C107.439 14.335 107.824 13.51 107.934 12.47H103.764V11.36H109.389V12.41C109.309 13.27 109.039 14.06 108.579 14.78C108.119 15.49 107.514 16.055 106.764 16.475C106.014 16.885 105.179 17.09 104.259 17.09C103.289 17.09 102.404 16.865 101.604 16.415C100.804 15.955 100.169 15.32 99.6993 14.51C99.2393 13.7 99.0093 12.785 99.0093 11.765C99.0093 10.745 99.2393 9.83 99.6993 9.02C100.169 8.2 100.804 7.565 101.604 7.115C102.404 6.655 103.289 6.425 104.259 6.425C105.369 6.425 106.349 6.7 107.199 7.25C108.059 7.8 108.684 8.575 109.074 9.575H107.439ZM118.184 9.605C118.184 10.475 117.884 11.2 117.284 11.78C116.694 12.35 115.789 12.635 114.569 12.635H112.559V17H111.194V6.545H114.569C115.749 6.545 116.644 6.83 117.254 7.4C117.874 7.97 118.184 8.705 118.184 9.605ZM114.569 11.51C115.329 11.51 115.889 11.345 116.249 11.015C116.609 10.685 116.789 10.215 116.789 9.605C116.789 8.315 116.049 7.67 114.569 7.67H112.559V11.51H114.569ZM126.316 6.545V7.655H123.466V17H122.101V7.655H119.236V6.545H126.316Z" fill="#838689"/>
<path d="M14.76 98.62V109H13.395V101.26L9.945 109H8.985L5.52 101.245V109H4.155V98.62H5.625L9.465 107.2L13.305 98.62H14.76ZM20.6599 109.135C19.8899 109.135 19.1899 108.96 18.5599 108.61C17.9399 108.26 17.4499 107.765 17.0899 107.125C16.7399 106.475 16.5649 105.725 16.5649 104.875C16.5649 104.035 16.7449 103.295 17.1049 102.655C17.4749 102.005 17.9749 101.51 18.6049 101.17C19.2349 100.82 19.9399 100.645 20.7199 100.645C21.4999 100.645 22.2049 100.82 22.8349 101.17C23.4649 101.51 23.9599 102 24.3199 102.64C24.6899 103.28 24.8749 104.025 24.8749 104.875C24.8749 105.725 24.6849 106.475 24.3049 107.125C23.9349 107.765 23.4299 108.26 22.7899 108.61C22.1499 108.96 21.4399 109.135 20.6599 109.135ZM20.6599 107.935C21.1499 107.935 21.6099 107.82 22.0399 107.59C22.4699 107.36 22.8149 107.015 23.0749 106.555C23.3449 106.095 23.4799 105.535 23.4799 104.875C23.4799 104.215 23.3499 103.655 23.0899 103.195C22.8299 102.735 22.4899 102.395 22.0699 102.175C21.6499 101.945 21.1949 101.83 20.7049 101.83C20.2049 101.83 19.7449 101.945 19.3249 102.175C18.9149 102.395 18.5849 102.735 18.3349 103.195C18.0849 103.655 17.9599 104.215 17.9599 104.875C17.9599 105.545 18.0799 106.11 18.3199 106.57C18.5699 107.03 18.8999 107.375 19.3099 107.605C19.7199 107.825 20.1699 107.935 20.6599 107.935ZM29.5796 109.135C28.9496 109.135 28.3846 109.03 27.8846 108.82C27.3846 108.6 26.9896 108.3 26.6996 107.92C26.4096 107.53 26.2496 107.085 26.2196 106.585H27.6296C27.6696 106.995 27.8596 107.33 28.1996 107.59C28.5496 107.85 29.0046 107.98 29.5646 107.98C30.0846 107.98 30.4946 107.865 30.7946 107.635C31.0946 107.405 31.2446 107.115 31.2446 106.765C31.2446 106.405 31.0846 106.14 30.7646 105.97C30.4446 105.79 29.9496 105.615 29.2796 105.445C28.6696 105.285 28.1696 105.125 27.7796 104.965C27.3996 104.795 27.0696 104.55 26.7896 104.23C26.5196 103.9 26.3846 103.47 26.3846 102.94C26.3846 102.52 26.5096 102.135 26.7596 101.785C27.0096 101.435 27.3646 101.16 27.8246 100.96C28.2846 100.75 28.8096 100.645 29.3996 100.645C30.3096 100.645 31.0446 100.875 31.6046 101.335C32.1646 101.795 32.4646 102.425 32.5046 103.225H31.1396C31.1096 102.795 30.9346 102.45 30.6146 102.19C30.3046 101.93 29.8846 101.8 29.3546 101.8C28.8646 101.8 28.4746 101.905 28.1846 102.115C27.8946 102.325 27.7496 102.6 27.7496 102.94C27.7496 103.21 27.8346 103.435 28.0046 103.615C28.1846 103.785 28.4046 103.925 28.6646 104.035C28.9346 104.135 29.3046 104.25 29.7746 104.38C30.3646 104.54 30.8446 104.7 31.2146 104.86C31.5846 105.01 31.8996 105.24 32.1596 105.55C32.4296 105.86 32.5696 106.265 32.5796 106.765C32.5796 107.215 32.4546 107.62 32.2046 107.98C31.9546 108.34 31.5996 108.625 31.1396 108.835C30.6896 109.035 30.1696 109.135 29.5796 109.135ZM36.1716 101.905V106.75C36.1716 107.15 36.2566 107.435 36.4266 107.605C36.5966 107.765 36.8916 107.845 37.3116 107.845H38.3166V109H37.0866C36.3266 109 35.7566 108.825 35.3766 108.475C34.9966 108.125 34.8066 107.55 34.8066 106.75V101.905H33.7416V100.78H34.8066V98.71H36.1716V100.78H38.3166V101.905H36.1716ZM45.3345 102.295C45.6045 101.825 46.0045 101.435 46.5345 101.125C47.0745 100.805 47.6995 100.645 48.4095 100.645C49.1395 100.645 49.7995 100.82 50.3895 101.17C50.9895 101.52 51.4595 102.015 51.7995 102.655C52.1395 103.285 52.3095 104.02 52.3095 104.86C52.3095 105.69 52.1395 106.43 51.7995 107.08C51.4595 107.73 50.9895 108.235 50.3895 108.595C49.7995 108.955 49.1395 109.135 48.4095 109.135C47.7095 109.135 47.0895 108.98 46.5495 108.67C46.0195 108.35 45.6145 107.955 45.3345 107.485V112.9H43.9695V100.78H45.3345V102.295ZM50.9145 104.86C50.9145 104.24 50.7895 103.7 50.5395 103.24C50.2895 102.78 49.9495 102.43 49.5195 102.19C49.0995 101.95 48.6345 101.83 48.1245 101.83C47.6245 101.83 47.1595 101.955 46.7295 102.205C46.3095 102.445 45.9695 102.8 45.7095 103.27C45.4595 103.73 45.3345 104.265 45.3345 104.875C45.3345 105.495 45.4595 106.04 45.7095 106.51C45.9695 106.97 46.3095 107.325 46.7295 107.575C47.1595 107.815 47.6245 107.935 48.1245 107.935C48.6345 107.935 49.0995 107.815 49.5195 107.575C49.9495 107.325 50.2895 106.97 50.5395 106.51C50.7895 106.04 50.9145 105.49 50.9145 104.86ZM55.4712 102.115C55.7112 101.645 56.0512 101.28 56.4912 101.02C56.9412 100.76 57.4862 100.63 58.1262 100.63V102.04H57.7662C56.2362 102.04 55.4712 102.87 55.4712 104.53V109H54.1062V100.78H55.4712V102.115ZM63.2869 109.135C62.5169 109.135 61.8169 108.96 61.1869 108.61C60.5669 108.26 60.0769 107.765 59.7169 107.125C59.3669 106.475 59.1919 105.725 59.1919 104.875C59.1919 104.035 59.3719 103.295 59.7319 102.655C60.1019 102.005 60.6019 101.51 61.2319 101.17C61.8619 100.82 62.5669 100.645 63.3469 100.645C64.1269 100.645 64.8319 100.82 65.4619 101.17C66.0919 101.51 66.5869 102 66.9469 102.64C67.3169 103.28 67.5019 104.025 67.5019 104.875C67.5019 105.725 67.3119 106.475 66.9319 107.125C66.5619 107.765 66.0569 108.26 65.4169 108.61C64.7769 108.96 64.0669 109.135 63.2869 109.135ZM63.2869 107.935C63.7769 107.935 64.2369 107.82 64.6669 107.59C65.0969 107.36 65.4419 107.015 65.7019 106.555C65.9719 106.095 66.1069 105.535 66.1069 104.875C66.1069 104.215 65.9769 103.655 65.7169 103.195C65.4569 102.735 65.1169 102.395 64.6969 102.175C64.2769 101.945 63.8219 101.83 63.3319 101.83C62.8319 101.83 62.3719 101.945 61.9519 102.175C61.5419 102.395 61.2119 102.735 60.9619 103.195C60.7119 103.655 60.5869 104.215 60.5869 104.875C60.5869 105.545 60.7069 106.11 60.9469 106.57C61.1969 107.03 61.5269 107.375 61.9369 107.605C62.3469 107.825 62.7969 107.935 63.2869 107.935ZM79.1816 100.63C79.8216 100.63 80.3916 100.765 80.8916 101.035C81.3916 101.295 81.7866 101.69 82.0766 102.22C82.3666 102.75 82.5116 103.395 82.5116 104.155V109H81.1616V104.35C81.1616 103.53 80.9566 102.905 80.5466 102.475C80.1466 102.035 79.6016 101.815 78.9116 101.815C78.2016 101.815 77.6366 102.045 77.2166 102.505C76.7966 102.955 76.5866 103.61 76.5866 104.47V109H75.2366V104.35C75.2366 103.53 75.0316 102.905 74.6216 102.475C74.2216 102.035 73.6766 101.815 72.9866 101.815C72.2766 101.815 71.7116 102.045 71.2916 102.505C70.8716 102.955 70.6616 103.61 70.6616 104.47V109H69.2966V100.78H70.6616V101.965C70.9316 101.535 71.2916 101.205 71.7416 100.975C72.2016 100.745 72.7066 100.63 73.2566 100.63C73.9466 100.63 74.5566 100.785 75.0866 101.095C75.6166 101.405 76.0116 101.86 76.2716 102.46C76.5016 101.88 76.8816 101.43 77.4116 101.11C77.9416 100.79 78.5316 100.63 79.1816 100.63ZM86.1157 102.295C86.3857 101.825 86.7857 101.435 87.3157 101.125C87.8557 100.805 88.4807 100.645 89.1907 100.645C89.9207 100.645 90.5807 100.82 91.1707 101.17C91.7707 101.52 92.2407 102.015 92.5807 102.655C92.9207 103.285 93.0907 104.02 93.0907 104.86C93.0907 105.69 92.9207 106.43 92.5807 107.08C92.2407 107.73 91.7707 108.235 91.1707 108.595C90.5807 108.955 89.9207 109.135 89.1907 109.135C88.4907 109.135 87.8707 108.98 87.3307 108.67C86.8007 108.35 86.3957 107.955 86.1157 107.485V112.9H84.7507V100.78H86.1157V102.295ZM91.6957 104.86C91.6957 104.24 91.5707 103.7 91.3207 103.24C91.0707 102.78 90.7307 102.43 90.3007 102.19C89.8807 101.95 89.4157 101.83 88.9057 101.83C88.4057 101.83 87.9407 101.955 87.5107 102.205C87.0907 102.445 86.7507 102.8 86.4907 103.27C86.2407 103.73 86.1157 104.265 86.1157 104.875C86.1157 105.495 86.2407 106.04 86.4907 106.51C86.7507 106.97 87.0907 107.325 87.5107 107.575C87.9407 107.815 88.4057 107.935 88.9057 107.935C89.4157 107.935 89.8807 107.815 90.3007 107.575C90.7307 107.325 91.0707 106.97 91.3207 106.51C91.5707 106.04 91.6957 105.49 91.6957 104.86ZM96.5524 101.905V106.75C96.5524 107.15 96.6374 107.435 96.8074 107.605C96.9774 107.765 97.2724 107.845 97.6924 107.845H98.6974V109H97.4674C96.7074 109 96.1374 108.825 95.7574 108.475C95.3774 108.125 95.1874 107.55 95.1874 106.75V101.905H94.1224V100.78H95.1874V98.71H96.5524V100.78H98.6974V101.905H96.5524ZM105.715 102.295C105.985 101.825 106.385 101.435 106.915 101.125C107.455 100.805 108.08 100.645 108.79 100.645C109.52 100.645 110.18 100.82 110.77 101.17C111.37 101.52 111.84 102.015 112.18 102.655C112.52 103.285 112.69 104.02 112.69 104.86C112.69 105.69 112.52 106.43 112.18 107.08C111.84 107.73 111.37 108.235 110.77 108.595C110.18 108.955 109.52 109.135 108.79 109.135C108.09 109.135 107.47 108.98 106.93 108.67C106.4 108.35 105.995 107.955 105.715 107.485V112.9H104.35V100.78H105.715V102.295ZM111.295 104.86C111.295 104.24 111.17 103.7 110.92 103.24C110.67 102.78 110.33 102.43 109.9 102.19C109.48 101.95 109.015 101.83 108.505 101.83C108.005 101.83 107.54 101.955 107.11 102.205C106.69 102.445 106.35 102.8 106.09 103.27C105.84 103.73 105.715 104.265 105.715 104.875C105.715 105.495 105.84 106.04 106.09 106.51C106.35 106.97 106.69 107.325 107.11 107.575C107.54 107.815 108.005 107.935 108.505 107.935C109.015 107.935 109.48 107.815 109.9 107.575C110.33 107.325 110.67 106.97 110.92 106.51C111.17 106.04 111.295 105.49 111.295 104.86ZM113.977 104.86C113.977 104.02 114.147 103.285 114.487 102.655C114.827 102.015 115.292 101.52 115.882 101.17C116.482 100.82 117.147 100.645 117.877 100.645C118.597 100.645 119.222 100.8 119.752 101.11C120.282 101.42 120.677 101.81 120.937 102.28V100.78H122.317V109H120.937V107.47C120.667 107.95 120.262 108.35 119.722 108.67C119.192 108.98 118.572 109.135 117.862 109.135C117.132 109.135 116.472 108.955 115.882 108.595C115.292 108.235 114.827 107.73 114.487 107.08C114.147 106.43 113.977 105.69 113.977 104.86ZM120.937 104.875C120.937 104.255 120.812 103.715 120.562 103.255C120.312 102.795 119.972 102.445 119.542 102.205C119.122 101.955 118.657 101.83 118.147 101.83C117.637 101.83 117.172 101.95 116.752 102.19C116.332 102.43 115.997 102.78 115.747 103.24C115.497 103.7 115.372 104.24 115.372 104.86C115.372 105.49 115.497 106.04 115.747 106.51C115.997 106.97 116.332 107.325 116.752 107.575C117.172 107.815 117.637 107.935 118.147 107.935C118.657 107.935 119.122 107.815 119.542 107.575C119.972 107.325 120.312 106.97 120.562 106.51C120.812 106.04 120.937 105.495 120.937 104.875ZM124.114 104.875C124.114 104.025 124.284 103.285 124.624 102.655C124.964 102.015 125.434 101.52 126.034 101.17C126.644 100.82 127.339 100.645 128.119 100.645C129.129 100.645 129.959 100.89 130.609 101.38C131.269 101.87 131.704 102.55 131.914 103.42H130.444C130.304 102.92 130.029 102.525 129.619 102.235C129.219 101.945 128.719 101.8 128.119 101.8C127.339 101.8 126.709 102.07 126.229 102.61C125.749 103.14 125.509 103.895 125.509 104.875C125.509 105.865 125.749 106.63 126.229 107.17C126.709 107.71 127.339 107.98 128.119 107.98C128.719 107.98 129.219 107.84 129.619 107.56C130.019 107.28 130.294 106.88 130.444 106.36H131.914C131.694 107.2 131.254 107.875 130.594 108.385C129.934 108.885 129.109 109.135 128.119 109.135C127.339 109.135 126.644 108.96 126.034 108.61C125.434 108.26 124.964 107.765 124.624 107.125C124.284 106.485 124.114 105.735 124.114 104.875ZM138.325 109L135.1 105.37V109H133.735V97.9H135.1V104.425L138.265 100.78H140.17L136.3 104.875L140.185 109H138.325ZM144.365 109.135C143.735 109.135 143.17 109.03 142.67 108.82C142.17 108.6 141.775 108.3 141.485 107.92C141.195 107.53 141.035 107.085 141.005 106.585H142.415C142.455 106.995 142.645 107.33 142.985 107.59C143.335 107.85 143.79 107.98 144.35 107.98C144.87 107.98 145.28 107.865 145.58 107.635C145.88 107.405 146.03 107.115 146.03 106.765C146.03 106.405 145.87 106.14 145.55 105.97C145.23 105.79 144.735 105.615 144.065 105.445C143.455 105.285 142.955 105.125 142.565 104.965C142.185 104.795 141.855 104.55 141.575 104.23C141.305 103.9 141.17 103.47 141.17 102.94C141.17 102.52 141.295 102.135 141.545 101.785C141.795 101.435 142.15 101.16 142.61 100.96C143.07 100.75 143.595 100.645 144.185 100.645C145.095 100.645 145.83 100.875 146.39 101.335C146.95 101.795 147.25 102.425 147.29 103.225H145.925C145.895 102.795 145.72 102.45 145.4 102.19C145.09 101.93 144.67 101.8 144.14 101.8C143.65 101.8 143.26 101.905 142.97 102.115C142.68 102.325 142.535 102.6 142.535 102.94C142.535 103.21 142.62 103.435 142.79 103.615C142.97 103.785 143.19 103.925 143.45 104.035C143.72 104.135 144.09 104.25 144.56 104.38C145.15 104.54 145.63 104.7 146 104.86C146.37 105.01 146.685 105.24 146.945 105.55C147.215 105.86 147.355 106.265 147.365 106.765C147.365 107.215 147.24 107.62 146.99 107.98C146.74 108.34 146.385 108.625 145.925 108.835C145.475 109.035 144.955 109.135 144.365 109.135Z" fill="white"/>
<path d="M113.605 140.22L109.435 150H108.055L112.285 140.355H106.495V139.185H113.605V140.22ZM115.118 144.465C115.118 142.745 115.398 141.405 115.958 140.445C116.518 139.475 117.498 138.99 118.898 138.99C120.288 138.99 121.263 139.475 121.823 140.445C122.383 141.405 122.663 142.745 122.663 144.465C122.663 146.215 122.383 147.575 121.823 148.545C121.263 149.515 120.288 150 118.898 150C117.498 150 116.518 149.515 115.958 148.545C115.398 147.575 115.118 146.215 115.118 144.465ZM121.313 144.465C121.313 143.595 121.253 142.86 121.133 142.26C121.023 141.65 120.788 141.16 120.428 140.79C120.078 140.42 119.568 140.235 118.898 140.235C118.218 140.235 117.698 140.42 117.338 140.79C116.988 141.16 116.753 141.65 116.633 142.26C116.523 142.86 116.468 143.595 116.468 144.465C116.468 145.365 116.523 146.12 116.633 146.73C116.753 147.34 116.988 147.83 117.338 148.2C117.698 148.57 118.218 148.755 118.898 148.755C119.568 148.755 120.078 148.57 120.428 148.2C120.788 147.83 121.023 147.34 121.133 146.73C121.253 146.12 121.313 145.365 121.313 144.465ZM124.537 144.465C124.537 142.745 124.817 141.405 125.377 140.445C125.937 139.475 126.917 138.99 128.317 138.99C129.707 138.99 130.682 139.475 131.242 140.445C131.802 141.405 132.082 142.745 132.082 144.465C132.082 146.215 131.802 147.575 131.242 148.545C130.682 149.515 129.707 150 128.317 150C126.917 150 125.937 149.515 125.377 148.545C124.817 147.575 124.537 146.215 124.537 144.465ZM130.732 144.465C130.732 143.595 130.672 142.86 130.552 142.26C130.442 141.65 130.207 141.16 129.847 140.79C129.497 140.42 128.987 140.235 128.317 140.235C127.637 140.235 127.117 140.42 126.757 140.79C126.407 141.16 126.172 141.65 126.052 142.26C125.942 142.86 125.887 143.595 125.887 144.465C125.887 145.365 125.942 146.12 126.052 146.73C126.172 147.34 126.407 147.83 126.757 148.2C127.117 148.57 127.637 148.755 128.317 148.755C128.987 148.755 129.497 148.57 129.847 148.2C130.207 147.83 130.442 147.34 130.552 146.73C130.672 146.12 130.732 145.365 130.732 144.465Z" fill="#848484"/>
<path d="M665.405 266.435V264.05H669.56V275H666.89V266.435H665.405ZM671.315 269.375C671.315 267.655 671.645 266.3 672.305 265.31C672.975 264.32 674.05 263.825 675.53 263.825C677.01 263.825 678.08 264.32 678.74 265.31C679.41 266.3 679.745 267.655 679.745 269.375C679.745 271.115 679.41 272.48 678.74 273.47C678.08 274.46 677.01 274.955 675.53 274.955C674.05 274.955 672.975 274.46 672.305 273.47C671.645 272.48 671.315 271.115 671.315 269.375ZM677.225 269.375C677.225 268.365 677.115 267.59 676.895 267.05C676.675 266.5 676.22 266.225 675.53 266.225C674.84 266.225 674.385 266.5 674.165 267.05C673.945 267.59 673.835 268.365 673.835 269.375C673.835 270.055 673.875 270.62 673.955 271.07C674.035 271.51 674.195 271.87 674.435 272.15C674.685 272.42 675.05 272.555 675.53 272.555C676.01 272.555 676.37 272.42 676.61 272.15C676.86 271.87 677.025 271.51 677.105 271.07C677.185 270.62 677.225 270.055 677.225 269.375ZM684.115 272.63L682.45 276.935H680.815L681.685 272.63H684.115ZM685.406 269.375C685.406 267.655 685.736 266.3 686.396 265.31C687.066 264.32 688.141 263.825 689.621 263.825C691.101 263.825 692.171 264.32 692.831 265.31C693.501 266.3 693.836 267.655 693.836 269.375C693.836 271.115 693.501 272.48 692.831 273.47C692.171 274.46 691.101 274.955 689.621 274.955C688.141 274.955 687.066 274.46 686.396 273.47C685.736 272.48 685.406 271.115 685.406 269.375ZM691.316 269.375C691.316 268.365 691.206 267.59 690.986 267.05C690.766 266.5 690.311 266.225 689.621 266.225C688.931 266.225 688.476 266.5 688.256 267.05C688.036 267.59 687.926 268.365 687.926 269.375C687.926 270.055 687.966 270.62 688.046 271.07C688.126 271.51 688.286 271.87 688.526 272.15C688.776 272.42 689.141 272.555 689.621 272.555C690.101 272.555 690.461 272.42 690.701 272.15C690.951 271.87 691.116 271.51 691.196 271.07C691.276 270.62 691.316 270.055 691.316 269.375ZM695.192 269.375C695.192 267.655 695.522 266.3 696.182 265.31C696.852 264.32 697.927 263.825 699.407 263.825C700.887 263.825 701.957 264.32 702.617 265.31C703.287 266.3 703.622 267.655 703.622 269.375C703.622 271.115 703.287 272.48 702.617 273.47C701.957 274.46 700.887 274.955 699.407 274.955C697.927 274.955 696.852 274.46 696.182 273.47C695.522 272.48 695.192 271.115 695.192 269.375ZM701.102 269.375C701.102 268.365 700.992 267.59 700.772 267.05C700.552 266.5 700.097 266.225 699.407 266.225C698.717 266.225 698.262 266.5 698.042 267.05C697.822 267.59 697.712 268.365 697.712 269.375C697.712 270.055 697.752 270.62 697.832 271.07C697.912 271.51 698.072 271.87 698.312 272.15C698.562 272.42 698.927 272.555 699.407 272.555C699.887 272.555 700.247 272.42 700.487 272.15C700.737 271.87 700.902 271.51 700.982 271.07C701.062 270.62 701.102 270.055 701.102 269.375ZM704.977 269.375C704.977 267.655 705.307 266.3 705.967 265.31C706.637 264.32 707.712 263.825 709.192 263.825C710.672 263.825 711.742 264.32 712.402 265.31C713.072 266.3 713.407 267.655 713.407 269.375C713.407 271.115 713.072 272.48 712.402 273.47C711.742 274.46 710.672 274.955 709.192 274.955C707.712 274.955 706.637 274.46 705.967 273.47C705.307 272.48 704.977 271.115 704.977 269.375ZM710.887 269.375C710.887 268.365 710.777 267.59 710.557 267.05C710.337 266.5 709.882 266.225 709.192 266.225C708.502 266.225 708.047 266.5 707.827 267.05C707.607 267.59 707.497 268.365 707.497 269.375C707.497 270.055 707.537 270.62 707.617 271.07C707.697 271.51 707.857 271.87 708.097 272.15C708.347 272.42 708.712 272.555 709.192 272.555C709.672 272.555 710.032 272.42 710.272 272.15C710.522 271.87 710.687 271.51 710.767 271.07C710.847 270.62 710.887 270.055 710.887 269.375Z" fill="white"/>
<path d="M36.91 52.36C36.35 52.14 35.92 51.82 35.62 51.4C35.32 50.98 35.17 50.47 35.17 49.87C35.17 49.33 35.305 48.845 35.575 48.415C35.845 47.975 36.245 47.63 36.775 47.38C37.315 47.12 37.965 46.99 38.725 46.99C39.485 46.99 40.13 47.12 40.66 47.38C41.2 47.63 41.605 47.975 41.875 48.415C42.155 48.845 42.295 49.33 42.295 49.87C42.295 50.45 42.14 50.96 41.83 51.4C41.52 51.83 41.095 52.15 40.555 52.36C41.175 52.55 41.665 52.885 42.025 53.365C42.395 53.835 42.58 54.405 42.58 55.075C42.58 55.725 42.42 56.295 42.1 56.785C41.78 57.265 41.325 57.64 40.735 57.91C40.155 58.17 39.485 58.3 38.725 58.3C37.965 58.3 37.295 58.17 36.715 57.91C36.145 57.64 35.7 57.265 35.38 56.785C35.06 56.295 34.9 55.725 34.9 55.075C34.9 54.405 35.08 53.83 35.44 53.35C35.8 52.87 36.29 52.54 36.91 52.36ZM40.975 50.035C40.975 49.425 40.775 48.955 40.375 48.625C39.975 48.295 39.425 48.13 38.725 48.13C38.035 48.13 37.49 48.295 37.09 48.625C36.69 48.955 36.49 49.43 36.49 50.05C36.49 50.61 36.695 51.06 37.105 51.4C37.525 51.74 38.065 51.91 38.725 51.91C39.395 51.91 39.935 51.74 40.345 51.4C40.765 51.05 40.975 50.595 40.975 50.035ZM38.725 52.96C37.985 52.96 37.38 53.135 36.91 53.485C36.44 53.825 36.205 54.34 36.205 55.03C36.205 55.67 36.43 56.185 36.88 56.575C37.34 56.965 37.955 57.16 38.725 57.16C39.495 57.16 40.105 56.965 40.555 56.575C41.005 56.185 41.23 55.67 41.23 55.03C41.23 54.36 41 53.85 40.54 53.5C40.08 53.14 39.475 52.96 38.725 52.96ZM44.3929 52.465C44.3929 50.745 44.6729 49.405 45.2329 48.445C45.7929 47.475 46.7729 46.99 48.1729 46.99C49.5629 46.99 50.5379 47.475 51.0979 48.445C51.6579 49.405 51.9379 50.745 51.9379 52.465C51.9379 54.215 51.6579 55.575 51.0979 56.545C50.5379 57.515 49.5629 58 48.1729 58C46.7729 58 45.7929 57.515 45.2329 56.545C44.6729 55.575 44.3929 54.215 44.3929 52.465ZM50.5879 52.465C50.5879 51.595 50.5279 50.86 50.4079 50.26C50.2979 49.65 50.0629 49.16 49.7029 48.79C49.3529 48.42 48.8429 48.235 48.1729 48.235C47.4929 48.235 46.9729 48.42 46.6129 48.79C46.2629 49.16 46.0279 49.65 45.9079 50.26C45.7979 50.86 45.7429 51.595 45.7429 52.465C45.7429 53.365 45.7979 54.12 45.9079 54.73C46.0279 55.34 46.2629 55.83 46.6129 56.2C46.9729 56.57 47.4929 56.755 48.1729 56.755C48.8429 56.755 49.3529 56.57 49.7029 56.2C50.0629 55.83 50.2979 55.34 50.4079 54.73C50.5279 54.12 50.5879 53.365 50.5879 52.465Z" fill="#848484"/>
<path d="M7.74049 202.105C6.97049 202.105 6.28049 201.98 5.67049 201.73C5.06049 201.48 4.57049 201.11 4.20049 200.62C3.84049 200.13 3.65049 199.54 3.63049 198.85H6.36049C6.40049 199.24 6.53549 199.54 6.76549 199.75C6.99549 199.95 7.29549 200.05 7.66549 200.05C8.04549 200.05 8.34549 199.965 8.56549 199.795C8.78549 199.615 8.89549 199.37 8.89549 199.06C8.89549 198.8 8.80549 198.585 8.62549 198.415C8.45549 198.245 8.24049 198.105 7.98049 197.995C7.73049 197.885 7.37049 197.76 6.90049 197.62C6.22049 197.41 5.66549 197.2 5.23549 196.99C4.80549 196.78 4.43549 196.47 4.12549 196.06C3.81549 195.65 3.66049 195.115 3.66049 194.455C3.66049 193.475 4.01549 192.71 4.72549 192.16C5.43549 191.6 6.36049 191.32 7.50049 191.32C8.66049 191.32 9.59549 191.6 10.3055 192.16C11.0155 192.71 11.3955 193.48 11.4455 194.47H8.67049C8.65049 194.13 8.52549 193.865 8.29549 193.675C8.06549 193.475 7.77049 193.375 7.41049 193.375C7.10049 193.375 6.85049 193.46 6.66049 193.63C6.47049 193.79 6.37549 194.025 6.37549 194.335C6.37549 194.675 6.53549 194.94 6.85549 195.13C7.17549 195.32 7.67549 195.525 8.35549 195.745C9.03549 195.975 9.58549 196.195 10.0055 196.405C10.4355 196.615 10.8055 196.92 11.1155 197.32C11.4255 197.72 11.5805 198.235 11.5805 198.865C11.5805 199.465 11.4255 200.01 11.1155 200.5C10.8155 200.99 10.3755 201.38 9.79549 201.67C9.21549 201.96 8.53049 202.105 7.74049 202.105ZM14.449 192.76C13.999 192.76 13.629 192.63 13.339 192.37C13.059 192.1 12.919 191.77 12.919 191.38C12.919 190.98 13.059 190.65 13.339 190.39C13.629 190.12 13.999 189.985 14.449 189.985C14.889 189.985 15.249 190.12 15.529 190.39C15.819 190.65 15.964 190.98 15.964 191.38C15.964 191.77 15.819 192.1 15.529 192.37C15.249 192.63 14.889 192.76 14.449 192.76ZM15.724 193.63V202H13.159V193.63H15.724ZM22.6828 193.54C23.6628 193.54 24.4428 193.86 25.0228 194.5C25.6128 195.13 25.9078 196 25.9078 197.11V202H23.3578V197.455C23.3578 196.895 23.2128 196.46 22.9228 196.15C22.6328 195.84 22.2428 195.685 21.7528 195.685C21.2628 195.685 20.8728 195.84 20.5828 196.15C20.2928 196.46 20.1478 196.895 20.1478 197.455V202H17.5828V193.63H20.1478V194.74C20.4078 194.37 20.7578 194.08 21.1978 193.87C21.6378 193.65 22.1328 193.54 22.6828 193.54ZM32.3553 199.825V202H31.0503C30.1203 202 29.3953 201.775 28.8753 201.325C28.3553 200.865 28.0953 200.12 28.0953 199.09V195.76H27.0753V193.63H28.0953V191.59H30.6603V193.63H32.3403V195.76H30.6603V199.12C30.6603 199.37 30.7203 199.55 30.8403 199.66C30.9603 199.77 31.1603 199.825 31.4403 199.825H32.3553ZM36.349 195.025C36.649 194.565 37.024 194.205 37.474 193.945C37.924 193.675 38.424 193.54 38.974 193.54V196.255H38.269C37.629 196.255 37.149 196.395 36.829 196.675C36.509 196.945 36.349 197.425 36.349 198.115V202H33.784V193.63H36.349V195.025ZM39.69 197.8C39.69 196.94 39.85 196.185 40.17 195.535C40.5 194.885 40.945 194.385 41.505 194.035C42.065 193.685 42.69 193.51 43.38 193.51C43.97 193.51 44.485 193.63 44.925 193.87C45.375 194.11 45.72 194.425 45.96 194.815V193.63H48.525V202H45.96V200.815C45.71 201.205 45.36 201.52 44.91 201.76C44.47 202 43.955 202.12 43.365 202.12C42.685 202.12 42.065 201.945 41.505 201.595C40.945 201.235 40.5 200.73 40.17 200.08C39.85 199.42 39.69 198.66 39.69 197.8ZM45.96 197.815C45.96 197.175 45.78 196.67 45.42 196.3C45.07 195.93 44.64 195.745 44.13 195.745C43.62 195.745 43.185 195.93 42.825 196.3C42.475 196.66 42.3 197.16 42.3 197.8C42.3 198.44 42.475 198.95 42.825 199.33C43.185 199.7 43.62 199.885 44.13 199.885C44.64 199.885 45.07 199.7 45.42 199.33C45.78 198.96 45.96 198.455 45.96 197.815ZM61.5844 194.86C61.5844 195.47 61.4444 196.03 61.1644 196.54C60.8844 197.04 60.4544 197.445 59.8744 197.755C59.2944 198.065 58.5744 198.22 57.7144 198.22H56.1244V202H53.5594V191.47H57.7144C58.5544 191.47 59.2644 191.615 59.8444 191.905C60.4244 192.195 60.8594 192.595 61.1494 193.105C61.4394 193.615 61.5844 194.2 61.5844 194.86ZM57.5194 196.18C58.0094 196.18 58.3744 196.065 58.6144 195.835C58.8544 195.605 58.9744 195.28 58.9744 194.86C58.9744 194.44 58.8544 194.115 58.6144 193.885C58.3744 193.655 58.0094 193.54 57.5194 193.54H56.1244V196.18H57.5194ZM65.4847 190.9V202H62.9197V190.9H65.4847ZM75.6086 193.63V202H73.0436V200.86C72.7836 201.23 72.4286 201.53 71.9786 201.76C71.5386 201.98 71.0486 202.09 70.5086 202.09C69.8686 202.09 69.3036 201.95 68.8136 201.67C68.3236 201.38 67.9436 200.965 67.6736 200.425C67.4036 199.885 67.2686 199.25 67.2686 198.52V193.63H69.8186V198.175C69.8186 198.735 69.9636 199.17 70.2536 199.48C70.5436 199.79 70.9336 199.945 71.4236 199.945C71.9236 199.945 72.3186 199.79 72.6086 199.48C72.8986 199.17 73.0436 198.735 73.0436 198.175V193.63H75.6086ZM80.856 202.12C80.126 202.12 79.476 201.995 78.906 201.745C78.336 201.495 77.886 201.155 77.556 200.725C77.226 200.285 77.041 199.795 77.001 199.255H79.536C79.566 199.545 79.701 199.78 79.941 199.96C80.181 200.14 80.476 200.23 80.826 200.23C81.146 200.23 81.391 200.17 81.561 200.05C81.741 199.92 81.831 199.755 81.831 199.555C81.831 199.315 81.706 199.14 81.456 199.03C81.206 198.91 80.801 198.78 80.241 198.64C79.641 198.5 79.141 198.355 78.741 198.205C78.341 198.045 77.996 197.8 77.706 197.47C77.416 197.13 77.271 196.675 77.271 196.105C77.271 195.625 77.401 195.19 77.661 194.8C77.931 194.4 78.321 194.085 78.831 193.855C79.351 193.625 79.966 193.51 80.676 193.51C81.726 193.51 82.551 193.77 83.151 194.29C83.761 194.81 84.111 195.5 84.201 196.36H81.831C81.791 196.07 81.661 195.84 81.441 195.67C81.231 195.5 80.951 195.415 80.601 195.415C80.301 195.415 80.071 195.475 79.911 195.595C79.751 195.705 79.671 195.86 79.671 196.06C79.671 196.3 79.796 196.48 80.046 196.6C80.306 196.72 80.706 196.84 81.246 196.96C81.866 197.12 82.371 197.28 82.761 197.44C83.151 197.59 83.491 197.84 83.781 198.19C84.081 198.53 84.236 198.99 84.246 199.57C84.246 200.06 84.106 200.5 83.826 200.89C83.556 201.27 83.161 201.57 82.641 201.79C82.131 202.01 81.536 202.12 80.856 202.12Z" fill="white"/>
<rect x="3" y="320" width="21.6566" height="16" rx="4" fill="#6DB3F9"/>
<rect x="441" y="359" width="21.6566" height="16" rx="4" fill="#FBC8FF"/>
<path d="M43.3154 323.312L43.3154 333H42.0414L42.0414 325.776L38.8214 333H37.9254L34.6914 325.762L34.6914 333H33.4174L33.4174 323.312H34.7894L38.3734 331.32L41.9574 323.312H43.3154ZM44.9999 329.136C44.9999 328.352 45.1586 327.666 45.4759 327.078C45.7933 326.481 46.2273 326.019 46.7779 325.692C47.3379 325.365 47.9586 325.202 48.6399 325.202C49.3119 325.202 49.8953 325.347 50.3899 325.636C50.8846 325.925 51.2533 326.289 51.4959 326.728L51.4959 325.328H52.7839L52.7839 333H51.4959L51.4959 331.572C51.2439 332.02 50.8659 332.393 50.3619 332.692C49.8673 332.981 49.2886 333.126 48.6259 333.126C47.9446 333.126 47.3286 332.958 46.7779 332.622C46.2273 332.286 45.7933 331.815 45.4759 331.208C45.1586 330.601 44.9999 329.911 44.9999 329.136ZM51.4959 329.15C51.4959 328.571 51.3793 328.067 51.1459 327.638C50.9126 327.209 50.5953 326.882 50.1939 326.658C49.8019 326.425 49.3679 326.308 48.8919 326.308C48.4159 326.308 47.9819 326.42 47.5899 326.644C47.1979 326.868 46.8853 327.195 46.6519 327.624C46.4186 328.053 46.3019 328.557 46.3019 329.136C46.3019 329.724 46.4186 330.237 46.6519 330.676C46.8853 331.105 47.1979 331.437 47.5899 331.67C47.9819 331.894 48.4159 332.006 48.8919 332.006C49.3679 332.006 49.8019 331.894 50.1939 331.67C50.5953 331.437 50.9126 331.105 51.1459 330.676C51.3793 330.237 51.4959 329.729 51.4959 329.15ZM56.2109 326.574C56.4349 326.135 56.7522 325.795 57.1629 325.552C57.5829 325.309 58.0916 325.188 58.6889 325.188L58.6889 326.504H58.3529C56.9249 326.504 56.2109 327.279 56.2109 328.828L56.2109 333L54.9369 333L54.9369 325.328L56.2109 325.328L56.2109 326.574ZM64.4435 333L61.4335 329.612L61.4335 333H60.1595L60.1595 322.64H61.4335L61.4335 328.73L64.3875 325.328H66.1655L62.5535 329.15L66.1795 333H64.4435ZM74.3646 328.87C74.3646 329.113 74.3506 329.369 74.3226 329.64H68.1906C68.2373 330.396 68.494 330.989 68.9606 331.418C69.4366 331.838 70.0106 332.048 70.6826 332.048C71.2333 332.048 71.6906 331.922 72.0546 331.67C72.428 331.409 72.6893 331.063 72.8386 330.634H74.2106C74.0053 331.371 73.5946 331.973 72.9786 332.44C72.3626 332.897 71.5973 333.126 70.6826 333.126C69.9546 333.126 69.3013 332.963 68.7226 332.636C68.1533 332.309 67.7053 331.847 67.3786 331.25C67.052 330.643 66.8886 329.943 66.8886 329.15C66.8886 328.357 67.0473 327.661 67.3646 327.064C67.682 326.467 68.1253 326.009 68.6946 325.692C69.2733 325.365 69.936 325.202 70.6826 325.202C71.4106 325.202 72.0546 325.361 72.6146 325.678C73.1746 325.995 73.604 326.434 73.9026 326.994C74.2106 327.545 74.3646 328.17 74.3646 328.87ZM73.0486 328.604C73.0486 328.119 72.9413 327.703 72.7266 327.358C72.512 327.003 72.218 326.737 71.8446 326.56C71.4806 326.373 71.0746 326.28 70.6266 326.28C69.9826 326.28 69.432 326.485 68.9746 326.896C68.5266 327.307 68.27 327.876 68.2046 328.604H73.0486ZM77.6003 326.378V330.9C77.6003 331.273 77.6796 331.539 77.8383 331.698C77.9969 331.847 78.2723 331.922 78.6643 331.922H79.6023V333H78.4543C77.7449 333 77.2129 332.837 76.8583 332.51C76.5036 332.183 76.3263 331.647 76.3263 330.9V326.378H75.3323L75.3323 325.328H76.3263V323.396H77.6003V325.328H79.6023L79.6023 326.378H77.6003ZM81.8039 324.082C81.5612 324.082 81.3559 323.998 81.1879 323.83C81.0199 323.662 80.9359 323.457 80.9359 323.214C80.9359 322.971 81.0199 322.766 81.1879 322.598C81.3559 322.43 81.5612 322.346 81.8039 322.346C82.0372 322.346 82.2332 322.43 82.3919 322.598C82.5599 322.766 82.6439 322.971 82.6439 323.214C82.6439 323.457 82.5599 323.662 82.3919 323.83C82.2332 323.998 82.0372 324.082 81.8039 324.082ZM82.4199 325.328L82.4199 333H81.1459L81.1459 325.328H82.4199ZM88.3292 325.188C89.2625 325.188 90.0185 325.473 90.5972 326.042C91.1759 326.602 91.4652 327.414 91.4652 328.478V333H90.2052V328.66C90.2052 327.895 90.0139 327.311 89.6312 326.91C89.2485 326.499 88.7259 326.294 88.0632 326.294C87.3912 326.294 86.8545 326.504 86.4532 326.924C86.0612 327.344 85.8652 327.955 85.8652 328.758V333H84.5912L84.5912 325.328H85.8652L85.8652 326.42C86.1172 326.028 86.4579 325.725 86.8872 325.51C87.3259 325.295 87.8065 325.188 88.3292 325.188ZM96.7103 325.202C97.3729 325.202 97.9516 325.347 98.4463 325.636C98.9503 325.925 99.3236 326.289 99.5663 326.728V325.328H100.854L100.854 333.168C100.854 333.868 100.705 334.489 100.406 335.03C100.108 335.581 99.6783 336.01 99.1183 336.318C98.5676 336.626 97.9236 336.78 97.1863 336.78C96.1783 336.78 95.3383 336.542 94.6663 336.066C93.9943 335.59 93.5976 334.941 93.4763 334.12H94.7363C94.8763 334.587 95.1656 334.96 95.6043 335.24C96.0429 335.529 96.5703 335.674 97.1863 335.674C97.8863 335.674 98.4556 335.455 98.8943 335.016C99.3423 334.577 99.5663 333.961 99.5663 333.168V331.558C99.3143 332.006 98.9409 332.379 98.4463 332.678C97.9516 332.977 97.3729 333.126 96.7103 333.126C96.0289 333.126 95.4083 332.958 94.8483 332.622C94.2976 332.286 93.8636 331.815 93.5463 331.208C93.2289 330.601 93.0703 329.911 93.0703 329.136C93.0703 328.352 93.2289 327.666 93.5463 327.078C93.8636 326.481 94.2976 326.019 94.8483 325.692C95.4083 325.365 96.0289 325.202 96.7103 325.202ZM99.5663 329.15C99.5663 328.571 99.4496 328.067 99.2163 327.638C98.9829 327.209 98.6656 326.882 98.2643 326.658C97.8723 326.425 97.4383 326.308 96.9623 326.308C96.4863 326.308 96.0523 326.42 95.6603 326.644C95.2683 326.868 94.9556 327.195 94.7223 327.624C94.4889 328.053 94.3723 328.557 94.3723 329.136C94.3723 329.724 94.4889 330.237 94.7223 330.676C94.9556 331.105 95.2683 331.437 95.6603 331.67C96.0523 331.894 96.4863 332.006 96.9623 332.006C97.4383 332.006 97.8723 331.894 98.2643 331.67C98.6656 331.437 98.9829 331.105 99.2163 330.676C99.4496 330.237 99.5663 329.729 99.5663 329.15Z" fill="#8D9092"/>
<path d="M479.374 362.242L479.374 372H478.1L478.1 367.576H473.13L473.13 372H471.856L471.856 362.242H473.13V366.526H478.1V362.242H479.374ZM486.687 372L484.363 368.01H482.823L482.823 372H481.549L481.549 362.242H484.699C485.437 362.242 486.057 362.368 486.561 362.62C487.075 362.872 487.457 363.213 487.709 363.642C487.961 364.071 488.087 364.561 488.087 365.112C488.087 365.784 487.891 366.377 487.499 366.89C487.117 367.403 486.538 367.744 485.763 367.912L488.213 372H486.687ZM482.823 366.988H484.699C485.39 366.988 485.908 366.82 486.253 366.484C486.599 366.139 486.771 365.681 486.771 365.112C486.771 364.533 486.599 364.085 486.253 363.768C485.917 363.451 485.399 363.292 484.699 363.292H482.823V366.988Z" fill="#8D9092"/>
<rect x="128" y="320" width="21.6566" height="16" rx="4" fill="#9EF9C1"/>
<rect x="219" y="320" width="21.6566" height="16" rx="4" fill="#F4DD8A"/>
<path d="M252.95 333.098C252.306 333.098 251.727 332.986 251.214 332.762C250.71 332.529 250.313 332.211 250.024 331.81C249.734 331.399 249.585 330.928 249.576 330.396H250.934C250.98 330.853 251.167 331.241 251.494 331.558C251.83 331.866 252.315 332.02 252.95 332.02C253.556 332.02 254.032 331.871 254.378 331.572C254.732 331.264 254.91 330.872 254.91 330.396C254.91 330.023 254.807 329.719 254.602 329.486C254.396 329.253 254.14 329.075 253.832 328.954C253.524 328.833 253.108 328.702 252.586 328.562C251.942 328.394 251.424 328.226 251.032 328.058C250.649 327.89 250.318 327.629 250.038 327.274C249.767 326.91 249.632 326.425 249.632 325.818C249.632 325.286 249.767 324.815 250.038 324.404C250.308 323.993 250.686 323.676 251.172 323.452C251.666 323.228 252.231 323.116 252.866 323.116C253.78 323.116 254.527 323.345 255.106 323.802C255.694 324.259 256.025 324.866 256.1 325.622H254.7C254.653 325.249 254.457 324.922 254.112 324.642C253.766 324.353 253.309 324.208 252.74 324.208C252.208 324.208 251.774 324.348 251.438 324.628C251.102 324.899 250.934 325.281 250.934 325.776C250.934 326.131 251.032 326.42 251.228 326.644C251.433 326.868 251.68 327.041 251.97 327.162C252.268 327.274 252.684 327.405 253.216 327.554C253.86 327.731 254.378 327.909 254.77 328.086C255.162 328.254 255.498 328.52 255.778 328.884C256.058 329.239 256.198 329.724 256.198 330.34C256.198 330.816 256.072 331.264 255.82 331.684C255.568 332.104 255.194 332.445 254.7 332.706C254.205 332.967 253.622 333.098 252.95 333.098ZM264.877 325.328L264.877 333H263.603V331.866C263.36 332.258 263.019 332.566 262.581 332.79C262.151 333.005 261.675 333.112 261.153 333.112C260.555 333.112 260.019 332.991 259.543 332.748C259.067 332.496 258.689 332.123 258.409 331.628C258.138 331.133 258.003 330.531 258.003 329.822V325.328H259.263V329.654C259.263 330.41 259.454 330.993 259.837 331.404C260.219 331.805 260.742 332.006 261.405 332.006C262.086 332.006 262.623 331.796 263.015 331.376C263.407 330.956 263.603 330.345 263.603 329.542V325.328H264.877ZM268.302 326.742C268.554 326.303 268.927 325.939 269.422 325.65C269.926 325.351 270.509 325.202 271.172 325.202C271.853 325.202 272.469 325.365 273.02 325.692C273.58 326.019 274.018 326.481 274.336 327.078C274.653 327.666 274.812 328.352 274.812 329.136C274.812 329.911 274.653 330.601 274.336 331.208C274.018 331.815 273.58 332.286 273.02 332.622C272.469 332.958 271.853 333.126 271.172 333.126C270.518 333.126 269.94 332.981 269.436 332.692C268.941 332.393 268.563 332.025 268.302 331.586V336.64H267.028L267.028 325.328H268.302V326.742ZM273.51 329.136C273.51 328.557 273.393 328.053 273.16 327.624C272.926 327.195 272.609 326.868 272.208 326.644C271.816 326.42 271.382 326.308 270.906 326.308C270.439 326.308 270.005 326.425 269.604 326.658C269.212 326.882 268.894 327.213 268.652 327.652C268.418 328.081 268.302 328.581 268.302 329.15C268.302 329.729 268.418 330.237 268.652 330.676C268.894 331.105 269.212 331.437 269.604 331.67C270.005 331.894 270.439 332.006 270.906 332.006C271.382 332.006 271.816 331.894 272.208 331.67C272.609 331.437 272.926 331.105 273.16 330.676C273.393 330.237 273.51 329.724 273.51 329.136ZM277.763 326.742C278.015 326.303 278.388 325.939 278.883 325.65C279.387 325.351 279.97 325.202 280.633 325.202C281.314 325.202 281.93 325.365 282.481 325.692C283.041 326.019 283.479 326.481 283.797 327.078C284.114 327.666 284.273 328.352 284.273 329.136C284.273 329.911 284.114 330.601 283.797 331.208C283.479 331.815 283.041 332.286 282.481 332.622C281.93 332.958 281.314 333.126 280.633 333.126C279.979 333.126 279.401 332.981 278.897 332.692C278.402 332.393 278.024 332.025 277.763 331.586V336.64H276.489L276.489 325.328H277.763V326.742ZM282.971 329.136C282.971 328.557 282.854 328.053 282.621 327.624C282.387 327.195 282.07 326.868 281.669 326.644C281.277 326.42 280.843 326.308 280.367 326.308C279.9 326.308 279.466 326.425 279.065 326.658C278.673 326.882 278.355 327.213 278.113 327.652C277.879 328.081 277.763 328.581 277.763 329.15C277.763 329.729 277.879 330.237 278.113 330.676C278.355 331.105 278.673 331.437 279.065 331.67C279.466 331.894 279.9 332.006 280.367 332.006C280.843 332.006 281.277 331.894 281.669 331.67C282.07 331.437 282.387 331.105 282.621 330.676C282.854 330.237 282.971 329.724 282.971 329.136ZM289.296 333.126C288.577 333.126 287.924 332.963 287.336 332.636C286.757 332.309 286.3 331.847 285.964 331.25C285.637 330.643 285.474 329.943 285.474 329.15C285.474 328.366 285.642 327.675 285.978 327.078C286.323 326.471 286.79 326.009 287.378 325.692C287.966 325.365 288.624 325.202 289.352 325.202C290.08 325.202 290.738 325.365 291.326 325.692C291.914 326.009 292.376 326.467 292.712 327.064C293.057 327.661 293.23 328.357 293.23 329.15C293.23 329.943 293.052 330.643 292.698 331.25C292.352 331.847 291.881 332.309 291.284 332.636C290.686 332.963 290.024 333.126 289.296 333.126ZM289.296 332.006C289.753 332.006 290.182 331.899 290.584 331.684C290.985 331.469 291.307 331.147 291.55 330.718C291.802 330.289 291.928 329.766 291.928 329.15C291.928 328.534 291.806 328.011 291.564 327.582C291.321 327.153 291.004 326.835 290.612 326.63C290.22 326.415 289.795 326.308 289.338 326.308C288.871 326.308 288.442 326.415 288.05 326.63C287.667 326.835 287.359 327.153 287.126 327.582C286.892 328.011 286.776 328.534 286.776 329.15C286.776 329.775 286.888 330.303 287.112 330.732C287.345 331.161 287.653 331.483 288.036 331.698C288.418 331.903 288.838 332.006 289.296 332.006ZM296.179 326.574C296.403 326.135 296.72 325.795 297.131 325.552C297.551 325.309 298.059 325.188 298.657 325.188V326.504H298.321C296.893 326.504 296.179 327.279 296.179 328.828L296.179 333H294.905L294.905 325.328H296.179V326.574ZM301.681 326.378V330.9C301.681 331.273 301.761 331.539 301.919 331.698C302.078 331.847 302.353 331.922 302.745 331.922H303.683V333H302.535C301.826 333 301.294 332.837 300.939 332.51C300.585 332.183 300.407 331.647 300.407 330.9V326.378H299.413V325.328H300.407V323.396H301.681V325.328H303.683V326.378H301.681Z" fill="#8D9092"/>
<rect x="340" y="320" width="21.6566" height="16" rx="4" fill="#82E9E0"/>
<path d="M376.624 330.83H372.368L371.584 333H370.24L373.768 323.298H375.238L378.752 333H377.408L376.624 330.83ZM376.26 329.794L374.496 324.866L372.732 329.794H376.26ZM383.453 325.202C384.116 325.202 384.695 325.347 385.189 325.636C385.693 325.925 386.067 326.289 386.309 326.728V325.328H387.597L387.597 333.168C387.597 333.868 387.448 334.489 387.149 335.03C386.851 335.581 386.421 336.01 385.861 336.318C385.311 336.626 384.667 336.78 383.929 336.78C382.921 336.78 382.081 336.542 381.409 336.066C380.737 335.59 380.341 334.941 380.219 334.12H381.479C381.619 334.587 381.909 334.96 382.347 335.24C382.786 335.529 383.313 335.674 383.929 335.674C384.629 335.674 385.199 335.455 385.637 335.016C386.085 334.577 386.309 333.961 386.309 333.168V331.558C386.057 332.006 385.684 332.379 385.189 332.678C384.695 332.977 384.116 333.126 383.453 333.126C382.772 333.126 382.151 332.958 381.591 332.622C381.041 332.286 380.607 331.815 380.289 331.208C379.972 330.601 379.813 329.911 379.813 329.136C379.813 328.352 379.972 327.666 380.289 327.078C380.607 326.481 381.041 326.019 381.591 325.692C382.151 325.365 382.772 325.202 383.453 325.202ZM386.309 329.15C386.309 328.571 386.193 328.067 385.959 327.638C385.726 327.209 385.409 326.882 385.007 326.658C384.615 326.425 384.181 326.308 383.705 326.308C383.229 326.308 382.795 326.42 382.403 326.644C382.011 326.868 381.699 327.195 381.465 327.624C381.232 328.053 381.115 328.557 381.115 329.136C381.115 329.724 381.232 330.237 381.465 330.676C381.699 331.105 382.011 331.437 382.403 331.67C382.795 331.894 383.229 332.006 383.705 332.006C384.181 332.006 384.615 331.894 385.007 331.67C385.409 331.437 385.726 331.105 385.959 330.676C386.193 330.237 386.309 329.729 386.309 329.15ZM396.75 328.87C396.75 329.113 396.736 329.369 396.708 329.64L390.576 329.64C390.623 330.396 390.88 330.989 391.346 331.418C391.822 331.838 392.396 332.048 393.068 332.048C393.619 332.048 394.076 331.922 394.44 331.67C394.814 331.409 395.075 331.063 395.224 330.634H396.596C396.391 331.371 395.98 331.973 395.364 332.44C394.748 332.897 393.983 333.126 393.068 333.126C392.34 333.126 391.687 332.963 391.108 332.636C390.539 332.309 390.091 331.847 389.764 331.25C389.438 330.643 389.274 329.943 389.274 329.15C389.274 328.357 389.433 327.661 389.75 327.064C390.068 326.467 390.511 326.009 391.08 325.692C391.659 325.365 392.322 325.202 393.068 325.202C393.796 325.202 394.44 325.361 395 325.678C395.56 325.995 395.99 326.434 396.288 326.994C396.596 327.545 396.75 328.17 396.75 328.87ZM395.434 328.604C395.434 328.119 395.327 327.703 395.112 327.358C394.898 327.003 394.604 326.737 394.23 326.56C393.866 326.373 393.46 326.28 393.012 326.28C392.368 326.28 391.818 326.485 391.36 326.896C390.912 327.307 390.656 327.876 390.59 328.604L395.434 328.604ZM402.17 325.188C403.103 325.188 403.859 325.473 404.438 326.042C405.017 326.602 405.306 327.414 405.306 328.478L405.306 333H404.046L404.046 328.66C404.046 327.895 403.855 327.311 403.472 326.91C403.089 326.499 402.567 326.294 401.904 326.294C401.232 326.294 400.695 326.504 400.294 326.924C399.902 327.344 399.706 327.955 399.706 328.758L399.706 333H398.432L398.432 325.328H399.706V326.42C399.958 326.028 400.299 325.725 400.728 325.51C401.167 325.295 401.647 325.188 402.17 325.188ZM406.911 329.15C406.911 328.357 407.07 327.666 407.387 327.078C407.704 326.481 408.143 326.019 408.703 325.692C409.272 325.365 409.921 325.202 410.649 325.202C411.592 325.202 412.366 325.431 412.973 325.888C413.589 326.345 413.995 326.98 414.191 327.792H412.819C412.688 327.325 412.432 326.957 412.049 326.686C411.676 326.415 411.209 326.28 410.649 326.28C409.921 326.28 409.333 326.532 408.885 327.036C408.437 327.531 408.213 328.235 408.213 329.15C408.213 330.074 408.437 330.788 408.885 331.292C409.333 331.796 409.921 332.048 410.649 332.048C411.209 332.048 411.676 331.917 412.049 331.656C412.422 331.395 412.679 331.021 412.819 330.536H414.191C413.986 331.32 413.575 331.95 412.959 332.426C412.343 332.893 411.573 333.126 410.649 333.126C409.921 333.126 409.272 332.963 408.703 332.636C408.143 332.309 407.704 331.847 407.387 331.25C407.07 330.653 406.911 329.953 406.911 329.15ZM422.499 325.328L417.879 336.612H416.563L418.075 332.916L414.981 325.328H416.395L418.803 331.544L421.183 325.328H422.499Z" fill="#8D9092"/>
<rect x="456.5" y="320.5" width="20.6566" height="15" rx="3.5" fill="#FFB1CA" stroke="black"/>
<path d="M493.602 326.098C493.602 326.91 493.322 327.587 492.762 328.128C492.211 328.66 491.367 328.926 490.228 328.926H488.352L488.352 333H487.078L487.078 323.242H490.228C491.329 323.242 492.165 323.508 492.734 324.04C493.313 324.572 493.602 325.258 493.602 326.098ZM490.228 327.876C490.937 327.876 491.46 327.722 491.796 327.414C492.132 327.106 492.3 326.667 492.3 326.098C492.3 324.894 491.609 324.292 490.228 324.292H488.352V327.876H490.228ZM496.459 326.574C496.683 326.135 497.001 325.795 497.411 325.552C497.831 325.309 498.34 325.188 498.937 325.188V326.504H498.601C497.173 326.504 496.459 327.279 496.459 328.828L496.459 333H495.185L495.185 325.328H496.459V326.574ZM503.754 333.126C503.035 333.126 502.382 332.963 501.794 332.636C501.215 332.309 500.758 331.847 500.422 331.25C500.095 330.643 499.932 329.943 499.932 329.15C499.932 328.366 500.1 327.675 500.436 327.078C500.781 326.471 501.248 326.009 501.836 325.692C502.424 325.365 503.082 325.202 503.81 325.202C504.538 325.202 505.196 325.365 505.784 325.692C506.372 326.009 506.834 326.467 507.17 327.064C507.515 327.661 507.688 328.357 507.688 329.15C507.688 329.943 507.511 330.643 507.156 331.25C506.811 331.847 506.339 332.309 505.742 332.636C505.145 332.963 504.482 333.126 503.754 333.126ZM503.754 332.006C504.211 332.006 504.641 331.899 505.042 331.684C505.443 331.469 505.765 331.147 506.008 330.718C506.26 330.289 506.386 329.766 506.386 329.15C506.386 328.534 506.265 328.011 506.022 327.582C505.779 327.153 505.462 326.835 505.07 326.63C504.678 326.415 504.253 326.308 503.796 326.308C503.329 326.308 502.9 326.415 502.508 326.63C502.125 326.835 501.817 327.153 501.584 327.582C501.351 328.011 501.234 328.534 501.234 329.15C501.234 329.775 501.346 330.303 501.57 330.732C501.803 331.161 502.111 331.483 502.494 331.698C502.877 331.903 503.297 332.006 503.754 332.006ZM508.887 329.136C508.887 328.352 509.046 327.666 509.363 327.078C509.68 326.481 510.114 326.019 510.665 325.692C511.225 325.365 511.85 325.202 512.541 325.202C513.138 325.202 513.694 325.342 514.207 325.622C514.72 325.893 515.112 326.252 515.383 326.7V322.64H516.671V333H515.383V331.558C515.131 332.015 514.758 332.393 514.263 332.692C513.768 332.981 513.19 333.126 512.527 333.126C511.846 333.126 511.225 332.958 510.665 332.622C510.114 332.286 509.68 331.815 509.363 331.208C509.046 330.601 508.887 329.911 508.887 329.136ZM515.383 329.15C515.383 328.571 515.266 328.067 515.033 327.638C514.8 327.209 514.482 326.882 514.081 326.658C513.689 326.425 513.255 326.308 512.779 326.308C512.303 326.308 511.869 326.42 511.477 326.644C511.085 326.868 510.772 327.195 510.539 327.624C510.306 328.053 510.189 328.557 510.189 329.136C510.189 329.724 510.306 330.237 510.539 330.676C510.772 331.105 511.085 331.437 511.477 331.67C511.869 331.894 512.303 332.006 512.779 332.006C513.255 332.006 513.689 331.894 514.081 331.67C514.482 331.437 514.8 331.105 515.033 330.676C515.266 330.237 515.383 329.729 515.383 329.15ZM525.628 325.328V333H524.354V331.866C524.111 332.258 523.771 332.566 523.332 332.79C522.903 333.005 522.427 333.112 521.904 333.112C521.307 333.112 520.77 332.991 520.294 332.748C519.818 332.496 519.44 332.123 519.16 331.628C518.889 331.133 518.754 330.531 518.754 329.822V325.328H520.014V329.654C520.014 330.41 520.205 330.993 520.588 331.404C520.971 331.805 521.493 332.006 522.156 332.006C522.837 332.006 523.374 331.796 523.766 331.376C524.158 330.956 524.354 330.345 524.354 329.542V325.328H525.628ZM527.303 329.15C527.303 328.357 527.462 327.666 527.779 327.078C528.097 326.481 528.535 326.019 529.095 325.692C529.665 325.365 530.313 325.202 531.041 325.202C531.984 325.202 532.759 325.431 533.365 325.888C533.981 326.345 534.387 326.98 534.583 327.792H533.211C533.081 327.325 532.824 326.957 532.441 326.686C532.068 326.415 531.601 326.28 531.041 326.28C530.313 326.28 529.725 326.532 529.277 327.036C528.829 327.531 528.605 328.235 528.605 329.15C528.605 330.074 528.829 330.788 529.277 331.292C529.725 331.796 530.313 332.048 531.041 332.048C531.601 332.048 532.068 331.917 532.441 331.656C532.815 331.395 533.071 331.021 533.211 330.536H534.583C534.378 331.32 533.967 331.95 533.351 332.426C532.735 332.893 531.965 333.126 531.041 333.126C530.313 333.126 529.665 332.963 529.095 332.636C528.535 332.309 528.097 331.847 527.779 331.25C527.462 330.653 527.303 329.953 527.303 329.15ZM537.837 326.378V330.9C537.837 331.273 537.916 331.539 538.075 331.698C538.234 331.847 538.509 331.922 538.901 331.922H539.839V333H538.691C537.982 333 537.45 332.837 537.095 332.51C536.74 332.183 536.563 331.647 536.563 330.9V326.378H535.569V325.328H536.563V323.396H537.837V325.328H539.839V326.378H537.837ZM542.041 324.082C541.798 324.082 541.593 323.998 541.425 323.83C541.257 323.662 541.173 323.457 541.173 323.214C541.173 322.971 541.257 322.766 541.425 322.598C541.593 322.43 541.798 322.346 542.041 322.346C542.274 322.346 542.47 322.43 542.629 322.598C542.797 322.766 542.881 322.971 542.881 323.214C542.881 323.457 542.797 323.662 542.629 323.83C542.47 323.998 542.274 324.082 542.041 324.082ZM542.657 325.328V333H541.383V325.328H542.657ZM547.684 331.824L550.064 325.328H551.422L548.412 333H546.928L543.918 325.328H545.29L547.684 331.824ZM553.334 324.082C553.091 324.082 552.886 323.998 552.718 323.83C552.55 323.662 552.466 323.457 552.466 323.214C552.466 322.971 552.55 322.766 552.718 322.598C552.886 322.43 553.091 322.346 553.334 322.346C553.567 322.346 553.763 322.43 553.922 322.598C554.09 322.766 554.174 322.971 554.174 323.214C554.174 323.457 554.09 323.662 553.922 323.83C553.763 323.998 553.567 324.082 553.334 324.082ZM553.95 325.328V333H552.676V325.328L553.95 325.328ZM557.675 326.378V330.9C557.675 331.273 557.754 331.539 557.913 331.698C558.072 331.847 558.347 331.922 558.739 331.922H559.677V333H558.529C557.82 333 557.288 332.837 556.933 332.51C556.578 332.183 556.401 331.647 556.401 330.9V326.378H555.407V325.328H556.401V323.396H557.675V325.328H559.677V326.378H557.675ZM567.829 325.328L563.209 336.612H561.893L563.405 332.916L560.311 325.328H561.725L564.133 331.544L566.513 325.328H567.829Z" fill="#8D9092"/>
<rect x="3.5" y="357.5" width="20.6566" height="15" rx="3.5" fill="#F9FCA1" stroke="black"/>
<path d="M46.342 360.242L43.514 370H42.086L39.818 362.146L37.466 370L36.052 370.014L33.322 360.242H34.68L36.808 368.516L39.16 360.242H40.588L42.828 368.488L44.97 360.242H46.342ZM54.7362 365.87C54.7362 366.113 54.7222 366.369 54.6942 366.64H48.5622C48.6089 367.396 48.8655 367.989 49.3322 368.418C49.8082 368.838 50.3822 369.048 51.0542 369.048C51.6049 369.048 52.0622 368.922 52.4262 368.67C52.7995 368.409 53.0609 368.063 53.2102 367.634H54.5822C54.3769 368.371 53.9662 368.973 53.3502 369.44C52.7342 369.897 51.9689 370.126 51.0542 370.126C50.3262 370.126 49.6729 369.963 49.0942 369.636C48.5249 369.309 48.0769 368.847 47.7502 368.25C47.4235 367.643 47.2602 366.943 47.2602 366.15C47.2602 365.357 47.4189 364.661 47.7362 364.064C48.0535 363.467 48.4969 363.009 49.0662 362.692C49.6449 362.365 50.3075 362.202 51.0542 362.202C51.7822 362.202 52.4262 362.361 52.9862 362.678C53.5462 362.995 53.9755 363.434 54.2742 363.994C54.5822 364.545 54.7362 365.17 54.7362 365.87ZM53.4202 365.604C53.4202 365.119 53.3129 364.703 53.0982 364.358C52.8835 364.003 52.5895 363.737 52.2162 363.56C51.8522 363.373 51.4462 363.28 50.9982 363.28C50.3542 363.28 49.8035 363.485 49.3462 363.896C48.8982 364.307 48.6415 364.876 48.5762 365.604H53.4202ZM57.6918 363.756C57.9532 363.299 58.3358 362.925 58.8398 362.636C59.3438 362.347 59.9178 362.202 60.5618 362.202C61.2525 362.202 61.8732 362.365 62.4238 362.692C62.9745 363.019 63.4085 363.481 63.7258 364.078C64.0432 364.666 64.2018 365.352 64.2018 366.136C64.2018 366.911 64.0432 367.601 63.7258 368.208C63.4085 368.815 62.9698 369.286 62.4098 369.622C61.8592 369.958 61.2432 370.126 60.5618 370.126C59.8992 370.126 59.3158 369.981 58.8118 369.692C58.3172 369.403 57.9438 369.034 57.6918 368.586L57.6918 370H56.4178L56.4178 359.64H57.6918L57.6918 363.756ZM62.8998 366.136C62.8998 365.557 62.7832 365.053 62.5498 364.624C62.3165 364.195 61.9992 363.868 61.5978 363.644C61.2058 363.42 60.7718 363.308 60.2958 363.308C59.8292 363.308 59.3952 363.425 58.9938 363.658C58.6018 363.882 58.2845 364.213 58.0418 364.652C57.8085 365.081 57.6918 365.581 57.6918 366.15C57.6918 366.729 57.8085 367.237 58.0418 367.676C58.2845 368.105 58.6018 368.437 58.9938 368.67C59.3952 368.894 59.8292 369.006 60.2958 369.006C60.7718 369.006 61.2058 368.894 61.5978 368.67C61.9992 368.437 62.3165 368.105 62.5498 367.676C62.7832 367.237 62.8998 366.724 62.8998 366.136ZM69.1352 366.136C69.1352 365.352 69.2939 364.666 69.6112 364.078C69.9285 363.481 70.3625 363.019 70.9132 362.692C71.4732 362.365 72.0985 362.202 72.7892 362.202C73.3865 362.202 73.9419 362.342 74.4552 362.622C74.9685 362.893 75.3605 363.252 75.6312 363.7L75.6312 359.64H76.9192L76.9192 370H75.6312V368.558C75.3792 369.015 75.0059 369.393 74.5112 369.692C74.0165 369.981 73.4379 370.126 72.7752 370.126C72.0939 370.126 71.4732 369.958 70.9132 369.622C70.3625 369.286 69.9285 368.815 69.6112 368.208C69.2939 367.601 69.1352 366.911 69.1352 366.136ZM75.6312 366.15C75.6312 365.571 75.5145 365.067 75.2812 364.638C75.0479 364.209 74.7305 363.882 74.3292 363.658C73.9372 363.425 73.5032 363.308 73.0272 363.308C72.5512 363.308 72.1172 363.42 71.7252 363.644C71.3332 363.868 71.0205 364.195 70.7872 364.624C70.5539 365.053 70.4372 365.557 70.4372 366.136C70.4372 366.724 70.5539 367.237 70.7872 367.676C71.0205 368.105 71.3332 368.437 71.7252 368.67C72.1172 368.894 72.5512 369.006 73.0272 369.006C73.5032 369.006 73.9372 368.894 74.3292 368.67C74.7305 368.437 75.0479 368.105 75.2812 367.676C75.5145 367.237 75.6312 366.729 75.6312 366.15ZM86.0721 365.87C86.0721 366.113 86.0581 366.369 86.0301 366.64H79.8981C79.9448 367.396 80.2015 367.989 80.6681 368.418C81.1441 368.838 81.7181 369.048 82.3901 369.048C82.9408 369.048 83.3981 368.922 83.7621 368.67C84.1355 368.409 84.3968 368.063 84.5461 367.634H85.9181C85.7128 368.371 85.3021 368.973 84.6861 369.44C84.0701 369.897 83.3048 370.126 82.3901 370.126C81.6621 370.126 81.0088 369.963 80.4301 369.636C79.8608 369.309 79.4128 368.847 79.0861 368.25C78.7595 367.643 78.5961 366.943 78.5961 366.15C78.5961 365.357 78.7548 364.661 79.0721 364.064C79.3895 363.467 79.8328 363.009 80.4021 362.692C80.9808 362.365 81.6435 362.202 82.3901 362.202C83.1181 362.202 83.7621 362.361 84.3221 362.678C84.8821 362.995 85.3115 363.434 85.6101 363.994C85.9181 364.545 86.0721 365.17 86.0721 365.87ZM84.7561 365.604C84.7561 365.119 84.6488 364.703 84.4341 364.358C84.2195 364.003 83.9255 363.737 83.5521 363.56C83.1881 363.373 82.7821 363.28 82.3341 363.28C81.6901 363.28 81.1395 363.485 80.6821 363.896C80.2341 364.307 79.9775 364.876 79.9121 365.604H84.7561ZM90.6098 368.824L92.9898 362.328H94.3478L91.3378 370H89.8538L86.8438 362.328H88.2158L90.6098 368.824Z" fill="#8D9092"/>
<rect x="118.5" y="357.5" width="20.6566" height="15" rx="3.5" fill="#FF8081" stroke="black"/>
<path d="M157.142 360.242L153.46 370H151.99L148.308 360.242H149.666L152.732 368.656L155.798 360.242H157.142ZM164.307 367.83H160.051L159.267 370H157.923L161.451 360.298H162.921L166.435 370H165.091L164.307 367.83ZM163.943 366.794L162.179 361.866L160.415 366.794H163.943Z" fill="#8D9092"/>
<rect x="196.5" y="359.5" width="20.6566" height="15" rx="3.5" fill="#FF9770" stroke="black"/>
<path d="M232.216 372L229.892 368.01H228.352V372H227.078L227.078 362.242H230.228C230.965 362.242 231.586 362.368 232.09 362.62C232.603 362.872 232.986 363.213 233.238 363.642C233.49 364.071 233.616 364.561 233.616 365.112C233.616 365.784 233.42 366.377 233.028 366.89C232.645 367.403 232.067 367.744 231.292 367.912L233.742 372H232.216ZM228.352 366.988H230.228C230.919 366.988 231.437 366.82 231.782 366.484C232.127 366.139 232.3 365.681 232.3 365.112C232.3 364.533 232.127 364.085 231.782 363.768C231.446 363.451 230.928 363.292 230.228 363.292H228.352V366.988ZM242.596 367.87C242.596 368.113 242.582 368.369 242.554 368.64H236.422C236.468 369.396 236.725 369.989 237.192 370.418C237.668 370.838 238.242 371.048 238.914 371.048C239.464 371.048 239.922 370.922 240.286 370.67C240.659 370.409 240.92 370.063 241.07 369.634H242.442C242.236 370.371 241.826 370.973 241.21 371.44C240.594 371.897 239.828 372.126 238.914 372.126C238.186 372.126 237.532 371.963 236.954 371.636C236.384 371.309 235.936 370.847 235.61 370.25C235.283 369.643 235.12 368.943 235.12 368.15C235.12 367.357 235.278 366.661 235.596 366.064C235.913 365.467 236.356 365.009 236.926 364.692C237.504 364.365 238.167 364.202 238.914 364.202C239.642 364.202 240.286 364.361 240.846 364.678C241.406 364.995 241.835 365.434 242.134 365.994C242.442 366.545 242.596 367.17 242.596 367.87ZM241.28 367.604C241.28 367.119 241.172 366.703 240.958 366.358C240.743 366.003 240.449 365.737 240.076 365.56C239.712 365.373 239.306 365.28 238.858 365.28C238.214 365.28 237.663 365.485 237.206 365.896C236.758 366.307 236.501 366.876 236.436 367.604H241.28ZM243.801 368.136C243.801 367.352 243.96 366.666 244.277 366.078C244.595 365.481 245.029 365.019 245.579 364.692C246.139 364.365 246.76 364.202 247.441 364.202C248.113 364.202 248.697 364.347 249.191 364.636C249.686 364.925 250.055 365.289 250.297 365.728V364.328H251.585V372H250.297V370.572C250.045 371.02 249.667 371.393 249.163 371.692C248.669 371.981 248.09 372.126 247.427 372.126C246.746 372.126 246.13 371.958 245.579 371.622C245.029 371.286 244.595 370.815 244.277 370.208C243.96 369.601 243.801 368.911 243.801 368.136ZM250.297 368.15C250.297 367.571 250.181 367.067 249.947 366.638C249.714 366.209 249.397 365.882 248.995 365.658C248.603 365.425 248.169 365.308 247.693 365.308C247.217 365.308 246.783 365.42 246.391 365.644C245.999 365.868 245.687 366.195 245.453 366.624C245.22 367.053 245.103 367.557 245.103 368.136C245.103 368.724 245.22 369.237 245.453 369.676C245.687 370.105 245.999 370.437 246.391 370.67C246.783 370.894 247.217 371.006 247.693 371.006C248.169 371.006 248.603 370.894 248.995 370.67C249.397 370.437 249.714 370.105 249.947 369.676C250.181 369.237 250.297 368.729 250.297 368.15ZM255.012 361.64L255.012 372H253.738L253.738 361.64H255.012ZM262.19 363.278V366.54H265.746V367.59H262.19L262.19 370.95H266.166V372H260.916L260.916 362.228H266.166V363.278H262.19ZM270.81 372.126C270.222 372.126 269.694 372.028 269.228 371.832C268.761 371.627 268.392 371.347 268.122 370.992C267.851 370.628 267.702 370.213 267.674 369.746H268.99C269.027 370.129 269.204 370.441 269.522 370.684C269.848 370.927 270.273 371.048 270.796 371.048C271.281 371.048 271.664 370.941 271.944 370.726C272.224 370.511 272.364 370.241 272.364 369.914C272.364 369.578 272.214 369.331 271.916 369.172C271.617 369.004 271.155 368.841 270.53 368.682C269.96 368.533 269.494 368.383 269.13 368.234C268.775 368.075 268.467 367.847 268.206 367.548C267.954 367.24 267.828 366.839 267.828 366.344C267.828 365.952 267.944 365.593 268.178 365.266C268.411 364.939 268.742 364.683 269.172 364.496C269.601 364.3 270.091 364.202 270.642 364.202C271.491 364.202 272.177 364.417 272.7 364.846C273.222 365.275 273.502 365.863 273.54 366.61H272.266C272.238 366.209 272.074 365.887 271.776 365.644C271.486 365.401 271.094 365.28 270.6 365.28C270.142 365.28 269.778 365.378 269.508 365.574C269.237 365.77 269.102 366.027 269.102 366.344C269.102 366.596 269.181 366.806 269.34 366.974C269.508 367.133 269.713 367.263 269.956 367.366C270.208 367.459 270.553 367.567 270.992 367.688C271.542 367.837 271.99 367.987 272.336 368.136C272.681 368.276 272.975 368.491 273.218 368.78C273.47 369.069 273.6 369.447 273.61 369.914C273.61 370.334 273.493 370.712 273.26 371.048C273.026 371.384 272.695 371.65 272.266 371.846C271.846 372.033 271.36 372.126 270.81 372.126ZM276.962 365.378V369.9C276.962 370.273 277.041 370.539 277.2 370.698C277.359 370.847 277.634 370.922 278.026 370.922H278.964V372H277.816C277.107 372 276.575 371.837 276.22 371.51C275.865 371.183 275.688 370.647 275.688 369.9V365.378H274.694V364.328H275.688V362.396H276.962V364.328H278.964V365.378H276.962ZM280.032 368.136C280.032 367.352 280.19 366.666 280.508 366.078C280.825 365.481 281.259 365.019 281.81 364.692C282.37 364.365 282.99 364.202 283.672 364.202C284.344 364.202 284.927 364.347 285.422 364.636C285.916 364.925 286.285 365.289 286.528 365.728V364.328H287.816L287.816 372H286.528L286.528 370.572C286.276 371.02 285.898 371.393 285.394 371.692C284.899 371.981 284.32 372.126 283.658 372.126C282.976 372.126 282.36 371.958 281.81 371.622C281.259 371.286 280.825 370.815 280.508 370.208C280.19 369.601 280.032 368.911 280.032 368.136ZM286.528 368.15C286.528 367.571 286.411 367.067 286.178 366.638C285.944 366.209 285.627 365.882 285.226 365.658C284.834 365.425 284.4 365.308 283.924 365.308C283.448 365.308 283.014 365.42 282.622 365.644C282.23 365.868 281.917 366.195 281.684 366.624C281.45 367.053 281.334 367.557 281.334 368.136C281.334 368.724 281.45 369.237 281.684 369.676C281.917 370.105 282.23 370.437 282.622 370.67C283.014 370.894 283.448 371.006 283.924 371.006C284.4 371.006 284.834 370.894 285.226 370.67C285.627 370.437 285.944 370.105 286.178 369.676C286.411 369.237 286.528 368.729 286.528 368.15ZM291.523 365.378V369.9C291.523 370.273 291.602 370.539 291.761 370.698C291.919 370.847 292.195 370.922 292.587 370.922L293.525 370.922V372L292.377 372C291.667 372 291.135 371.837 290.781 371.51C290.426 371.183 290.249 370.647 290.249 369.9V365.378H289.255V364.328H290.249V362.396H291.523V364.328L293.525 364.328V365.378L291.523 365.378ZM302.068 367.87C302.068 368.113 302.054 368.369 302.026 368.64H295.894C295.941 369.396 296.198 369.989 296.664 370.418C297.14 370.838 297.714 371.048 298.386 371.048C298.937 371.048 299.394 370.922 299.758 370.67C300.132 370.409 300.393 370.063 300.542 369.634H301.914C301.709 370.371 301.298 370.973 300.682 371.44C300.066 371.897 299.301 372.126 298.386 372.126C297.658 372.126 297.005 371.963 296.426 371.636C295.857 371.309 295.409 370.847 295.082 370.25C294.756 369.643 294.592 368.943 294.592 368.15C294.592 367.357 294.751 366.661 295.068 366.064C295.386 365.467 295.829 365.009 296.398 364.692C296.977 364.365 297.64 364.202 298.386 364.202C299.114 364.202 299.758 364.361 300.318 364.678C300.878 364.995 301.308 365.434 301.606 365.994C301.914 366.545 302.068 367.17 302.068 367.87ZM300.752 367.604C300.752 367.119 300.645 366.703 300.43 366.358C300.216 366.003 299.922 365.737 299.548 365.56C299.184 365.373 298.778 365.28 298.33 365.28C297.686 365.28 297.136 365.485 296.678 365.896C296.23 366.307 295.974 366.876 295.908 367.604H300.752Z" fill="#8D9092"/>
<rect x="326.5" y="359.5" width="20.6566" height="15" rx="3.5" fill="#8ECBFF" stroke="black"/>
<path d="M360.172 372.098C359.528 372.098 358.949 371.986 358.436 371.762C357.932 371.529 357.535 371.211 357.246 370.81C356.957 370.399 356.807 369.928 356.798 369.396H358.156C358.203 369.853 358.389 370.241 358.716 370.558C359.052 370.866 359.537 371.02 360.172 371.02C360.779 371.02 361.255 370.871 361.6 370.572C361.955 370.264 362.132 369.872 362.132 369.396C362.132 369.023 362.029 368.719 361.824 368.486C361.619 368.253 361.362 368.075 361.054 367.954C360.746 367.833 360.331 367.702 359.808 367.562C359.164 367.394 358.646 367.226 358.254 367.058C357.871 366.89 357.54 366.629 357.26 366.274C356.989 365.91 356.854 365.425 356.854 364.818C356.854 364.286 356.989 363.815 357.26 363.404C357.531 362.993 357.909 362.676 358.394 362.452C358.889 362.228 359.453 362.116 360.088 362.116C361.003 362.116 361.749 362.345 362.328 362.802C362.916 363.259 363.247 363.866 363.322 364.622H361.922C361.875 364.249 361.679 363.922 361.334 363.642C360.989 363.353 360.531 363.208 359.962 363.208C359.43 363.208 358.996 363.348 358.66 363.628C358.324 363.899 358.156 364.281 358.156 364.776C358.156 365.131 358.254 365.42 358.45 365.644C358.655 365.868 358.903 366.041 359.192 366.162C359.491 366.274 359.906 366.405 360.438 366.554C361.082 366.731 361.6 366.909 361.992 367.086C362.384 367.254 362.72 367.52 363 367.884C363.28 368.239 363.42 368.724 363.42 369.34C363.42 369.816 363.294 370.264 363.042 370.684C362.79 371.104 362.417 371.445 361.922 371.706C361.427 371.967 360.844 372.098 360.172 372.098ZM366.849 365.378L366.849 369.9C366.849 370.273 366.928 370.539 367.087 370.698C367.245 370.847 367.521 370.922 367.913 370.922H368.851V372H367.703C366.993 372 366.461 371.837 366.107 371.51C365.752 371.183 365.575 370.647 365.575 369.9L365.575 365.378H364.581V364.328H365.575V362.396H366.849V364.328H368.851V365.378H366.849ZM369.918 368.136C369.918 367.352 370.077 366.666 370.394 366.078C370.712 365.481 371.146 365.019 371.696 364.692C372.256 364.365 372.877 364.202 373.558 364.202C374.23 364.202 374.814 364.347 375.308 364.636C375.803 364.925 376.172 365.289 376.414 365.728V364.328H377.702L377.702 372H376.414V370.572C376.162 371.02 375.784 371.393 375.28 371.692C374.786 371.981 374.207 372.126 373.544 372.126C372.863 372.126 372.247 371.958 371.696 371.622C371.146 371.286 370.712 370.815 370.394 370.208C370.077 369.601 369.918 368.911 369.918 368.136ZM376.414 368.15C376.414 367.571 376.298 367.067 376.064 366.638C375.831 366.209 375.514 365.882 375.112 365.658C374.72 365.425 374.286 365.308 373.81 365.308C373.334 365.308 372.9 365.42 372.508 365.644C372.116 365.868 371.804 366.195 371.57 366.624C371.337 367.053 371.22 367.557 371.22 368.136C371.22 368.724 371.337 369.237 371.57 369.676C371.804 370.105 372.116 370.437 372.508 370.67C372.9 370.894 373.334 371.006 373.81 371.006C374.286 371.006 374.72 370.894 375.112 370.67C375.514 370.437 375.831 370.105 376.064 369.676C376.298 369.237 376.414 368.729 376.414 368.15ZM381.129 365.574C381.353 365.135 381.671 364.795 382.081 364.552C382.501 364.309 383.01 364.188 383.607 364.188V365.504H383.271C381.843 365.504 381.129 366.279 381.129 367.828L381.129 372H379.855L379.855 364.328H381.129V365.574ZM386.632 365.378V369.9C386.632 370.273 386.711 370.539 386.87 370.698C387.029 370.847 387.304 370.922 387.696 370.922H388.634V372H387.486C386.777 372 386.245 371.837 385.89 371.51C385.535 371.183 385.358 370.647 385.358 369.9V365.378H384.364V364.328H385.358V362.396H386.632V364.328H388.634V365.378H386.632ZM396.982 364.328L396.982 372H395.708V370.866C395.465 371.258 395.124 371.566 394.686 371.79C394.256 372.005 393.78 372.112 393.258 372.112C392.66 372.112 392.124 371.991 391.648 371.748C391.172 371.496 390.794 371.123 390.514 370.628C390.243 370.133 390.108 369.531 390.108 368.822V364.328H391.368V368.654C391.368 369.41 391.559 369.993 391.942 370.404C392.324 370.805 392.847 371.006 393.51 371.006C394.191 371.006 394.728 370.796 395.12 370.376C395.512 369.956 395.708 369.345 395.708 368.542V364.328H396.982ZM400.407 365.742C400.659 365.303 401.032 364.939 401.527 364.65C402.031 364.351 402.614 364.202 403.277 364.202C403.958 364.202 404.574 364.365 405.125 364.692C405.685 365.019 406.123 365.481 406.441 366.078C406.758 366.666 406.917 367.352 406.917 368.136C406.917 368.911 406.758 369.601 406.441 370.208C406.123 370.815 405.685 371.286 405.125 371.622C404.574 371.958 403.958 372.126 403.277 372.126C402.623 372.126 402.045 371.981 401.541 371.692C401.046 371.393 400.668 371.025 400.407 370.586L400.407 375.64H399.133L399.133 364.328H400.407V365.742ZM405.615 368.136C405.615 367.557 405.498 367.053 405.265 366.624C405.031 366.195 404.714 365.868 404.313 365.644C403.921 365.42 403.487 365.308 403.011 365.308C402.544 365.308 402.11 365.425 401.709 365.658C401.317 365.882 400.999 366.213 400.757 366.652C400.523 367.081 400.407 367.581 400.407 368.15C400.407 368.729 400.523 369.237 400.757 369.676C400.999 370.105 401.317 370.437 401.709 370.67C402.11 370.894 402.544 371.006 403.011 371.006C403.487 371.006 403.921 370.894 404.313 370.67C404.714 370.437 405.031 370.105 405.265 369.676C405.498 369.237 405.615 368.724 405.615 368.136ZM411.31 372.126C410.722 372.126 410.194 372.028 409.728 371.832C409.261 371.627 408.892 371.347 408.622 370.992C408.351 370.628 408.202 370.213 408.174 369.746H409.49C409.527 370.129 409.704 370.441 410.022 370.684C410.348 370.927 410.773 371.048 411.296 371.048C411.781 371.048 412.164 370.941 412.444 370.726C412.724 370.511 412.864 370.241 412.864 369.914C412.864 369.578 412.714 369.331 412.416 369.172C412.117 369.004 411.655 368.841 411.03 368.682C410.46 368.533 409.994 368.383 409.63 368.234C409.275 368.075 408.967 367.847 408.706 367.548C408.454 367.24 408.328 366.839 408.328 366.344C408.328 365.952 408.444 365.593 408.678 365.266C408.911 364.939 409.242 364.683 409.672 364.496C410.101 364.3 410.591 364.202 411.142 364.202C411.991 364.202 412.677 364.417 413.2 364.846C413.722 365.275 414.002 365.863 414.04 366.61H412.766C412.738 366.209 412.574 365.887 412.276 365.644C411.986 365.401 411.594 365.28 411.1 365.28C410.642 365.28 410.278 365.378 410.008 365.574C409.737 365.77 409.602 366.027 409.602 366.344C409.602 366.596 409.681 366.806 409.84 366.974C410.008 367.133 410.213 367.263 410.456 367.366C410.708 367.459 411.053 367.567 411.492 367.688C412.042 367.837 412.49 367.987 412.836 368.136C413.181 368.276 413.475 368.491 413.718 368.78C413.97 369.069 414.1 369.447 414.11 369.914C414.11 370.334 413.993 370.712 413.76 371.048C413.526 371.384 413.195 371.65 412.766 371.846C412.346 372.033 411.86 372.126 411.31 372.126Z" fill="#8D9092"/>
<path d="M162.172 333.098C161.528 333.098 160.949 332.986 160.436 332.762C159.932 332.529 159.535 332.211 159.246 331.81C158.957 331.399 158.807 330.928 158.798 330.396H160.156C160.203 330.853 160.389 331.241 160.716 331.558C161.052 331.866 161.537 332.02 162.172 332.02C162.779 332.02 163.255 331.871 163.6 331.572C163.955 331.264 164.132 330.872 164.132 330.396C164.132 330.023 164.029 329.719 163.824 329.486C163.619 329.253 163.362 329.075 163.054 328.954C162.746 328.833 162.331 328.702 161.808 328.562C161.164 328.394 160.646 328.226 160.254 328.058C159.871 327.89 159.54 327.629 159.26 327.274C158.989 326.91 158.854 326.425 158.854 325.818C158.854 325.286 158.989 324.815 159.26 324.404C159.531 323.993 159.909 323.676 160.394 323.452C160.889 323.228 161.453 323.116 162.088 323.116C163.003 323.116 163.749 323.345 164.328 323.802C164.916 324.259 165.247 324.866 165.322 325.622H163.922C163.875 325.249 163.679 324.922 163.334 324.642C162.989 324.353 162.531 324.208 161.962 324.208C161.43 324.208 160.996 324.348 160.66 324.628C160.324 324.899 160.156 325.281 160.156 325.776C160.156 326.131 160.254 326.42 160.45 326.644C160.655 326.868 160.903 327.041 161.192 327.162C161.491 327.274 161.906 327.405 162.438 327.554C163.082 327.731 163.6 327.909 163.992 328.086C164.384 328.254 164.72 328.52 165 328.884C165.28 329.239 165.42 329.724 165.42 330.34C165.42 330.816 165.294 331.264 165.042 331.684C164.79 332.104 164.417 332.445 163.922 332.706C163.427 332.967 162.844 333.098 162.172 333.098ZM166.819 329.136C166.819 328.352 166.977 327.666 167.295 327.078C167.612 326.481 168.046 326.019 168.597 325.692C169.157 325.365 169.777 325.202 170.459 325.202C171.131 325.202 171.714 325.347 172.209 325.636C172.703 325.925 173.072 326.289 173.315 326.728V325.328H174.603V333H173.315V331.572C173.063 332.02 172.685 332.393 172.181 332.692C171.686 332.981 171.107 333.126 170.445 333.126C169.763 333.126 169.147 332.958 168.597 332.622C168.046 332.286 167.612 331.815 167.295 331.208C166.977 330.601 166.819 329.911 166.819 329.136ZM173.315 329.15C173.315 328.571 173.198 328.067 172.965 327.638C172.731 327.209 172.414 326.882 172.013 326.658C171.621 326.425 171.187 326.308 170.711 326.308C170.235 326.308 169.801 326.42 169.409 326.644C169.017 326.868 168.704 327.195 168.471 327.624C168.237 328.053 168.121 328.557 168.121 329.136C168.121 329.724 168.237 330.237 168.471 330.676C168.704 331.105 169.017 331.437 169.409 331.67C169.801 331.894 170.235 332.006 170.711 332.006C171.187 332.006 171.621 331.894 172.013 331.67C172.414 331.437 172.731 331.105 172.965 330.676C173.198 330.237 173.315 329.729 173.315 329.15ZM178.03 322.64L178.03 333H176.756L176.756 322.64H178.03ZM187.201 328.87C187.201 329.113 187.187 329.369 187.159 329.64L181.027 329.64C181.074 330.396 181.33 330.989 181.797 331.418C182.273 331.838 182.847 332.048 183.519 332.048C184.07 332.048 184.527 331.922 184.891 331.67C185.264 331.409 185.526 331.063 185.675 330.634H187.047C186.842 331.371 186.431 331.973 185.815 332.44C185.199 332.897 184.434 333.126 183.519 333.126C182.791 333.126 182.138 332.963 181.559 332.636C180.99 332.309 180.542 331.847 180.215 331.25C179.888 330.643 179.725 329.943 179.725 329.15C179.725 328.357 179.884 327.661 180.201 327.064C180.518 326.467 180.962 326.009 181.531 325.692C182.11 325.365 182.772 325.202 183.519 325.202C184.247 325.202 184.891 325.361 185.451 325.678C186.011 325.995 186.44 326.434 186.739 326.994C187.047 327.545 187.201 328.17 187.201 328.87ZM185.885 328.604C185.885 328.119 185.778 327.703 185.563 327.358C185.348 327.003 185.054 326.737 184.681 326.56C184.317 326.373 183.911 326.28 183.463 326.28C182.819 326.28 182.268 326.485 181.811 326.896C181.363 327.307 181.106 327.876 181.041 328.604L185.885 328.604ZM191.599 333.126C191.011 333.126 190.483 333.028 190.017 332.832C189.55 332.627 189.181 332.347 188.911 331.992C188.64 331.628 188.491 331.213 188.463 330.746H189.779C189.816 331.129 189.993 331.441 190.311 331.684C190.637 331.927 191.062 332.048 191.585 332.048C192.07 332.048 192.453 331.941 192.733 331.726C193.013 331.511 193.153 331.241 193.153 330.914C193.153 330.578 193.003 330.331 192.705 330.172C192.406 330.004 191.944 329.841 191.319 329.682C190.749 329.533 190.283 329.383 189.919 329.234C189.564 329.075 189.256 328.847 188.995 328.548C188.743 328.24 188.617 327.839 188.617 327.344C188.617 326.952 188.733 326.593 188.967 326.266C189.2 325.939 189.531 325.683 189.961 325.496C190.39 325.3 190.88 325.202 191.431 325.202C192.28 325.202 192.966 325.417 193.489 325.846C194.011 326.275 194.291 326.863 194.329 327.61H193.055C193.027 327.209 192.863 326.887 192.565 326.644C192.275 326.401 191.883 326.28 191.389 326.28C190.931 326.28 190.567 326.378 190.297 326.574C190.026 326.77 189.891 327.027 189.891 327.344C189.891 327.596 189.97 327.806 190.129 327.974C190.297 328.133 190.502 328.263 190.745 328.366C190.997 328.459 191.342 328.567 191.781 328.688C192.331 328.837 192.779 328.987 193.125 329.136C193.47 329.276 193.764 329.491 194.007 329.78C194.259 330.069 194.389 330.447 194.399 330.914C194.399 331.334 194.282 331.712 194.049 332.048C193.815 332.384 193.484 332.65 193.055 332.846C192.635 333.033 192.149 333.126 191.599 333.126Z" fill="#8D9092"/>
</svg>
